<svg xmlns="http://www.w3.org/2000/svg" xmlns:xlink="http://www.w3.org/1999/xlink" width="125" height="134" viewBox="0 0 125 134">
  <defs>
    <clipPath id="clip-path">
      <rect id="사각형_7880" data-name="사각형 7880" width="125" height="134" transform="translate(250 54)" fill="#fff" stroke="#707070" stroke-width="1"/>
    </clipPath>
    <clipPath id="clip-path-2">
      <path id="패스_18196" data-name="패스 18196" d="M210.937,68.593A13.836,13.836,0,1,0,197.1,82.415a13.829,13.829,0,0,0,13.836-13.821m-15.25-16.208a16.289,16.289,0,0,1,4.687.251l2.691-3.928,6.1,2.975-1.434,4.5a16.282,16.282,0,0,1,3.148,3.561l4.647-.87,2.206,6.413-4.237,2.188a16.262,16.262,0,0,1-.325,4.672l3.971,2.715-2.979,6.094-4.681-1.49a16.28,16.28,0,0,1-3.43,2.959l.916,4.883-6.42,2.2-2.329-4.5a16.262,16.262,0,0,1-4.369-.3l-2.887,4.214-6.1-2.976,1.564-4.905a16.288,16.288,0,0,1-2.858-3.231l-5.066.948-2.207-6.414L180.835,70a16.245,16.245,0,0,1,.232-4.371l-4.182-2.86,2.979-6.093,4.733,1.506a16.275,16.275,0,0,1,3.367-3.04l-.9-4.818,6.42-2.205Z" transform="translate(-176.294 -48.118)" fill="#0093ff"/>
    </clipPath>
    <clipPath id="clip-path-3">
      <path id="패스_18196-2" data-name="패스 18196" d="M195.816,59.656a7.8,7.8,0,1,0-7.8,7.789,7.793,7.793,0,0,0,7.8-7.789m-8.594-9.134a9.179,9.179,0,0,1,2.641.141l1.516-2.213,3.438,1.677-.808,2.534a9.175,9.175,0,0,1,1.774,2.006l2.618-.49,1.243,3.614-2.388,1.233a9.164,9.164,0,0,1-.183,2.633l2.238,1.53-1.679,3.434L195,65.782a9.174,9.174,0,0,1-1.933,1.668l.516,2.752-3.618,1.242-1.313-2.537a9.164,9.164,0,0,1-2.462-.17l-1.627,2.375-3.438-1.677L182,66.67a9.179,9.179,0,0,1-1.611-1.821l-2.855.534-1.244-3.614,2.559-1.321a9.155,9.155,0,0,1,.131-2.463l-2.357-1.611,1.679-3.434,2.667.849a9.171,9.171,0,0,1,1.9-1.713l-.509-2.715,3.618-1.243Z" transform="translate(-176.294 -48.118)" fill="#0093ff"/>
    </clipPath>
  </defs>
  <g id="topimg_ai" transform="translate(-250 -54)" clip-path="url(#clip-path)">
    <g id="그룹_6231" data-name="그룹 6231" transform="translate(11.277 14.002)" opacity="0.2">
      <path id="패스_19617" data-name="패스 19617" d="M-18739.582-17574.693s-1.283-21.52,22.123-26.664,32.717,18.1,32.717,18.1a10.7,10.7,0,0,1,11.164-.768,9.325,9.325,0,0,1,5.047,9.332s15.953,2.152,14.486,18.49-16.049,16.109-16.049,16.109H-18742s-14.033-2.314-14.229-17.916S-18739.582-17574.693-18739.582-17574.693Z" transform="translate(19017.672 17648.879)" fill="none" stroke="#0093ff" stroke-width="3"/>
      <path id="패스_19618" data-name="패스 19618" d="M-18560-17162.23v18.59" transform="translate(18847 17271.016)" fill="none" stroke="#0093ff" stroke-width="1"/>
      <path id="패스_19619" data-name="패스 19619" d="M-18546.605-17162.23v21.777h10.023v14.518" transform="translate(18849 17271.016)" fill="none" stroke="#0093ff" stroke-width="1"/>
      <path id="패스_19620" data-name="패스 19620" d="M-18527.582-17162.23v15.934h9.494" transform="translate(18845 17271.016)" fill="none" stroke="#0093ff" stroke-width="1"/>
      <path id="패스_19621" data-name="패스 19621" d="M-18508.143-17162.23v7.924h11.713v22.555" transform="translate(18841.055 17271.016)" fill="none" stroke="#0093ff" stroke-width="1"/>
      <circle id="타원_307" data-name="타원 307" cx="4" cy="4" r="4" transform="translate(340.625 136)" fill="#0093ff"/>
      <circle id="타원_308" data-name="타원 308" cx="4" cy="4" r="4" transform="translate(324 121)" fill="#0093ff"/>
      <circle id="타원_309" data-name="타원 309" cx="4" cy="4" r="4" transform="translate(308.418 142)" fill="#0093ff"/>
      <circle id="타원_310" data-name="타원 310" cx="4" cy="4" r="4" transform="translate(283 122)" fill="#0093ff"/>
      <g id="그룹_5360" data-name="그룹 5360" transform="translate(285.475 55.393)">
        <g id="그룹_5355" data-name="그룹 5355" clip-path="url(#clip-path-2)">
          <rect id="사각형_7472" data-name="사각형 7472" width="54.537" height="54.569" transform="translate(6.652 56.615) rotate(-113.629)" fill="#0093ff"/>
        </g>
      </g>
      <g id="그룹_6232" data-name="그룹 6232" transform="matrix(0.914, 0.407, -0.407, 0.914, 331.704, 77.09)">
        <g id="그룹_5355-2" data-name="그룹 5355" transform="translate(2.334 -2.134)" clip-path="url(#clip-path-3)">
          <rect id="사각형_7472-2" data-name="사각형 7472" width="30.733" height="30.751" transform="translate(3.748 31.904) rotate(-113.629)" fill="#0093ff"/>
        </g>
      </g>
    </g>
  </g>
</svg>
