<svg xmlns="http://www.w3.org/2000/svg" xmlns:xlink="http://www.w3.org/1999/xlink" width="145" height="320" viewBox="0 0 145 320">
  <defs>
    <linearGradient id="linear-gradient" x1="0.693" y1="0.131" x2="0.254" y2="0.736" gradientUnits="objectBoundingBox">
      <stop offset="0" stop-color="#19242e"/>
      <stop offset="1" stop-color="#126fbe"/>
    </linearGradient>
    <linearGradient id="linear-gradient-2" x1="1.131" y1="1.197" x2="0.493" y2="1.534" gradientUnits="objectBoundingBox">
      <stop offset="0" stop-color="#fff"/>
      <stop offset="0.025" stop-color="#abeb55"/>
      <stop offset="0.176" stop-color="#87e36b"/>
      <stop offset="0.507" stop-color="#2fd2a5"/>
      <stop offset="0.667" stop-color="#03c9c2"/>
      <stop offset="1" stop-color="#5277f7"/>
    </linearGradient>
    <clipPath id="clip-path">
      <rect id="사각형_7868" data-name="사각형 7868" width="145" height="320" transform="translate(230)" fill="#fff" stroke="#707070" stroke-width="1"/>
    </clipPath>
    <clipPath id="clip-path-2">
      <rect id="사각형_7611" data-name="사각형 7611" width="19.193" height="11.081" fill="none"/>
    </clipPath>
    <clipPath id="clip-path-3">
      <path id="패스_18563" data-name="패스 18563" d="M215.529,244.491a15.072,15.072,0,0,1,13.588,0c3.736,2.157,3.736,5.688,0,7.845a15.076,15.076,0,0,1-13.588,0c-3.736-2.157-3.736-5.688,0-7.845" transform="translate(-212.726 -242.873)" fill="none"/>
    </clipPath>
    <radialGradient id="radial-gradient" cx="0.5" cy="0.5" r="0.798" gradientTransform="matrix(0.577, 0, 0, -0.517, -2.453, 2.223)" gradientUnits="objectBoundingBox">
      <stop offset="0" stop-color="#2842a2"/>
      <stop offset="0.097" stop-color="#556ab5"/>
      <stop offset="0.207" stop-color="#8291c9"/>
      <stop offset="0.321" stop-color="#a8b3d9"/>
      <stop offset="0.439" stop-color="#c8cee7"/>
      <stop offset="0.562" stop-color="#e0e4f1"/>
      <stop offset="0.691" stop-color="#f1f3f9"/>
      <stop offset="0.83" stop-color="#fbfcfd"/>
      <stop offset="1" stop-color="#fff"/>
    </radialGradient>
    <clipPath id="clip-path-6">
      <rect id="사각형_7867" data-name="사각형 7867" width="106.838" height="167.692" fill="none"/>
    </clipPath>
    <clipPath id="clip-path-8">
      <rect id="사각형_7838" data-name="사각형 7838" width="105.418" height="63.417" transform="translate(1.42 104.275)" fill="none"/>
    </clipPath>
    <clipPath id="clip-path-10">
      <rect id="사각형_7817" data-name="사각형 7817" width="102.701" height="61.806" transform="translate(2.19 105.384)" fill="none"/>
    </clipPath>
    <clipPath id="clip-path-11">
      <rect id="사각형_7818" data-name="사각형 7818" width="99.988" height="60.198" transform="translate(2.961 106.49)" fill="none"/>
    </clipPath>
    <clipPath id="clip-path-12">
      <rect id="사각형_7819" data-name="사각형 7819" width="97.28" height="58.593" transform="translate(3.732 107.592)" fill="none"/>
    </clipPath>
    <clipPath id="clip-path-13">
      <rect id="사각형_7820" data-name="사각형 7820" width="94.577" height="56.991" transform="translate(4.503 108.692)" fill="none"/>
    </clipPath>
    <clipPath id="clip-path-14">
      <rect id="사각형_7821" data-name="사각형 7821" width="91.879" height="55.391" transform="translate(5.274 109.79)" fill="none"/>
    </clipPath>
    <clipPath id="clip-path-15">
      <rect id="사각형_7822" data-name="사각형 7822" width="89.185" height="53.795" transform="translate(6.044 110.884)" fill="none"/>
    </clipPath>
    <clipPath id="clip-path-16">
      <rect id="사각형_7823" data-name="사각형 7823" width="86.496" height="52.206" transform="translate(6.815 111.976)" fill="none"/>
    </clipPath>
    <clipPath id="clip-path-17">
      <rect id="사각형_7824" data-name="사각형 7824" width="83.822" height="50.639" transform="translate(7.575 113.064)" fill="none"/>
    </clipPath>
    <clipPath id="clip-path-18">
      <rect id="사각형_7825" data-name="사각형 7825" width="81.187" height="49.095" transform="translate(8.299 114.15)" fill="none"/>
    </clipPath>
    <clipPath id="clip-path-19">
      <rect id="사각형_7826" data-name="사각형 7826" width="78.596" height="47.572" transform="translate(8.984 115.232)" fill="none"/>
    </clipPath>
    <clipPath id="clip-path-20">
      <rect id="사각형_7827" data-name="사각형 7827" width="76.045" height="46.067" transform="translate(9.632 116.311)" fill="none"/>
    </clipPath>
    <clipPath id="clip-path-21">
      <rect id="사각형_7828" data-name="사각형 7828" width="73.529" height="44.579" transform="translate(10.249 117.387)" fill="none"/>
    </clipPath>
    <clipPath id="clip-path-22">
      <rect id="사각형_7829" data-name="사각형 7829" width="71.043" height="43.104" transform="translate(10.84 118.458)" fill="none"/>
    </clipPath>
    <clipPath id="clip-path-23">
      <rect id="사각형_7830" data-name="사각형 7830" width="68.582" height="41.642" transform="translate(11.408 119.526)" fill="none"/>
    </clipPath>
    <clipPath id="clip-path-24">
      <rect id="사각형_7831" data-name="사각형 7831" width="67.339" height="40.668" transform="translate(10.762 120.59)" fill="none"/>
    </clipPath>
    <clipPath id="clip-path-25">
      <rect id="사각형_7832" data-name="사각형 7832" width="66.472" height="39.726" transform="translate(9.743 121.65)" fill="none"/>
    </clipPath>
    <clipPath id="clip-path-26">
      <rect id="사각형_7833" data-name="사각형 7833" width="65.631" height="38.803" transform="translate(8.7 122.705)" fill="none"/>
    </clipPath>
    <clipPath id="clip-path-27">
      <rect id="사각형_7834" data-name="사각형 7834" width="64.821" height="37.904" transform="translate(7.628 123.756)" fill="none"/>
    </clipPath>
    <clipPath id="clip-path-28">
      <rect id="사각형_7835" data-name="사각형 7835" width="64.049" height="37.036" transform="translate(6.52 124.802)" fill="none"/>
    </clipPath>
    <clipPath id="clip-path-29">
      <rect id="사각형_7836" data-name="사각형 7836" width="63.322" height="36.21" transform="translate(5.37 125.843)" fill="none"/>
    </clipPath>
    <clipPath id="clip-path-30">
      <rect id="사각형_7837" data-name="사각형 7837" width="62.643" height="35.434" transform="translate(4.173 126.879)" fill="none"/>
    </clipPath>
    <clipPath id="clip-path-31">
      <path id="패스_19542" data-name="패스 19542" d="M9.247.6C9.178.621,3,3.4,2.938,3.444c-1.583,1.143,1.03,1.845,1.03,5.024v110.7c0,6.251,3.8,13.514,8.49,16.221l41.565,24c2.051,1.184-.419,3.054,1.1,2.549.113-.038,7.041-3.25,7.142-3.314,1.709-1.084,2.782-3.452,2.782-6.774V41.148c0-6.251-3.8-13.513-8.489-16.22L14.988.93A6.081,6.081,0,0,0,11.894.039,7.372,7.372,0,0,0,9.247.6" fill="none"/>
    </clipPath>
    <linearGradient id="linear-gradient-3" x1="0.2" y1="0.996" x2="0.209" y2="0.996" gradientUnits="objectBoundingBox">
      <stop offset="0" stop-color="#b0b7e6"/>
      <stop offset="0.192" stop-color="#b2b8e6"/>
      <stop offset="0.283" stop-color="#b3b9e6"/>
      <stop offset="0.409" stop-color="#afb6e5"/>
      <stop offset="0.909" stop-color="#afb6e5"/>
      <stop offset="1" stop-color="#b0b7e6"/>
    </linearGradient>
    <clipPath id="clip-path-32">
      <path id="패스_19543" data-name="패스 19543" d="M9.145.633C9.077.66,3,3.4,2.938,3.444c-1.583,1.143,1.03,1.845,1.03,5.024v110.7c0,6.251,3.8,13.514,8.49,16.221l41.565,24c2.051,1.184-.419,3.054,1.1,2.549.113-.038,6.939-3.212,7.04-3.276,1.709-1.084,2.782-3.452,2.782-6.773V41.187c0-6.252-3.8-13.514-8.489-16.222L14.885.968A6.08,6.08,0,0,0,11.791.076,7.363,7.363,0,0,0,9.145.633" fill="none"/>
    </clipPath>
    <linearGradient id="linear-gradient-4" x1="0.2" y1="0.997" x2="0.209" y2="0.997" gradientUnits="objectBoundingBox">
      <stop offset="0" stop-color="#b2b9e6"/>
      <stop offset="0.192" stop-color="#b4bbe7"/>
      <stop offset="0.283" stop-color="#b7bde7"/>
      <stop offset="0.409" stop-color="#afb6e5"/>
      <stop offset="0.909" stop-color="#afb6e5"/>
      <stop offset="1" stop-color="#b2b9e6"/>
    </linearGradient>
    <clipPath id="clip-path-33">
      <path id="패스_19544" data-name="패스 19544" d="M9.042.671C8.974.7,3,3.4,2.938,3.444c-1.583,1.143,1.03,1.845,1.03,5.024v110.7c0,6.251,3.8,13.514,8.49,16.221l41.565,24c2.051,1.184-.419,3.054,1.1,2.549.113-.038,6.836-3.174,6.937-3.238,1.709-1.084,2.783-3.452,2.783-6.774V41.225c0-6.252-3.8-13.515-8.49-16.222l-41.566-24A6.073,6.073,0,0,0,11.689.114,7.347,7.347,0,0,0,9.042.671" fill="none"/>
    </clipPath>
    <linearGradient id="linear-gradient-5" x1="0.2" y1="0.997" x2="0.209" y2="0.997" gradientUnits="objectBoundingBox">
      <stop offset="0" stop-color="#b3bae7"/>
      <stop offset="0.192" stop-color="#b7bde9"/>
      <stop offset="0.283" stop-color="#bac0e9"/>
      <stop offset="0.409" stop-color="#afb6e5"/>
      <stop offset="0.909" stop-color="#afb6e5"/>
      <stop offset="1" stop-color="#b3bae7"/>
    </linearGradient>
    <clipPath id="clip-path-34">
      <path id="패스_19545" data-name="패스 19545" d="M8.94.71C8.871.736,3,3.4,2.938,3.444c-1.583,1.143,1.03,1.845,1.03,5.024v110.7c0,6.251,3.8,13.514,8.49,16.221l41.565,24c2.051,1.184-.419,3.054,1.1,2.549.113-.038,6.734-3.136,6.835-3.2,1.709-1.084,2.782-3.452,2.782-6.774V41.263c0-6.252-3.8-13.515-8.49-16.221l-41.565-24A6.073,6.073,0,0,0,11.587.152,7.348,7.348,0,0,0,8.94.71" fill="none"/>
    </clipPath>
    <linearGradient id="linear-gradient-6" x1="0.2" y1="0.997" x2="0.209" y2="0.997" gradientUnits="objectBoundingBox">
      <stop offset="0" stop-color="#b5bbe8"/>
      <stop offset="0.192" stop-color="#b9c0ea"/>
      <stop offset="0.283" stop-color="#bec4ea"/>
      <stop offset="0.409" stop-color="#afb6e5"/>
      <stop offset="0.909" stop-color="#afb6e5"/>
      <stop offset="1" stop-color="#b5bbe8"/>
    </linearGradient>
    <clipPath id="clip-path-35">
      <path id="패스_19546" data-name="패스 19546" d="M8.838.747C8.769.773,3,3.4,2.938,3.444c-1.583,1.143,1.03,1.845,1.03,5.024v110.7c0,6.251,3.8,13.514,8.49,16.221l41.565,24c2.051,1.184-.419,3.054,1.1,2.549.113-.038,6.631-3.1,6.733-3.163,1.709-1.083,2.781-3.451,2.781-6.773V41.3c0-6.251-3.8-13.513-8.489-16.22l-41.566-24A6.077,6.077,0,0,0,11.485.19,7.347,7.347,0,0,0,8.838.747" fill="none"/>
    </clipPath>
    <linearGradient id="linear-gradient-7" x1="0.201" y1="0.997" x2="0.21" y2="0.997" gradientUnits="objectBoundingBox">
      <stop offset="0" stop-color="#b6bde8"/>
      <stop offset="0.192" stop-color="#bcc2eb"/>
      <stop offset="0.283" stop-color="#c2c7eb"/>
      <stop offset="0.409" stop-color="#afb6e5"/>
      <stop offset="0.909" stop-color="#afb6e5"/>
      <stop offset="1" stop-color="#b6bde8"/>
    </linearGradient>
    <clipPath id="clip-path-36">
      <path id="패스_19547" data-name="패스 19547" d="M8.735.785C8.666.811,3,3.4,2.938,3.444c-1.583,1.143,1.03,1.845,1.03,5.024v110.7c0,6.251,3.8,13.514,8.49,16.221l41.565,24c2.051,1.184-.419,3.054,1.1,2.549.113-.038,6.528-3.06,6.63-3.124,1.709-1.084,2.782-3.452,2.782-6.774V41.338c0-6.251-3.8-13.513-8.49-16.22l-41.565-24A6.081,6.081,0,0,0,11.382.229,7.367,7.367,0,0,0,8.735.785" fill="none"/>
    </clipPath>
    <linearGradient id="linear-gradient-8" x1="0.201" y1="0.997" x2="0.21" y2="0.997" gradientUnits="objectBoundingBox">
      <stop offset="0" stop-color="#b8bee9"/>
      <stop offset="0.192" stop-color="#bec5ec"/>
      <stop offset="0.283" stop-color="#c6cbec"/>
      <stop offset="0.387" stop-color="#b3bae6"/>
      <stop offset="0.409" stop-color="#afb6e5"/>
      <stop offset="0.909" stop-color="#afb6e5"/>
      <stop offset="1" stop-color="#b8bee9"/>
    </linearGradient>
    <clipPath id="clip-path-37">
      <path id="패스_19548" data-name="패스 19548" d="M8.633.823C8.564.85,3,3.4,2.938,3.444c-1.583,1.143,1.03,1.845,1.03,5.024v110.7c0,6.251,3.8,13.514,8.49,16.221l41.565,24c2.051,1.184-.419,3.054,1.1,2.549.113-.038,6.427-3.022,6.527-3.086,1.709-1.085,2.782-3.453,2.782-6.774V41.377c0-6.252-3.8-13.514-8.489-16.222l-41.566-24A6.07,6.07,0,0,0,11.279.266,7.342,7.342,0,0,0,8.633.823" fill="none"/>
    </clipPath>
    <linearGradient id="linear-gradient-9" x1="0.201" y1="0.997" x2="0.21" y2="0.997" gradientUnits="objectBoundingBox">
      <stop offset="0" stop-color="#b9bfea"/>
      <stop offset="0.192" stop-color="#c1c7ee"/>
      <stop offset="0.283" stop-color="#caceee"/>
      <stop offset="0.381" stop-color="#b5bce7"/>
      <stop offset="0.409" stop-color="#afb6e5"/>
      <stop offset="0.909" stop-color="#afb6e5"/>
      <stop offset="1" stop-color="#b9bfea"/>
    </linearGradient>
    <clipPath id="clip-path-38">
      <path id="패스_19549" data-name="패스 19549" d="M8.53.861C8.461.888,3,3.4,2.938,3.444c-1.583,1.143,1.03,1.845,1.03,5.024v110.7c0,6.251,3.8,13.514,8.49,16.221l41.565,24c2.051,1.184-.419,3.054,1.1,2.549.113-.038,6.324-2.984,6.425-3.048,1.709-1.084,2.783-3.452,2.783-6.774V41.415c0-6.252-3.8-13.515-8.49-16.221L14.27,1.2A6.067,6.067,0,0,0,11.177.3,7.347,7.347,0,0,0,8.53.861" fill="none"/>
    </clipPath>
    <linearGradient id="linear-gradient-10" x1="0.201" y1="0.997" x2="0.21" y2="0.997" gradientUnits="objectBoundingBox">
      <stop offset="0" stop-color="#bac1ea"/>
      <stop offset="0.192" stop-color="#c4c9ef"/>
      <stop offset="0.283" stop-color="#cdd2ef"/>
      <stop offset="0.361" stop-color="#bbc2e9"/>
      <stop offset="0.409" stop-color="#afb6e5"/>
      <stop offset="0.909" stop-color="#afb6e5"/>
      <stop offset="0.997" stop-color="#b9c0e9"/>
      <stop offset="1" stop-color="#bac1ea"/>
    </linearGradient>
    <clipPath id="clip-path-39">
      <path id="패스_19550" data-name="패스 19550" d="M8.428.9C8.359.926,3,3.4,2.938,3.444c-1.583,1.143,1.03,1.845,1.03,5.024v110.7c0,6.251,3.8,13.514,8.49,16.221l41.565,24c2.051,1.184-.419,3.054,1.1,2.549.113-.038,6.221-2.946,6.322-3.011,1.709-1.083,2.783-3.451,2.783-6.773V41.453c0-6.252-3.8-13.515-8.49-16.221l-41.566-24A6.077,6.077,0,0,0,11.075.342,7.342,7.342,0,0,0,8.428.9" fill="none"/>
    </clipPath>
    <linearGradient id="linear-gradient-11" x1="0.201" y1="0.997" x2="0.21" y2="0.997" gradientUnits="objectBoundingBox">
      <stop offset="0" stop-color="#bcc2eb"/>
      <stop offset="0.192" stop-color="#c6ccf0"/>
      <stop offset="0.274" stop-color="#cfd3f0"/>
      <stop offset="0.283" stop-color="#d1d5f0"/>
      <stop offset="0.357" stop-color="#bec4ea"/>
      <stop offset="0.409" stop-color="#afb6e5"/>
      <stop offset="0.909" stop-color="#afb6e5"/>
      <stop offset="0.985" stop-color="#b9bfe9"/>
      <stop offset="1" stop-color="#bcc2eb"/>
    </linearGradient>
    <clipPath id="clip-path-40">
      <path id="패스_19551" data-name="패스 19551" d="M8.325.937C8.257.963,3,3.4,2.938,3.444c-1.583,1.143,1.03,1.845,1.03,5.024v110.7c0,6.251,3.8,13.514,8.49,16.221l41.565,24c2.051,1.184-.419,3.054,1.1,2.549.113-.038,6.119-2.908,6.22-2.973,1.71-1.083,2.782-3.451,2.782-6.773V41.49c0-6.251-3.8-13.513-8.489-16.22l-41.566-24A6.075,6.075,0,0,0,10.973.38,7.378,7.378,0,0,0,8.325.937" fill="none"/>
    </clipPath>
    <linearGradient id="linear-gradient-12" x1="0.201" y1="0.997" x2="0.211" y2="0.997" gradientUnits="objectBoundingBox">
      <stop offset="0" stop-color="#bdc3ec"/>
      <stop offset="0.192" stop-color="#c9cef1"/>
      <stop offset="0.271" stop-color="#d3d7f1"/>
      <stop offset="0.283" stop-color="#d5d9f1"/>
      <stop offset="0.352" stop-color="#c1c7ea"/>
      <stop offset="0.409" stop-color="#afb6e5"/>
      <stop offset="0.909" stop-color="#afb6e5"/>
      <stop offset="0.98" stop-color="#b9bfea"/>
      <stop offset="1" stop-color="#bdc3ec"/>
    </linearGradient>
    <clipPath id="clip-path-41">
      <path id="패스_19552" data-name="패스 19552" d="M8.223.975C8.154,1,3,3.4,2.938,3.444c-1.583,1.143,1.03,1.845,1.03,5.024v110.7c0,6.251,3.8,13.514,8.49,16.221l41.565,24c2.051,1.184-.419,3.054,1.1,2.549.113-.038,6.016-2.87,6.118-2.934,1.709-1.085,2.782-3.452,2.782-6.774V41.528c0-6.251-3.8-13.513-8.49-16.221l-41.565-24A6.085,6.085,0,0,0,10.87.418,7.368,7.368,0,0,0,8.223.975" fill="none"/>
    </clipPath>
    <linearGradient id="linear-gradient-13" x1="0.202" y1="0.997" x2="0.211" y2="0.997" gradientUnits="objectBoundingBox">
      <stop offset="0" stop-color="#bfc5ec"/>
      <stop offset="0.192" stop-color="#cbd1f3"/>
      <stop offset="0.261" stop-color="#d4d8f3"/>
      <stop offset="0.283" stop-color="#d9dcf3"/>
      <stop offset="0.345" stop-color="#c6cbec"/>
      <stop offset="0.409" stop-color="#afb6e5"/>
      <stop offset="0.909" stop-color="#afb6e5"/>
      <stop offset="0.974" stop-color="#b9bfe9"/>
      <stop offset="1" stop-color="#bfc5ec"/>
    </linearGradient>
    <clipPath id="clip-path-42">
      <path id="패스_19553" data-name="패스 19553" d="M8.121,1.013C8.051,1.04,3,3.4,2.938,3.444c-1.583,1.143,1.03,1.845,1.03,5.024v110.7c0,6.251,3.8,13.514,8.49,16.221l41.565,24c2.051,1.184-.419,3.054,1.1,2.549.113-.038,5.914-2.832,6.015-2.9,1.709-1.085,2.782-3.453,2.782-6.774V41.567c0-6.252-3.8-13.514-8.49-16.222l-41.565-24A6.073,6.073,0,0,0,10.767.456a7.342,7.342,0,0,0-2.646.557" fill="none"/>
    </clipPath>
    <linearGradient id="linear-gradient-14" x1="0.202" y1="0.997" x2="0.211" y2="0.997" gradientUnits="objectBoundingBox">
      <stop offset="0" stop-color="#c0c6ed"/>
      <stop offset="0.192" stop-color="#ced3f4"/>
      <stop offset="0.257" stop-color="#d7dbf4"/>
      <stop offset="0.283" stop-color="#dde0f4"/>
      <stop offset="0.34" stop-color="#cacfee"/>
      <stop offset="0.409" stop-color="#afb6e5"/>
      <stop offset="0.909" stop-color="#afb6e5"/>
      <stop offset="0.972" stop-color="#b9bfe9"/>
      <stop offset="1" stop-color="#c0c6ed"/>
    </linearGradient>
    <clipPath id="clip-path-43">
      <path id="패스_19554" data-name="패스 19554" d="M8.018,1.051C7.949,1.078,3,3.4,2.938,3.444c-1.583,1.143,1.03,1.845,1.03,5.024v110.7c0,6.251,3.8,13.514,8.49,16.221l41.565,24c2.051,1.184-.419,3.054,1.1,2.549.113-.038,5.811-2.8,5.913-2.858,1.709-1.084,2.782-3.452,2.782-6.774V41.6c0-6.252-3.8-13.515-8.489-16.221l-41.567-24A6.075,6.075,0,0,0,10.665.494a7.347,7.347,0,0,0-2.647.557" fill="none"/>
    </clipPath>
    <linearGradient id="linear-gradient-15" x1="0.202" y1="0.997" x2="0.211" y2="0.997" gradientUnits="objectBoundingBox">
      <stop offset="0" stop-color="#c2c7ee"/>
      <stop offset="0.192" stop-color="#d0d6f5"/>
      <stop offset="0.252" stop-color="#d9ddf5"/>
      <stop offset="0.283" stop-color="#e1e3f5"/>
      <stop offset="0.337" stop-color="#ced1ee"/>
      <stop offset="0.409" stop-color="#afb6e5"/>
      <stop offset="0.909" stop-color="#afb6e5"/>
      <stop offset="0.967" stop-color="#b9bfea"/>
      <stop offset="1" stop-color="#c2c7ee"/>
    </linearGradient>
    <clipPath id="clip-path-44">
      <path id="패스_19555" data-name="패스 19555" d="M7.915,1.089C7.846,1.115,3,3.4,2.938,3.444c-1.583,1.143,1.03,1.845,1.03,5.024v110.7c0,6.251,3.8,13.514,8.49,16.221l41.565,24c2.051,1.184-.419,3.054,1.1,2.549.113-.038,5.709-2.756,5.81-2.821,1.709-1.083,2.782-3.451,2.782-6.773V41.643c0-6.252-3.8-13.515-8.489-16.221l-41.566-24A6.077,6.077,0,0,0,10.563.532a7.352,7.352,0,0,0-2.648.557" fill="none"/>
    </clipPath>
    <linearGradient id="linear-gradient-16" x1="0.202" y1="0.998" x2="0.211" y2="0.998" gradientUnits="objectBoundingBox">
      <stop offset="0" stop-color="#c3c9ee"/>
      <stop offset="0.192" stop-color="#d3d8f6"/>
      <stop offset="0.253" stop-color="#dde0f6"/>
      <stop offset="0.283" stop-color="#e4e7f6"/>
      <stop offset="0.335" stop-color="#d1d5ef"/>
      <stop offset="0.409" stop-color="#afb6e5"/>
      <stop offset="0.909" stop-color="#afb6e5"/>
      <stop offset="0.965" stop-color="#b9c0e9"/>
      <stop offset="1" stop-color="#c3c9ee"/>
    </linearGradient>
    <clipPath id="clip-path-45">
      <path id="패스_19556" data-name="패스 19556" d="M7.813,1.127C7.745,1.153,3,3.4,2.938,3.444c-1.583,1.143,1.03,1.845,1.03,5.024v110.7c0,6.251,3.8,13.514,8.49,16.221l41.565,24c2.051,1.184-.419,3.054,1.1,2.549.113-.038,5.607-2.718,5.708-2.783,1.709-1.083,2.782-3.451,2.782-6.773V41.68c0-6.251-3.8-13.513-8.489-16.22l-41.567-24A6.074,6.074,0,0,0,10.461.57a7.369,7.369,0,0,0-2.648.557" fill="none"/>
    </clipPath>
    <linearGradient id="linear-gradient-17" x1="0.202" y1="0.998" x2="0.211" y2="0.998" gradientUnits="objectBoundingBox">
      <stop offset="0" stop-color="#c4caef"/>
      <stop offset="0.192" stop-color="#d6daf8"/>
      <stop offset="0.25" stop-color="#e0e2f8"/>
      <stop offset="0.283" stop-color="#e8eaf8"/>
      <stop offset="0.333" stop-color="#d3d7f1"/>
      <stop offset="0.409" stop-color="#afb6e5"/>
      <stop offset="0.909" stop-color="#afb6e5"/>
      <stop offset="0.962" stop-color="#b9bfe9"/>
      <stop offset="1" stop-color="#c4caef"/>
    </linearGradient>
    <clipPath id="clip-path-46">
      <path id="패스_19557" data-name="패스 19557" d="M7.71,1.165C7.642,1.191,3,3.4,2.938,3.444c-1.583,1.143,1.03,1.845,1.03,5.024v110.7c0,6.251,3.8,13.514,8.49,16.221l41.565,24c2.051,1.184-.419,3.054,1.1,2.549.113-.038,5.5-2.68,5.6-2.744,1.71-1.085,2.783-3.452,2.783-6.774V41.718c0-6.251-3.8-13.513-8.49-16.221L13.451,1.5A6.07,6.07,0,0,0,10.357.608a7.347,7.347,0,0,0-2.647.557" fill="none"/>
    </clipPath>
    <linearGradient id="linear-gradient-18" x1="0.202" y1="0.998" x2="0.212" y2="0.998" gradientUnits="objectBoundingBox">
      <stop offset="0" stop-color="#c6cbf0"/>
      <stop offset="0.192" stop-color="#d8ddf9"/>
      <stop offset="0.247" stop-color="#e2e5f9"/>
      <stop offset="0.283" stop-color="#eceef9"/>
      <stop offset="0.331" stop-color="#d7dbf2"/>
      <stop offset="0.409" stop-color="#afb6e5"/>
      <stop offset="0.909" stop-color="#afb6e5"/>
      <stop offset="0.959" stop-color="#b9bfea"/>
      <stop offset="1" stop-color="#c6cbf0"/>
    </linearGradient>
    <clipPath id="clip-path-47">
      <path id="패스_19558" data-name="패스 19558" d="M7.608,1.2C7.539,1.23,3,3.4,2.938,3.444c-1.583,1.143,1.03,1.845,1.03,5.024v110.7c0,6.251,3.8,13.514,8.49,16.221l41.565,24c2.051,1.184-.419,3.054,1.1,2.549.113-.038,5.4-2.642,5.5-2.706,1.709-1.084,2.782-3.453,2.782-6.774V41.757c0-6.252-3.8-13.515-8.49-16.222l-41.565-24A6.073,6.073,0,0,0,10.255.646,7.347,7.347,0,0,0,7.608,1.2" fill="none"/>
    </clipPath>
    <linearGradient id="linear-gradient-19" x1="0.203" y1="0.998" x2="0.212" y2="0.998" gradientUnits="objectBoundingBox">
      <stop offset="0" stop-color="#c7cdf0"/>
      <stop offset="0.192" stop-color="#dbdffa"/>
      <stop offset="0.244" stop-color="#e5e7fa"/>
      <stop offset="0.283" stop-color="#f0f1fa"/>
      <stop offset="0.328" stop-color="#dcdef3"/>
      <stop offset="0.409" stop-color="#afb6e5"/>
      <stop offset="0.909" stop-color="#afb6e5"/>
      <stop offset="0.958" stop-color="#b9c0ea"/>
      <stop offset="1" stop-color="#c7cdf0"/>
    </linearGradient>
    <clipPath id="clip-path-48">
      <path id="패스_19559" data-name="패스 19559" d="M7.506,1.241C7.437,1.268,3,3.4,2.938,3.444c-1.583,1.143,1.03,1.845,1.03,5.024v110.7c0,6.251,3.8,13.514,8.49,16.221l41.565,24c2.051,1.184-.419,3.054,1.1,2.549.113-.038,5.3-2.605,5.4-2.668,1.709-1.084,2.781-3.452,2.781-6.774V41.795c0-6.252-3.8-13.515-8.489-16.222l-41.566-24A6.081,6.081,0,0,0,10.152.684a7.342,7.342,0,0,0-2.646.557" fill="none"/>
    </clipPath>
    <linearGradient id="linear-gradient-20" x1="0.203" y1="0.998" x2="0.212" y2="0.998" gradientUnits="objectBoundingBox">
      <stop offset="0" stop-color="#c9cef1"/>
      <stop offset="0.192" stop-color="#dde2fb"/>
      <stop offset="0.241" stop-color="#e7eafb"/>
      <stop offset="0.283" stop-color="#f4f5fb"/>
      <stop offset="0.325" stop-color="#e0e2f4"/>
      <stop offset="0.409" stop-color="#afb6e5"/>
      <stop offset="0.909" stop-color="#afb6e5"/>
      <stop offset="0.954" stop-color="#b9bfe9"/>
      <stop offset="1" stop-color="#c9cef1"/>
    </linearGradient>
    <clipPath id="clip-path-49">
      <path id="패스_19560" data-name="패스 19560" d="M7.4,1.279C7.334,1.3,3,3.4,2.938,3.444c-1.583,1.143,1.03,1.845,1.03,5.024v110.7c0,6.251,3.8,13.514,8.49,16.221l41.565,24c2.051,1.184-.419,3.054,1.1,2.549.113-.038,5.2-2.566,5.3-2.631,1.709-1.083,2.782-3.451,2.782-6.773V41.832c0-6.251-3.8-13.514-8.49-16.22l-41.565-24A6.077,6.077,0,0,0,10.051.722,7.352,7.352,0,0,0,7.4,1.279" fill="none"/>
    </clipPath>
    <linearGradient id="linear-gradient-21" x1="0.203" y1="0.998" x2="0.212" y2="0.998" gradientUnits="objectBoundingBox">
      <stop offset="0" stop-color="#cacff2"/>
      <stop offset="0.192" stop-color="#e0e4fd"/>
      <stop offset="0.241" stop-color="#eaecfd"/>
      <stop offset="0.283" stop-color="#f7f8fd"/>
      <stop offset="0.324" stop-color="#e2e5f6"/>
      <stop offset="0.409" stop-color="#afb6e5"/>
      <stop offset="0.909" stop-color="#afb6e5"/>
      <stop offset="0.952" stop-color="#b9bfe9"/>
      <stop offset="1" stop-color="#cacff2"/>
    </linearGradient>
    <clipPath id="clip-path-50">
      <path id="패스_19561" data-name="패스 19561" d="M7.3,1.317C7.232,1.343,3,3.4,2.938,3.444c-1.583,1.143,1.03,1.845,1.03,5.024v110.7c0,6.251,3.8,13.514,8.49,16.221l41.565,24c2.051,1.184-.419,3.054,1.1,2.549.113-.038,5.1-2.528,5.195-2.593,1.709-1.084,2.782-3.451,2.782-6.773V41.87c0-6.251-3.8-13.513-8.489-16.221l-41.566-24A6.074,6.074,0,0,0,9.949.76,7.348,7.348,0,0,0,7.3,1.317" fill="none"/>
    </clipPath>
    <linearGradient id="linear-gradient-22" x1="0.203" y1="0.998" x2="0.212" y2="0.998" gradientUnits="objectBoundingBox">
      <stop offset="0" stop-color="#ccd1f2"/>
      <stop offset="0.192" stop-color="#e2e7fe"/>
      <stop offset="0.236" stop-color="#ebeffe"/>
      <stop offset="0.283" stop-color="#fbfcfe"/>
      <stop offset="0.322" stop-color="#e7e9f7"/>
      <stop offset="0.401" stop-color="#b4bbe6"/>
      <stop offset="0.409" stop-color="#afb6e5"/>
      <stop offset="0.909" stop-color="#afb6e5"/>
      <stop offset="0.951" stop-color="#b9bfe9"/>
      <stop offset="1" stop-color="#ccd1f2"/>
    </linearGradient>
    <clipPath id="clip-path-51">
      <path id="패스_19562" data-name="패스 19562" d="M7.2,1.355C7.13,1.381,3,3.4,2.938,3.444c-1.583,1.143,1.03,1.845,1.03,5.024v110.7c0,6.251,3.8,13.514,8.49,16.221l41.565,24c2.051,1.184-.419,3.054,1.1,2.549.113-.038,4.992-2.49,5.093-2.554,1.709-1.085,2.783-3.453,2.783-6.775V41.908c0-6.251-3.8-13.514-8.49-16.221l-41.567-24A6.067,6.067,0,0,0,9.845.8,7.347,7.347,0,0,0,7.2,1.355" fill="none"/>
    </clipPath>
    <linearGradient id="linear-gradient-23" x1="0.203" y1="0.998" x2="0.213" y2="0.998" gradientUnits="objectBoundingBox">
      <stop offset="0" stop-color="#cdd2f3"/>
      <stop offset="0.192" stop-color="#e5e9ff"/>
      <stop offset="0.235" stop-color="#eef1ff"/>
      <stop offset="0.283" stop-color="#fff"/>
      <stop offset="0.321" stop-color="#eaecf8"/>
      <stop offset="0.398" stop-color="#b6bde7"/>
      <stop offset="0.409" stop-color="#afb6e5"/>
      <stop offset="0.909" stop-color="#afb6e5"/>
      <stop offset="0.95" stop-color="#b9bfe9"/>
      <stop offset="1" stop-color="#cdd2f3"/>
    </linearGradient>
    <clipPath id="clip-path-53">
      <path id="패스_19564" data-name="패스 19564" d="M.841,10.344v110.7c0,5.974,3.619,12.924,8.069,15.492l41.567,24a5.962,5.962,0,0,0,2.949.907c2.6,0,4.278-2.589,4.278-6.6V44.145c0-5.974-3.619-12.924-8.068-15.492l-41.568-24a5.968,5.968,0,0,0-2.949-.9c-2.6,0-4.278,2.589-4.278,6.595" fill="none"/>
    </clipPath>
    <linearGradient id="linear-gradient-24" x1="0.239" y1="1.008" x2="0.248" y2="1.008" gradientUnits="objectBoundingBox">
      <stop offset="0" stop-color="#afb6e5"/>
      <stop offset="0.145" stop-color="#b5bce8"/>
      <stop offset="0.35" stop-color="#c8cdf1"/>
      <stop offset="0.581" stop-color="#e5e9ff"/>
      <stop offset="0.864" stop-color="#f5f6ff"/>
      <stop offset="1" stop-color="#fff"/>
    </linearGradient>
    <clipPath id="clip-path-55">
      <path id="패스_19566" data-name="패스 19566" d="M3.639,12.038v111.51a12.939,12.939,0,0,0,5.87,10.127l39.527,22.82c3.242,1.872,5.87.374,5.87-3.347V41.637a12.939,12.939,0,0,0-5.87-10.127L9.509,8.69a5.348,5.348,0,0,0-2.635-.806c-1.919,0-3.235,1.52-3.235,4.154" fill="url(#linear-gradient)"/>
    </clipPath>
    <clipPath id="clip-path-56">
      <path id="패스_19567" data-name="패스 19567" d="M61.735,65.759a5.168,5.168,0,0,0-2.159,4.125v9.009c0,1.59.966,2.321,2.159,1.632A5.172,5.172,0,0,0,63.894,76.4V67.391c0-1.184-.536-1.891-1.3-1.891a1.726,1.726,0,0,0-.857.259" fill="none"/>
    </clipPath>
    <linearGradient id="linear-gradient-26" x1="-3.385" y1="8.903" x2="-3.322" y2="8.903" xlink:href="#linear-gradient-24"/>
    <clipPath id="clip-path-58">
      <path id="패스_19111" data-name="패스 19111" d="M174.424,33.512l1.286.742.632,34.095,2.848,1.644L178.558,35.9l1.338.772-2.736-9.43Zm4.793-8.148,1.5.864.632,45,3.686,2.128-.632-45,1.373.792-3.278-11.3ZM191.334,0l-6.6,15.125,2.41,1.456.632,57.652,8.278,4.773-.632-57.652,2.511,1.392Z" transform="translate(-174.424)" fill="url(#linear-gradient-2)"/>
    </clipPath>
    <clipPath id="clip-path-59">
      <rect id="사각형_7607" data-name="사각형 7607" width="36.592" height="21.126" fill="none"/>
    </clipPath>
    <clipPath id="clip-path-60">
      <path id="패스_18555" data-name="패스 18555" d="M9.446,228.085c7.124-4.113,18.782-4.113,25.906,0s7.124,10.843,0,14.957-18.782,4.113-25.906,0-7.124-10.844,0-14.957" transform="translate(-4.104 -225)" fill="none"/>
    </clipPath>
    <radialGradient id="radial-gradient-3" cx="0.5" cy="0.5" r="0.798" gradientTransform="matrix(0.577, 0, 0, -0.517, -0.019, 2.826)" gradientUnits="objectBoundingBox">
      <stop offset="0" stop-color="#2842a2"/>
      <stop offset="0.105" stop-color="#4e63b2"/>
      <stop offset="0.289" stop-color="#8c9acd"/>
      <stop offset="0.458" stop-color="#bec5e2"/>
      <stop offset="0.605" stop-color="#e1e5f2"/>
      <stop offset="0.725" stop-color="#f7f8fb"/>
      <stop offset="0.802" stop-color="#fff"/>
      <stop offset="1" stop-color="#fff"/>
    </radialGradient>
    <clipPath id="clip-path-61">
      <rect id="사각형_7611-3" data-name="사각형 7611" width="29.29" height="16.911" fill="none"/>
    </clipPath>
    <clipPath id="clip-path-62">
      <path id="패스_18563-3" data-name="패스 18563" d="M217,245.342c5.7-3.292,15.034-3.292,20.737,0s5.7,8.68,0,11.973-15.034,3.292-20.737,0-5.7-8.68,0-11.973" transform="translate(-212.726 -242.873)" fill="none"/>
    </clipPath>
    <filter id="패스_19512" x="69.855" y="116.056" width="109.262" height="136.77" filterUnits="userSpaceOnUse">
      <feOffset dy="3" input="SourceAlpha"/>
      <feGaussianBlur stdDeviation="3" result="blur"/>
      <feFlood flood-opacity="0.992"/>
      <feComposite operator="in" in2="blur"/>
      <feComposite in="SourceGraphic"/>
    </filter>
    <clipPath id="clip-path-63">
      <path id="패스_18452" data-name="패스 18452" d="M119.365,22.106l-.023.066V81.656a4.539,4.539,0,0,0,2.471,3.827l82.968,48.171,1.214.209a2.766,2.766,0,0,0,3.235-2.727V71.323a4.6,4.6,0,0,0-2.291-3.981L124.847,20.077a3.8,3.8,0,0,0-5.482,2.029" transform="translate(-119.342 -19.568)" fill="none"/>
    </clipPath>
    <linearGradient id="linear-gradient-28" x1="-1.173" y1="1.952" x2="-1.163" y2="1.952" gradientUnits="objectBoundingBox">
      <stop offset="0" stop-color="#2842a2"/>
      <stop offset="0.245" stop-color="#2a46a5"/>
      <stop offset="0.499" stop-color="#3052b0"/>
      <stop offset="0.757" stop-color="#3a67c2"/>
      <stop offset="1" stop-color="#4782d9"/>
    </linearGradient>
    <clipPath id="clip-path-64">
      <path id="패스_18459" data-name="패스 18459" d="M163.652,33.176v17.73a2.717,2.717,0,0,0,1.356,2.351l13.951,7.932,7.127,4.169,11.306,6.693A1.532,1.532,0,0,0,199.7,70.73V52.773a2.714,2.714,0,0,0-1.356-2.351l-32.4-18.574a1.529,1.529,0,0,0-2.3,1.328" transform="translate(-163.652 -31.64)" fill="none"/>
    </clipPath>
    <linearGradient id="linear-gradient-29" x1="-4.011" y1="5.194" x2="-3.987" y2="5.194" gradientUnits="objectBoundingBox">
      <stop offset="0" stop-color="#2e4fad"/>
      <stop offset="0.143" stop-color="#3258b4"/>
      <stop offset="0.692" stop-color="#4176cf"/>
      <stop offset="1" stop-color="#4782d9"/>
    </linearGradient>
    <clipPath id="clip-path-65">
      <rect id="사각형_7602" data-name="사각형 7602" width="16.646" height="9.61" fill="none"/>
    </clipPath>
    <clipPath id="clip-path-66">
      <path id="패스_18533" data-name="패스 18533" d="M239.321,213.366c3.241-1.871,3.241-4.933,0-6.8a13.073,13.073,0,0,0-11.784,0c-3.241,1.871-3.241,4.933,0,6.8a13.075,13.075,0,0,0,11.784,0" transform="translate(-225.106 -205.159)" fill="none"/>
    </clipPath>
    <radialGradient id="radial-gradient-5" cx="0.5" cy="0.5" r="0.77" gradientTransform="matrix(0.577, 0, 0, -0.536, -3.774, 7.231)" gradientUnits="objectBoundingBox">
      <stop offset="0" stop-color="#2842a2"/>
      <stop offset="0.198" stop-color="#2842a2"/>
      <stop offset="0.303" stop-color="#4e63b2"/>
      <stop offset="0.487" stop-color="#8c9acd"/>
      <stop offset="0.655" stop-color="#bec5e2"/>
      <stop offset="0.803" stop-color="#e1e5f2"/>
      <stop offset="0.922" stop-color="#f7f8fb"/>
      <stop offset="1" stop-color="#fff"/>
    </radialGradient>
    <clipPath id="clip-path-67">
      <rect id="사각형_7600" data-name="사각형 7600" width="16.645" height="9.61" fill="none"/>
    </clipPath>
    <clipPath id="clip-path-68">
      <path id="패스_18532" data-name="패스 18532" d="M253.92,221.047c3.241-1.871,3.241-4.933,0-6.8a13.071,13.071,0,0,0-11.784,0c-3.241,1.87-3.241,4.932,0,6.8a13.07,13.07,0,0,0,11.784,0" transform="translate(-239.705 -212.841)" fill="none"/>
    </clipPath>
    <radialGradient id="radial-gradient-6" cy="0.5" r="0.77" gradientTransform="matrix(0.577, 0, 0, -0.536, -4.02, 6.416)" xlink:href="#radial-gradient-5"/>
    <clipPath id="clip-path-70">
      <path id="패스_18531" data-name="패스 18531" d="M268.377,228.729c3.241-1.871,3.241-4.933,0-6.8a13.071,13.071,0,0,0-11.784,0c-3.241,1.871-3.241,4.933,0,6.8a13.075,13.075,0,0,0,11.784,0" transform="translate(-254.162 -220.522)" fill="none"/>
    </clipPath>
    <radialGradient id="radial-gradient-7" cy="0.5" r="0.77" gradientTransform="matrix(0.577, 0, 0, -0.536, -4.263, 5.602)" xlink:href="#radial-gradient-5"/>
  </defs>
  <g id="img_intro" transform="translate(-230)" clip-path="url(#clip-path)">
    <g id="그룹_6078" data-name="그룹 6078" transform="translate(0.766 -27.332)">
      <path id="패스_19572" data-name="패스 19572" d="M-18579.748-4691.493l43.807,25.756" transform="translate(18828.455 4762.398)" fill="none" stroke="#12bebe" stroke-linecap="round" stroke-width="1" stroke-dasharray="3 5"/>
      <g id="그룹_6207" data-name="그룹 6207" transform="translate(18786.068 4624.137)">
        <g id="그룹_5627" data-name="그룹 5627" transform="translate(-18556.555 -4559.849)" style="mix-blend-mode: multiply;isolation: isolate">
          <g id="그룹_5626" data-name="그룹 5626">
            <g id="그룹_5625" data-name="그룹 5625" clip-path="url(#clip-path-2)">
              <g id="그룹_5624" data-name="그룹 5624" transform="translate(0 0)">
                <g id="그룹_5623" data-name="그룹 5623" clip-path="url(#clip-path-3)">
                  <rect id="사각형_7610" data-name="사각형 7610" width="21.061" height="12.16" transform="translate(-0.934 -0.539)" fill="url(#radial-gradient)"/>
                </g>
              </g>
            </g>
          </g>
        </g>
        <path id="패스_18564" data-name="패스 18564" d="M233.852,244.377c0-.2-.278-.357-.621-.357h-1.325c-.219,0-.582.231-.637.162-.091-.115-.058-.25.1-.339l.936-.539c.243-.14-1.3-.075-1.54-.214l.013-1.169a.972.972,0,0,0-.877,0l-.944.543a.809.809,0,0,1-.565.063c-.134-.034-.28-.067-.405-.095-.2-.044-.324-.153-.324-.274v-.77c0-.2-.278-.357-.621-.357h-2.159c-.343,0-.621.16-.621.357v.763c0,.126-.141.234-.347.279q-.195.042-.383.092a.83.83,0,0,1-.589-.055l-.94-.538a.972.972,0,0,0-.877,0l-.112,1.271c-.242.14-1.651-.024-1.408.115l.947.542c.149.085.192.214.109.325-.057.078-.428-.151-.639-.151l-1.339,0c-.343,0-.62.16-.619.358l.005,1.814c0,.2.279.357.622.356h.777l-.019,1.5a.218.218,0,0,0,0,.078h0a.325.325,0,0,0,.176.217l1.53.877a.938.938,0,0,0,.544.092l.01.006v-.007a.843.843,0,0,0,.323-.092l.942-.544a.812.812,0,0,1,.565-.063c.134.033.28.067.405.094.2.044.325.153.325.274l0,.77c0,.2.279.357.621.356l2.159,0c.343,0,.62-.161.62-.358l0-.763c0-.126.141-.235.347-.279.123-.027.245-.056.365-.088a.831.831,0,0,1,.589.056l.939.539a.845.845,0,0,0,.322.091v.01l.016-.009a.934.934,0,0,0,.539-.094l1.525-.88a.331.331,0,0,0,.173-.206l.007,0V248.1a.149.149,0,0,0,0-.016l-.019-1.532h.763c.343,0,.62-.16.62-.357Zm-4.884,1.514c-.359,1.1-2.336,1.719-4.113,1.324-1.35-.3-2.173-1.14-1.9-1.958.359-1.1,2.336-1.718,4.113-1.324,1.35.3,2.173,1.14,1.9,1.958" transform="translate(-18771.527 -4801.946)" fill="#0a6464"/>
        <path id="패스_18566" data-name="패스 18566" d="M231.541,243.586h1.693c.342,0,.62-.16.62-.357l0-1.243c0-.2-.278-.357-.621-.357h-1.325a.583.583,0,0,1-.485-.2q-.07-.107-.152-.211c-.091-.115-.058-.25.1-.339l.937-.54a.266.266,0,0,0,0-.5l-1.527-.878a.973.973,0,0,0-.878,0l-.943.544a.807.807,0,0,1-.565.062c-.135-.033-.28-.067-.406-.094-.2-.044-.324-.153-.324-.274v-.77c0-.2-.278-.357-.621-.357h-2.159c-.343,0-.621.16-.621.357v.763c0,.126-.141.234-.347.279q-.195.043-.383.093a.829.829,0,0,1-.589-.055l-.94-.538a.971.971,0,0,0-.877,0l-1.522.881a.266.266,0,0,0,0,.5l.947.542c.149.085.192.214.109.325-.057.078-.115.161-.163.233a.587.587,0,0,1-.476.188l-1.339,0c-.343,0-.62.161-.619.358l.005,1.242c0,.2.28.357.622.357l1.325,0a.586.586,0,0,1,.486.2q.07.107.152.21c.091.115.059.25-.1.339l-.935.54a.266.266,0,0,0,0,.5l1.53.877a.973.973,0,0,0,.877,0l.942-.544a.81.81,0,0,1,.565-.063c.135.033.28.067.406.094.2.044.325.153.325.274l0,.77c0,.2.279.357.621.357l2.159,0c.342,0,.62-.161.619-.358l0-.763c0-.126.141-.234.346-.279.124-.027.245-.056.366-.088a.832.832,0,0,1,.589.056l.938.538a.973.973,0,0,0,.878,0l1.525-.88a.266.266,0,0,0,0-.5l-.946-.543c-.148-.085-.191-.214-.108-.325.137-.186.279-.407.286-.42m-8.592-1.292c.359-1.1,2.336-1.719,4.113-1.324,1.35.3,2.173,1.14,1.9,1.958-.359,1.1-2.336,1.718-4.113,1.324-1.35-.3-2.173-1.14-1.9-1.958" transform="translate(-18771.527 -4800.699)" fill="#12bebe"/>
      </g>
      <path id="패스_19517" data-name="패스 19517" d="M-18565.744-4682.205l29.8,16.469" transform="translate(18916.85 4811.839)" fill="none" stroke="#12bebe" stroke-linecap="round" stroke-width="1" stroke-dasharray="3 5"/>
      <path id="패스_19518" data-name="패스 19518" d="M-18579.748-4691.493l43.807,25.756" transform="translate(18854.594 4882.218)" fill="none" stroke="#ffc107" stroke-linecap="round" stroke-width="1" stroke-dasharray="3 5"/>
      <g id="그룹_6077" data-name="그룹 6077" transform="translate(18812.207 4743.957)">
        <g id="그룹_5627-2" data-name="그룹 5627" transform="translate(-18556.555 -4559.849)" style="mix-blend-mode: multiply;isolation: isolate">
          <g id="그룹_5626-2" data-name="그룹 5626">
            <g id="그룹_5625-2" data-name="그룹 5625" clip-path="url(#clip-path-2)">
              <g id="그룹_5624-2" data-name="그룹 5624" transform="translate(0 0)">
                <g id="그룹_5623-2" data-name="그룹 5623" clip-path="url(#clip-path-3)">
                  <rect id="사각형_7610-2" data-name="사각형 7610" width="21.061" height="12.16" transform="translate(-0.934 -0.539)" fill="url(#radial-gradient)"/>
                </g>
              </g>
            </g>
          </g>
        </g>
        <path id="패스_18564-2" data-name="패스 18564" d="M233.852,244.377c0-.2-.278-.357-.621-.357h-1.325c-.219,0-.582.231-.637.162-.091-.115-.058-.25.1-.339l.936-.539c.243-.14-1.3-.075-1.54-.214l.013-1.169a.972.972,0,0,0-.877,0l-.944.543a.809.809,0,0,1-.565.063c-.134-.034-.28-.067-.405-.095-.2-.044-.324-.153-.324-.274v-.77c0-.2-.278-.357-.621-.357h-2.159c-.343,0-.621.16-.621.357v.763c0,.126-.141.234-.347.279q-.195.042-.383.092a.83.83,0,0,1-.589-.055l-.94-.538a.972.972,0,0,0-.877,0l-.112,1.271c-.242.14-1.651-.024-1.408.115l.947.542c.149.085.192.214.109.325-.057.078-.428-.151-.639-.151l-1.339,0c-.343,0-.62.16-.619.358l.005,1.814c0,.2.279.357.622.356h.777l-.019,1.5a.218.218,0,0,0,0,.078h0a.325.325,0,0,0,.176.217l1.53.877a.938.938,0,0,0,.544.092l.01.006v-.007a.843.843,0,0,0,.323-.092l.942-.544a.812.812,0,0,1,.565-.063c.134.033.28.067.405.094.2.044.325.153.325.274l0,.77c0,.2.279.357.621.356l2.159,0c.343,0,.62-.161.62-.358l0-.763c0-.126.141-.235.347-.279.123-.027.245-.056.365-.088a.831.831,0,0,1,.589.056l.939.539a.845.845,0,0,0,.322.091v.01l.016-.009a.934.934,0,0,0,.539-.094l1.525-.88a.331.331,0,0,0,.173-.206l.007,0V248.1a.149.149,0,0,0,0-.016l-.019-1.532h.763c.343,0,.62-.16.62-.357Zm-4.884,1.514c-.359,1.1-2.336,1.719-4.113,1.324-1.35-.3-2.173-1.14-1.9-1.958.359-1.1,2.336-1.718,4.113-1.324,1.35.3,2.173,1.14,1.9,1.958" transform="translate(-18771.527 -4801.946)" fill="#bf9105"/>
        <path id="패스_18566-2" data-name="패스 18566" d="M231.541,243.586h1.693c.342,0,.62-.16.62-.357l0-1.243c0-.2-.278-.357-.621-.357h-1.325a.583.583,0,0,1-.485-.2q-.07-.107-.152-.211c-.091-.115-.058-.25.1-.339l.937-.54a.266.266,0,0,0,0-.5l-1.527-.878a.973.973,0,0,0-.878,0l-.943.544a.807.807,0,0,1-.565.062c-.135-.033-.28-.067-.406-.094-.2-.044-.324-.153-.324-.274v-.77c0-.2-.278-.357-.621-.357h-2.159c-.343,0-.621.16-.621.357v.763c0,.126-.141.234-.347.279q-.195.043-.383.093a.829.829,0,0,1-.589-.055l-.94-.538a.971.971,0,0,0-.877,0l-1.522.881a.266.266,0,0,0,0,.5l.947.542c.149.085.192.214.109.325-.057.078-.115.161-.163.233a.587.587,0,0,1-.476.188l-1.339,0c-.343,0-.62.161-.619.358l.005,1.242c0,.2.28.357.622.357l1.325,0a.586.586,0,0,1,.486.2q.07.107.152.21c.091.115.059.25-.1.339l-.935.54a.266.266,0,0,0,0,.5l1.53.877a.973.973,0,0,0,.877,0l.942-.544a.81.81,0,0,1,.565-.063c.135.033.28.067.406.094.2.044.325.153.325.274l0,.77c0,.2.279.357.621.357l2.159,0c.342,0,.62-.161.619-.358l0-.763c0-.126.141-.234.346-.279.124-.027.245-.056.366-.088a.832.832,0,0,1,.589.056l.938.538a.973.973,0,0,0,.878,0l1.525-.88a.266.266,0,0,0,0-.5l-.946-.543c-.148-.085-.191-.214-.108-.325.137-.186.279-.407.286-.42m-8.592-1.292c.359-1.1,2.336-1.719,4.113-1.324,1.35.3,2.173,1.14,1.9,1.958-.359,1.1-2.336,1.718-4.113,1.324-1.35-.3-2.173-1.14-1.9-1.958" transform="translate(-18771.527 -4800.699)" fill="#ffc107"/>
      </g>
      <g id="그룹_6206" data-name="그룹 6206" transform="translate(52.247 75.209)">
        <g id="그룹_6080" data-name="그룹 6080" transform="translate(240.268 -18.176)">
          <g id="그룹_6205" data-name="그룹 6205" clip-path="url(#clip-path-6)">
            <g id="그룹_6150" data-name="그룹 6150">
              <g id="그룹_6149" data-name="그룹 6149" clip-path="url(#clip-path-6)">
                <g id="그룹_6148" data-name="그룹 6148" opacity="0.2">
                  <g id="그룹_6147" data-name="그룹 6147">
                    <g id="그룹_6146" data-name="그룹 6146" clip-path="url(#clip-path-8)">
                      <g id="그룹_6082" data-name="그룹 6082" opacity="0">
                        <g id="그룹_6081" data-name="그룹 6081">
                          <g id="그룹_6080-2" data-name="그룹 6080" clip-path="url(#clip-path-8)">
                            <path id="패스_19519" data-name="패스 19519" d="M60.683,167.692a10.1,10.1,0,0,1-5.044-1.216L4.313,136.192a5.338,5.338,0,0,1-2.894-4.609A6.2,6.2,0,0,1,4.9,126.35l31.2-20.518a12.418,12.418,0,0,1,6.125-1.557,10.108,10.108,0,0,1,5.043,1.216L75.61,121.4l28.334,15.91a5.338,5.338,0,0,1,2.894,4.61,6.209,6.209,0,0,1-3.484,5.233L66.808,166.135a12.424,12.424,0,0,1-6.125,1.557" fill="#afb6e5"/>
                          </g>
                        </g>
                      </g>
                      <g id="그룹_6085" data-name="그룹 6085" opacity="0.048">
                        <g id="그룹_6084" data-name="그룹 6084">
                          <g id="그룹_6083" data-name="그룹 6083" clip-path="url(#clip-path-10)">
                            <path id="패스_19520" data-name="패스 19520" d="M34.68,106.979a12.69,12.69,0,0,1,4.876-1.521c.391-.04.786-.067,1.183-.072a10.094,10.094,0,0,1,5.005,1.125c.052,0,3.14,1.723,3.178,1.744l24.929,14,3.7,2.081,24.387,13.7a5.691,5.691,0,0,1,2.88,3.839,5.378,5.378,0,0,1,.068.662c.066,2.007-1.156,3.911-3.369,5.189L93.3,152c-.113.065-15.848,8.156-15.946,8.1L65.9,165.775a12.259,12.259,0,0,1-5.951,1.414,10.013,10.013,0,0,1-4.9-1.212L25.168,148.36,5.053,136.5a5.29,5.29,0,0,1-2.863-4.451,5.874,5.874,0,0,1,3.2-5.055L24.112,114.13c-.1-.056,10.455-7.087,10.568-7.151" fill="#abb2e2"/>
                          </g>
                        </g>
                      </g>
                      <g id="그룹_6088" data-name="그룹 6088" opacity="0.095">
                        <g id="그룹_6087" data-name="그룹 6087">
                          <g id="그룹_6086" data-name="그룹 6086" clip-path="url(#clip-path-11)">
                            <path id="패스_19521" data-name="패스 19521" d="M33.253,108.125a13.425,13.425,0,0,1,4.825-1.54c.387-.041.777-.078,1.169-.09a10.1,10.1,0,0,1,4.966,1.035c.1.007,3.089,1.653,3.164,1.7l24.714,13.893,3.672,2.063,24.174,13.589a5.289,5.289,0,0,1,3,4.394c.133,1.968-1.041,3.868-3.252,5.145l-8,4.146c-.226.13-15.354,7.824-15.549,7.711L65,165.414a12.094,12.094,0,0,1-5.777,1.274,9.932,9.932,0,0,1-4.756-1.21l-29.09-17.136L5.792,136.808a5.251,5.251,0,0,1-2.831-4.292,5.544,5.544,0,0,1,2.905-4.876l17.318-12.49c-.195-.113,9.843-6.9,10.069-7.025" fill="#a7addf"/>
                          </g>
                        </g>
                      </g>
                      <g id="그룹_6091" data-name="그룹 6091" opacity="0.143">
                        <g id="그룹_6090" data-name="그룹 6090">
                          <g id="그룹_6089" data-name="그룹 6089" clip-path="url(#clip-path-12)">
                            <path id="패스_19522" data-name="패스 19522" d="M31.826,109.271a14.189,14.189,0,0,1,4.775-1.558c.38-.044.766-.091,1.154-.109a10.049,10.049,0,0,1,4.926.945c.157.01,3.037,1.583,3.15,1.648l24.5,13.78,3.64,2.047L97.933,139.5a6.26,6.26,0,0,1,2.949,3.658c.041.208.085.416.108.628.2,1.93-.927,3.826-3.136,5.1l-7.786,4.028c-.339.2-14.86,7.492-15.153,7.323L64.09,165.053a11.966,11.966,0,0,1-5.6,1.133,9.88,9.88,0,0,1-4.612-1.207l-28.3-16.654L6.531,137.116a4.948,4.948,0,0,1-.184-8.831l15.91-12.115c-.293-.17,9.229-6.7,9.569-6.9" fill="#a3a9dc"/>
                          </g>
                        </g>
                      </g>
                      <g id="그룹_6094" data-name="그룹 6094" opacity="0.19">
                        <g id="그룹_6093" data-name="그룹 6093">
                          <g id="그룹_6092" data-name="그룹 6092" clip-path="url(#clip-path-13)">
                            <path id="패스_19523" data-name="패스 19523" d="M30.4,110.417a15.105,15.105,0,0,1,4.724-1.577c.377-.047.756-.1,1.14-.126a10.027,10.027,0,0,1,4.888.855c.207.012,2.985,1.513,3.135,1.6l24.287,13.667,3.607,2.03,23.75,13.365a6.612,6.612,0,0,1,2.983,3.567c.044.2.1.4.128.611.267,1.892-.813,3.783-3.02,5.057l-7.569,3.909c-.451.261-14.364,7.16-14.755,6.935l-10.512,4.383a11.862,11.862,0,0,1-5.43.991,9.816,9.816,0,0,1-4.469-1.2l-27.5-16.171L7.271,137.424c-1.489-.86-2.769-2.463-2.768-3.975a4.927,4.927,0,0,1,2.324-4.519l14.5-11.741c-.391-.225,8.617-6.511,9.069-6.772" fill="#9fa4d8"/>
                          </g>
                        </g>
                      </g>
                      <g id="그룹_6097" data-name="그룹 6097" opacity="0.238">
                        <g id="그룹_6096" data-name="그룹 6096">
                          <g id="그룹_6095" data-name="그룹 6095" clip-path="url(#clip-path-14)">
                            <path id="패스_19524" data-name="패스 19524" d="M28.971,111.563a16.093,16.093,0,0,1,4.674-1.6c.371-.05.745-.116,1.125-.145a10.013,10.013,0,0,1,4.849.765c.259.016,2.933,1.443,3.121,1.552l24.073,13.554,3.574,2.012,23.538,13.253a7.03,7.03,0,0,1,3.018,3.477c.047.2.111.393.147.594.336,1.853-.7,3.74-2.9,5.013l-7.351,3.79c-.564.326-13.87,6.829-14.359,6.546l-10.2,3.952c-1.325.764-3.572.85-5.257.85a9.783,9.783,0,0,1-4.325-1.2L25.988,148.291,8.011,137.731c-1.4-.809-2.738-2.392-2.737-3.815,0-1.56.346-3.367,2.033-4.34L20.4,118.209c-.489-.282,8.005-6.32,8.57-6.646" fill="#9ba0d5"/>
                          </g>
                        </g>
                      </g>
                      <g id="그룹_6100" data-name="그룹 6100" opacity="0.286">
                        <g id="그룹_6099" data-name="그룹 6099">
                          <g id="그룹_6098" data-name="그룹 6098" clip-path="url(#clip-path-15)">
                            <path id="패스_19525" data-name="패스 19525" d="M27.544,112.709a17.29,17.29,0,0,1,4.623-1.614c.367-.052.735-.128,1.11-.162a10,10,0,0,1,4.812.674,28.914,28.914,0,0,1,3.106,1.5l23.859,13.441,3.542,2,23.326,13.141a7.531,7.531,0,0,1,3.052,3.386c.05.2.124.381.167.577.4,1.815-.584,3.7-2.787,4.969l-7.133,3.671c-.677.391-13.376,6.5-13.962,6.158l-9.886,3.52c-1.243.717-3.505.708-5.084.708a9.753,9.753,0,0,1-4.181-1.2L26.193,148.274,8.751,138.039c-1.314-.759-2.707-2.323-2.706-3.657,0-1.462.162-3.249,1.743-4.161l11.686-10.992c-.587-.339,7.392-6.129,8.07-6.52" fill="#979bd2"/>
                          </g>
                        </g>
                      </g>
                      <g id="그룹_6103" data-name="그룹 6103" opacity="0.333">
                        <g id="그룹_6102" data-name="그룹 6102">
                          <g id="그룹_6101" data-name="그룹 6101" clip-path="url(#clip-path-16)">
                            <path id="패스_19526" data-name="패스 19526" d="M26.116,113.856a18.638,18.638,0,0,1,4.573-1.632c.362-.056.724-.14,1.1-.181a9.986,9.986,0,0,1,4.773.584,24.6,24.6,0,0,1,3.092,1.456l23.644,13.328L66.8,129.39l23.113,13.029a8.106,8.106,0,0,1,3.086,3.3c.054.191.137.37.188.559.473,1.779-.47,3.655-2.671,4.925l-6.915,3.553c-.791.456-12.881,6.165-13.566,5.77l-9.573,3.088c-1.159.669-3.436.567-4.91.567a9.779,9.779,0,0,1-4.038-1.2L26.4,148.258,9.49,138.347c-1.227-.708-2.676-2.252-2.675-3.5,0-1.365-.023-3.131,1.453-3.983L18.546,120.25c-.685-.4,6.78-5.938,7.57-6.394" fill="#9397cf"/>
                          </g>
                        </g>
                      </g>
                      <g id="그룹_6106" data-name="그룹 6106" opacity="0.381">
                        <g id="그룹_6105" data-name="그룹 6105">
                          <g id="그룹_6104" data-name="그룹 6104" clip-path="url(#clip-path-17)">
                            <path id="패스_19527" data-name="패스 19527" d="M24.689,115a20.2,20.2,0,0,1,4.522-1.65c.358-.059.714-.153,1.081-.2a9.993,9.993,0,0,1,4.734.494,21,21,0,0,1,3.077,1.408L61.534,128.27l3.478,1.962,22.9,12.917c1,.576,2.832,2.253,3.121,3.205.057.188.15.359.208.542.544,1.741-.356,3.612-2.555,4.881l-6.7,3.434c-.9.522-12.387,5.833-13.169,5.381l-9.261,2.657c-1.076.621-3.367.426-4.736.426a9.815,9.815,0,0,1-3.894-1.192L26.6,148.241l-16.374-9.586c-1.138-.657-2.643-2.183-2.643-3.339,0-1.267-.208-3.013,1.163-3.8l8.869-10.243c-.782-.451,6.168-5.745,7.071-6.267" fill="#8f92cc"/>
                          </g>
                        </g>
                      </g>
                      <g id="그룹_6109" data-name="그룹 6109" opacity="0.429">
                        <g id="그룹_6108" data-name="그룹 6108">
                          <g id="그룹_6107" data-name="그룹 6107" clip-path="url(#clip-path-18)">
                            <path id="패스_19528" data-name="패스 19528" d="M23.262,116.148a22.1,22.1,0,0,1,4.472-1.669c.353-.061.7-.165,1.066-.217a9.974,9.974,0,0,1,4.695.4,18.373,18.373,0,0,1,3.063,1.36l23.217,13.1,3.446,1.945L85.91,143.878c.921.532,3.027,2.206,3.155,3.115a3.963,3.963,0,0,1,.227.525c.615,1.7-.241,3.569-2.438,4.837l-6.48,3.315c-1.016.587-11.892,5.5-12.772,4.993l-8.947,2.225c-.994.573-3.3.284-4.563.284a9.866,9.866,0,0,1-3.75-1.189L26.808,148.224l-15.839-9.261c-1.051-.607-2.612-2.113-2.612-3.18,0-1.17-.392-2.9.873-3.626l7.461-9.868c-.88-.508,5.555-5.554,6.571-6.141" fill="#8b8ec9"/>
                          </g>
                        </g>
                      </g>
                      <g id="그룹_6112" data-name="그룹 6112" opacity="0.476">
                        <g id="그룹_6111" data-name="그룹 6111">
                          <g id="그룹_6110" data-name="그룹 6110" clip-path="url(#clip-path-19)">
                            <path id="패스_19529" data-name="패스 19529" d="M21.834,117.294a24.415,24.415,0,0,1,4.421-1.687c.349-.065.693-.177,1.052-.236a9.965,9.965,0,0,1,4.656.314A16.349,16.349,0,0,1,35.013,117l23,12.991,3.415,1.927,22.476,12.694c.845.488,3.071,2.191,3.188,3.025a3.71,3.71,0,0,1,.248.507c.687,1.666-.127,3.526-2.321,4.793l-6.263,3.2c-1.128.652-11.4,5.169-12.375,4.6l-8.634,1.794c-.912.525-3.232.143-4.39.143a10,10,0,0,1-3.607-1.186l-22.74-13.278-15.3-8.936c-.963-.556-2.581-2.042-2.581-3.021,0-1.072-.577-2.778.583-3.447l6.053-9.493c-.978-.565,4.942-5.363,6.071-6.015" fill="#8789c6"/>
                          </g>
                        </g>
                      </g>
                      <g id="그룹_6115" data-name="그룹 6115" opacity="0.524">
                        <g id="그룹_6114" data-name="그룹 6114">
                          <g id="그룹_6113" data-name="그룹 6113" clip-path="url(#clip-path-20)">
                            <path id="패스_19530" data-name="패스 19530" d="M20.407,118.44a27.228,27.228,0,0,1,4.371-1.706c.345-.067.682-.189,1.036-.253a9.956,9.956,0,0,1,4.618.223,14.574,14.574,0,0,1,3.035,1.263l22.789,12.878,3.381,1.911L81.9,145.337c.768.444,3.117,2.177,3.224,2.935a3.769,3.769,0,0,1,.268.489c.76,1.629-.013,3.484-2.206,4.75l-6.044,3.077c-1.242.717-10.9,4.837-11.979,4.216l-8.321,1.361c-.829.479-3.163,0-4.216,0a10.168,10.168,0,0,1-3.463-1.184L27.218,148.189l-14.77-8.611c-.876-.506-2.55-1.973-2.55-2.862,0-.975-.762-2.661.293-3.269l4.644-9.119c-1.075-.621,4.33-5.171,5.572-5.888" fill="#8385c2"/>
                          </g>
                        </g>
                      </g>
                      <g id="그룹_6118" data-name="그룹 6118" opacity="0.571">
                        <g id="그룹_6117" data-name="그룹 6117">
                          <g id="그룹_6116" data-name="그룹 6116" clip-path="url(#clip-path-21)">
                            <path id="패스_19531" data-name="패스 19531" d="M18.98,119.586a30.6,30.6,0,0,1,4.32-1.724c.341-.07.672-.2,1.022-.272a9.956,9.956,0,0,1,4.579.133,13.184,13.184,0,0,1,3.021,1.215L54.5,131.7l3.35,1.894L79.9,146.067c.691.4,3.162,2.162,3.258,2.844a3.637,3.637,0,0,1,.288.472c.834,1.591.1,3.441-2.09,4.705l-5.826,2.959c-1.355.783-10.409,4.505-11.582,3.828l-8.009.929c-.745.431-3.1-.139-4.042-.139a10.432,10.432,0,0,1-3.32-1.18L27.423,148.172l-14.235-8.286c-.789-.455-2.519-1.9-2.519-2.7,0-.877-.946-2.543,0-3.09l3.236-8.744c-1.174-.677,3.717-4.98,5.072-5.762" fill="#7f80bf"/>
                          </g>
                        </g>
                      </g>
                      <g id="그룹_6121" data-name="그룹 6121" opacity="0.619">
                        <g id="그룹_6120" data-name="그룹 6120">
                          <g id="그룹_6119" data-name="그룹 6119" clip-path="url(#clip-path-22)">
                            <path id="패스_19532" data-name="패스 19532" d="M17.553,120.732a34.936,34.936,0,0,1,4.27-1.743c.336-.073.661-.213,1.007-.29a9.952,9.952,0,0,1,4.54.043,11.973,11.973,0,0,1,3.006,1.167l22.361,12.653,3.317,1.877L77.894,146.8c.614.355,3.207,2.148,3.293,2.754a3.631,3.631,0,0,1,.307.455c.909,1.552.216,3.4-1.973,4.661l-5.608,2.84c-1.468.848-9.915,4.173-11.186,3.439l-7.7.5c-.662.383-3.026-.28-3.868-.28a10.8,10.8,0,0,1-3.176-1.177L27.628,148.155l-13.7-7.962c-.7-.4-2.487-1.833-2.487-2.544,0-.78-1.131-2.425-.287-2.912l1.828-8.369c-1.272-.734,3.1-4.789,4.572-5.636" fill="#7b7cbc"/>
                          </g>
                        </g>
                      </g>
                      <g id="그룹_6124" data-name="그룹 6124" opacity="0.667">
                        <g id="그룹_6123" data-name="그룹 6123">
                          <g id="그룹_6122" data-name="그룹 6122" clip-path="url(#clip-path-23)">
                            <path id="패스_19533" data-name="패스 19533" d="M16.125,121.879a40.513,40.513,0,0,1,4.219-1.761c.333-.076.651-.225.993-.308a9.931,9.931,0,0,1,4.5-.048,10.924,10.924,0,0,1,2.992,1.119l22.147,12.54,3.285,1.86,21.627,12.246c.538.31,3.253,2.132,3.327,2.663a3.636,3.636,0,0,1,.328.437c.984,1.513.33,3.355-1.857,4.618L72.3,157.966c-1.58.913-9.419,3.841-10.788,3.051l-7.383.066c-.58.335-2.958-.422-3.695-.422a11.339,11.339,0,0,1-3.033-1.174L27.832,148.139,14.666,140.5c-.613-.354-2.456-1.763-2.456-2.385,0-.683-1.315-2.308-.577-2.735l.419-7.993c-1.369-.791,2.492-4.6,4.073-5.51" fill="#7777b9"/>
                          </g>
                        </g>
                      </g>
                      <g id="그룹_6127" data-name="그룹 6127" opacity="0.714">
                        <g id="그룹_6126" data-name="그룹 6126">
                          <g id="그룹_6125" data-name="그룹 6125" clip-path="url(#clip-path-24)">
                            <path id="패스_19534" data-name="패스 19534" d="M14.7,123.025c.407-.235,3.67-1.66,4.169-1.78.329-.079.641-.236.977-.326a9.924,9.924,0,0,1,4.463-.138,10.128,10.128,0,0,1,2.978,1.071l21.933,12.427,3.253,1.844,21.415,12.133c.461.266,3.3,2.118,3.361,2.573a3.621,3.621,0,0,1,.348.42c1.06,1.473.444,3.312-1.741,4.574l-5.173,2.6c-1.694.978-8.925,3.51-10.392,2.663l-7.07-.366c-.5.287-2.89-.563-3.521-.563a12.108,12.108,0,0,1-2.889-1.171L28.038,148.122,15.406,140.81c-.525-.3-2.425-1.693-2.425-2.227,0-.585-1.5-2.19-.867-2.555l-.989-7.62C9.658,127.561,13,124,14.7,123.025" fill="#7373b6"/>
                          </g>
                        </g>
                      </g>
                      <g id="그룹_6130" data-name="그룹 6130" opacity="0.762">
                        <g id="그룹_6129" data-name="그룹 6129">
                          <g id="그룹_6128" data-name="그룹 6128" clip-path="url(#clip-path-25)">
                            <path id="패스_19535" data-name="패스 19535" d="M13.271,124.171c.339-.2,3.7-1.693,4.118-1.8.326-.082.631-.249.963-.344a9.893,9.893,0,0,1,4.424-.228,9.328,9.328,0,0,1,2.964,1.022l21.719,12.315,3.22,1.826,21.2,12.022c.384.222,3.342,2.1,3.4,2.482a3.693,3.693,0,0,1,.367.4c1.138,1.432.558,3.269-1.624,4.529l-4.955,2.484c-1.807,1.043-8.431,3.178-10,2.274l-6.758-.8c-.414.239-2.821-.7-3.347-.7a13.194,13.194,0,0,1-2.746-1.169L28.243,148.1l-12.1-6.988c-.438-.252-2.394-1.623-2.394-2.067,0-.488-1.685-2.073-1.157-2.377l-2.4-7.245c-1.565-.9,1.266-4.214,3.073-5.257" fill="#6f6eb3"/>
                          </g>
                        </g>
                      </g>
                      <g id="그룹_6133" data-name="그룹 6133" opacity="0.81">
                        <g id="그룹_6132" data-name="그룹 6132">
                          <g id="그룹_6131" data-name="그룹 6131" clip-path="url(#clip-path-26)">
                            <path id="패스_19536" data-name="패스 19536" d="M11.844,125.317c.271-.157,3.736-1.729,4.067-1.816s.62-.261.949-.363a9.882,9.882,0,0,1,4.384-.318,8.663,8.663,0,0,1,2.95.974L45.7,136l3.188,1.809,20.992,11.91c.307.178,3.387,2.089,3.429,2.392a3.724,3.724,0,0,1,.388.386c1.214,1.39.672,3.226-1.508,4.485l-4.737,2.365c-1.92,1.109-7.936,2.846-9.6,1.886L51.408,160c-.332.192-2.754-.846-3.176-.846a15,15,0,0,1-2.6-1.165l-17.184-9.9-11.563-6.663c-.35-.2-2.362-1.553-2.362-1.909,0-.39-1.869-1.955-1.448-2.2l-3.8-6.87c-1.662-.96.654-4.023,2.574-5.131" fill="#6b6ab0"/>
                          </g>
                        </g>
                      </g>
                      <g id="그룹_6136" data-name="그룹 6136" opacity="0.857">
                        <g id="그룹_6135" data-name="그룹 6135">
                          <g id="그룹_6134" data-name="그룹 6134" clip-path="url(#clip-path-27)">
                            <path id="패스_19537" data-name="패스 19537" d="M10.416,126.463c.2-.117,3.762-1.812,4.017-1.835a7.864,7.864,0,0,1,.934-.38,9.86,9.86,0,0,1,4.346-.409,8.085,8.085,0,0,1,2.935.926l21.291,12.09,3.157,1.792,20.778,11.8a30.708,30.708,0,0,1,3.464,2.3,3.671,3.671,0,0,1,.408.368c1.293,1.348.786,3.184-1.392,4.442L65.835,159.8c-2.033,1.174-7.442,2.514-9.2,1.5L50.5,159.639c-.248.144-2.685-.987-3-.987a18.2,18.2,0,0,1-2.457-1.162l-16.39-9.42-11.029-6.337c-.262-.152-2.331-1.484-2.331-1.75,0-.293-2.054-1.838-1.738-2.02l-5.213-6.5c-1.76-1.016.041-3.831,2.074-5" fill="#6765ac"/>
                          </g>
                        </g>
                      </g>
                      <g id="그룹_6139" data-name="그룹 6139" opacity="0.905">
                        <g id="그룹_6138" data-name="그룹 6138">
                          <g id="그룹_6137" data-name="그룹 6137" clip-path="url(#clip-path-28)">
                            <path id="패스_19538" data-name="패스 19538" d="M8.989,127.609c.136-.078,3.8-1.838,3.967-1.853a7.583,7.583,0,0,1,.919-.4,9.843,9.843,0,0,1,4.307-.5,7.565,7.565,0,0,1,2.921.878L42.18,137.713l3.124,1.775L65.87,151.175c.154.088,3.477,2.059,3.5,2.21a3.841,3.841,0,0,1,.428.351c1.371,1.3.9,3.141-1.276,4.4l-4.3,2.127c-2.145,1.239-6.947,2.182-8.805,1.109L49.6,159.278c-.165.1-2.616-1.128-2.827-1.128a24.5,24.5,0,0,1-2.314-1.16l-15.6-8.937L18.364,142.04a16.025,16.025,0,0,1-2.3-1.591c0-.2-2.239-1.719-2.028-1.841l-6.621-6.121c-1.859-1.073-.571-3.639,1.574-4.878" fill="#6361a9"/>
                          </g>
                        </g>
                      </g>
                      <g id="그룹_6142" data-name="그룹 6142" opacity="0.952">
                        <g id="그룹_6141" data-name="그룹 6141">
                          <g id="그룹_6140" data-name="그룹 6140" clip-path="url(#clip-path-29)">
                            <path id="패스_19539" data-name="패스 19539" d="M7.562,128.755c.068-.039,3.831-1.864,3.916-1.872a7.837,7.837,0,0,1,.9-.417,9.873,9.873,0,0,1,4.269-.589,7.1,7.1,0,0,1,2.907.831l20.863,11.863,3.092,1.759L63.867,151.9c.076.044,3.522,2.045,3.532,2.121a3.647,3.647,0,0,1,.448.333c1.45,1.258,1.015,3.1-1.159,4.353L62.6,160.72c-2.258,1.3-6.453,1.85-8.408.721l-5.506-2.524c-.083.048-2.549-1.27-2.654-1.27s-2.1-1.118-2.17-1.156l-14.8-8.455L19.1,142.348c-.087-.051-2.269-1.343-2.269-1.432s-2.423-1.6-2.318-1.663l-8.03-5.746c-1.956-1.129-1.183-3.448,1.075-4.752" fill="#5f5ca6"/>
                          </g>
                        </g>
                      </g>
                      <g id="그룹_6145" data-name="그룹 6145">
                        <g id="그룹_6144" data-name="그룹 6144">
                          <g id="그룹_6143" data-name="그룹 6143" clip-path="url(#clip-path-30)">
                            <path id="패스_19540" data-name="패스 19540" d="M52.977,161.512,29.268,148.019,5.56,134.527c-2.054-1.186-1.8-3.257.575-4.626L10,128.011c2.372-1.369,5.958-1.518,8.013-.332l23.708,13.493L65.43,154.664c2.054,1.186,1.8,3.257-.576,4.626l-3.865,1.89c-2.371,1.369-5.958,1.518-8.012.332" fill="#5b58a3"/>
                          </g>
                        </g>
                      </g>
                    </g>
                  </g>
                </g>
                <path id="패스_19541" data-name="패스 19541" d="M54.024,159.383l-41.566-24c-4.689-2.707-8.49-9.969-8.49-16.221V8.468c0-3.179-2.613-3.882-1.03-5.024C3,3.4,9.281.584,9.35.557a6.131,6.131,0,0,1,5.74.335l41.566,24c4.689,2.707,8.49,9.969,8.49,16.221V151.806c0,3.322-1.073,5.69-2.782,6.774-.1.064-7.132,3.314-7.245,3.352-1.515.5.955-1.365-1.1-2.549" fill="#afb6e5"/>
              </g>
            </g>
            <g id="그룹_6152" data-name="그룹 6152">
              <g id="그룹_6151" data-name="그룹 6151" clip-path="url(#clip-path-31)">
                <rect id="사각형_7840" data-name="사각형 7840" width="110.636" height="174.121" transform="translate(-46.256 15.462) rotate(-17.949)" fill="url(#linear-gradient-3)"/>
              </g>
            </g>
            <g id="그룹_6154" data-name="그룹 6154">
              <g id="그룹_6153" data-name="그룹 6153" clip-path="url(#clip-path-32)">
                <rect id="사각형_7841" data-name="사각형 7841" width="110.527" height="174.054" transform="translate(-46.246 15.496) rotate(-17.949)" fill="url(#linear-gradient-4)"/>
              </g>
            </g>
            <g id="그룹_6156" data-name="그룹 6156">
              <g id="그룹_6155" data-name="그룹 6155" clip-path="url(#clip-path-33)">
                <rect id="사각형_7842" data-name="사각형 7842" width="110.418" height="173.987" transform="translate(-46.234 15.53) rotate(-17.949)" fill="url(#linear-gradient-5)"/>
              </g>
            </g>
            <g id="그룹_6158" data-name="그룹 6158">
              <g id="그룹_6157" data-name="그룹 6157" clip-path="url(#clip-path-34)">
                <rect id="사각형_7843" data-name="사각형 7843" width="110.309" height="173.919" transform="translate(-46.223 15.565) rotate(-17.949)" fill="url(#linear-gradient-6)"/>
              </g>
            </g>
            <g id="그룹_6160" data-name="그룹 6160">
              <g id="그룹_6159" data-name="그룹 6159" clip-path="url(#clip-path-35)">
                <rect id="사각형_7844" data-name="사각형 7844" width="110.199" height="173.851" transform="translate(-46.212 15.599) rotate(-17.949)" fill="url(#linear-gradient-7)"/>
              </g>
            </g>
            <g id="그룹_6162" data-name="그룹 6162">
              <g id="그룹_6161" data-name="그룹 6161" clip-path="url(#clip-path-36)">
                <rect id="사각형_7845" data-name="사각형 7845" width="110.09" height="173.783" transform="translate(-46.201 15.634) rotate(-17.949)" fill="url(#linear-gradient-8)"/>
              </g>
            </g>
            <g id="그룹_6164" data-name="그룹 6164">
              <g id="그룹_6163" data-name="그룹 6163" clip-path="url(#clip-path-37)">
                <rect id="사각형_7846" data-name="사각형 7846" width="109.981" height="173.716" transform="translate(-46.19 15.668) rotate(-17.949)" fill="url(#linear-gradient-9)"/>
              </g>
            </g>
            <g id="그룹_6166" data-name="그룹 6166">
              <g id="그룹_6165" data-name="그룹 6165" clip-path="url(#clip-path-38)">
                <rect id="사각형_7847" data-name="사각형 7847" width="109.873" height="173.648" transform="translate(-46.179 15.702) rotate(-17.949)" fill="url(#linear-gradient-10)"/>
              </g>
            </g>
            <g id="그룹_6168" data-name="그룹 6168">
              <g id="그룹_6167" data-name="그룹 6167" clip-path="url(#clip-path-39)">
                <rect id="사각형_7848" data-name="사각형 7848" width="109.763" height="173.58" transform="translate(-46.168 15.737) rotate(-17.949)" fill="url(#linear-gradient-11)"/>
              </g>
            </g>
            <g id="그룹_6170" data-name="그룹 6170">
              <g id="그룹_6169" data-name="그룹 6169" clip-path="url(#clip-path-40)">
                <rect id="사각형_7849" data-name="사각형 7849" width="109.653" height="173.513" transform="translate(-46.156 15.771) rotate(-17.949)" fill="url(#linear-gradient-12)"/>
              </g>
            </g>
            <g id="그룹_6172" data-name="그룹 6172">
              <g id="그룹_6171" data-name="그룹 6171" clip-path="url(#clip-path-41)">
                <rect id="사각형_7850" data-name="사각형 7850" width="109.545" height="173.445" transform="translate(-46.145 15.805) rotate(-17.949)" fill="url(#linear-gradient-13)"/>
              </g>
            </g>
            <g id="그룹_6174" data-name="그룹 6174">
              <g id="그룹_6173" data-name="그룹 6173" clip-path="url(#clip-path-42)">
                <rect id="사각형_7851" data-name="사각형 7851" width="109.435" height="173.377" transform="translate(-46.134 15.84) rotate(-17.949)" fill="url(#linear-gradient-14)"/>
              </g>
            </g>
            <g id="그룹_6176" data-name="그룹 6176">
              <g id="그룹_6175" data-name="그룹 6175" clip-path="url(#clip-path-43)">
                <rect id="사각형_7852" data-name="사각형 7852" width="109.326" height="173.309" transform="translate(-46.123 15.874) rotate(-17.949)" fill="url(#linear-gradient-15)"/>
              </g>
            </g>
            <g id="그룹_6178" data-name="그룹 6178">
              <g id="그룹_6177" data-name="그룹 6177" clip-path="url(#clip-path-44)">
                <rect id="사각형_7853" data-name="사각형 7853" width="109.216" height="173.242" transform="translate(-46.112 15.909) rotate(-17.949)" fill="url(#linear-gradient-16)"/>
              </g>
            </g>
            <g id="그룹_6180" data-name="그룹 6180">
              <g id="그룹_6179" data-name="그룹 6179" clip-path="url(#clip-path-45)">
                <rect id="사각형_7854" data-name="사각형 7854" width="109.108" height="173.174" transform="translate(-46.101 15.943) rotate(-17.949)" fill="url(#linear-gradient-17)"/>
              </g>
            </g>
            <g id="그룹_6182" data-name="그룹 6182">
              <g id="그룹_6181" data-name="그룹 6181" clip-path="url(#clip-path-46)">
                <rect id="사각형_7855" data-name="사각형 7855" width="108.999" height="173.106" transform="translate(-46.09 15.977) rotate(-17.949)" fill="url(#linear-gradient-18)"/>
              </g>
            </g>
            <g id="그룹_6184" data-name="그룹 6184">
              <g id="그룹_6183" data-name="그룹 6183" clip-path="url(#clip-path-47)">
                <rect id="사각형_7856" data-name="사각형 7856" width="108.889" height="173.039" transform="translate(-46.079 16.012) rotate(-17.949)" fill="url(#linear-gradient-19)"/>
              </g>
            </g>
            <g id="그룹_6186" data-name="그룹 6186">
              <g id="그룹_6185" data-name="그룹 6185" clip-path="url(#clip-path-48)">
                <rect id="사각형_7857" data-name="사각형 7857" width="108.78" height="172.971" transform="translate(-46.067 16.046) rotate(-17.949)" fill="url(#linear-gradient-20)"/>
              </g>
            </g>
            <g id="그룹_6188" data-name="그룹 6188">
              <g id="그룹_6187" data-name="그룹 6187" clip-path="url(#clip-path-49)">
                <rect id="사각형_7858" data-name="사각형 7858" width="108.671" height="172.903" transform="translate(-46.056 16.081) rotate(-17.949)" fill="url(#linear-gradient-21)"/>
              </g>
            </g>
            <g id="그룹_6190" data-name="그룹 6190">
              <g id="그룹_6189" data-name="그룹 6189" clip-path="url(#clip-path-50)">
                <rect id="사각형_7859" data-name="사각형 7859" width="108.561" height="172.835" transform="translate(-46.045 16.115) rotate(-17.949)" fill="url(#linear-gradient-22)"/>
              </g>
            </g>
            <g id="그룹_6192" data-name="그룹 6192">
              <g id="그룹_6191" data-name="그룹 6191" clip-path="url(#clip-path-51)">
                <rect id="사각형_7860" data-name="사각형 7860" width="108.453" height="172.768" transform="translate(-46.034 16.149) rotate(-17.949)" fill="url(#linear-gradient-23)"/>
              </g>
            </g>
            <g id="그룹_6194" data-name="그룹 6194">
              <g id="그룹_6193" data-name="그룹 6193" clip-path="url(#clip-path-6)">
                <path id="패스_19563" data-name="패스 19563" d="M50.056,161.259l-41.567-24C3.8,134.554,0,127.292,0,121.04V10.344C0,4.093,3.8,1.219,8.489,3.926l41.567,24c4.688,2.707,8.49,9.969,8.49,16.22v110.7c0,6.252-3.8,9.125-8.49,6.418" fill="#fff"/>
              </g>
            </g>
            <g id="그룹_6196" data-name="그룹 6196">
              <g id="그룹_6195" data-name="그룹 6195" clip-path="url(#clip-path-53)">
                <rect id="사각형_7862" data-name="사각형 7862" width="112.35" height="167.477" transform="translate(-54.433 26.369) rotate(-22.256)" fill="url(#linear-gradient-24)"/>
              </g>
            </g>
            <g id="그룹_6198" data-name="그룹 6198">
              <g id="그룹_6197" data-name="그룹 6197" clip-path="url(#clip-path-6)">
                <path id="패스_19565" data-name="패스 19565" d="M2.812,122.451V12.18c0-4.588,2.789-6.7,6.229-4.709L49.505,30.833c3.439,1.985,6.229,7.315,6.229,11.9V153.006c0,4.586-2.79,6.7-6.229,4.709L9.041,134.353c-3.44-1.986-6.229-7.316-6.229-11.9" fill="#afb6e5"/>
              </g>
            </g>
            <g id="그룹_6200" data-name="그룹 6200">
              <g id="그룹_6199" data-name="그룹 6199" clip-path="url(#clip-path-55)">
                <rect id="사각형_7864" data-name="사각형 7864" width="115.293" height="157.079" transform="translate(-58.256 40.344) rotate(-27.674)" fill="url(#linear-gradient)"/>
              </g>
            </g>
            <g id="그룹_6202" data-name="그룹 6202">
              <g id="그룹_6201" data-name="그룹 6201" clip-path="url(#clip-path-56)">
                <rect id="사각형_7865" data-name="사각형 7865" width="15.891" height="11.227" transform="translate(53.035 77.71) rotate(-61.821)" fill="url(#linear-gradient-26)"/>
              </g>
            </g>
            <g id="그룹_6204" data-name="그룹 6204">
              <g id="그룹_6203" data-name="그룹 6203" clip-path="url(#clip-path-6)">
                <path id="패스_19568" data-name="패스 19568" d="M44.616,35.278l5.9,3.407c.225.13.407.026.407-.232a.9.9,0,0,0-.407-.7l-5.9-3.407c-.225-.13-.407-.026-.407.232a.9.9,0,0,0,.407.7m5.9,4.575-5.9-3.408c-.225-.129-.407-.025-.407.232a.9.9,0,0,0,.407.7l5.9,3.408c.225.13.407.026.407-.232a.9.9,0,0,0-.407-.7m0,2.1-5.9-3.408c-.225-.129-.407-.026-.407.232a.9.9,0,0,0,.407.7l5.9,3.408c.225.13.407.026.407-.232a.9.9,0,0,0-.407-.7" fill="#e5e9ff"/>
                <path id="패스_19569" data-name="패스 19569" d="M14.45,17.966c0,.623-.44.874-.983.56a2.166,2.166,0,0,1-.982-1.695c0-.623.44-.873.982-.56a2.164,2.164,0,0,1,.983,1.695" fill="#e5e9ff"/>
                <path id="패스_19570" data-name="패스 19570" d="M11.486,16.243c0,.623-.44.874-.983.56a2.164,2.164,0,0,1-.983-1.695c0-.623.44-.873.983-.56a2.164,2.164,0,0,1,.983,1.695" fill="#e5e9ff"/>
                <path id="패스_19571" data-name="패스 19571" d="M8.521,14.52c0,.623-.44.874-.983.56a2.164,2.164,0,0,1-.983-1.695c0-.623.44-.873.983-.56a2.164,2.164,0,0,1,.983,1.7" fill="#e5e9ff"/>
              </g>
            </g>
          </g>
        </g>
        <g id="그룹_5707" data-name="그룹 5707" transform="translate(251.652 15)" clip-path="url(#clip-path-58)">
          <rect id="사각형_7678" data-name="사각형 7678" width="84.275" height="44.838" transform="translate(-15.804 78.023) rotate(-78.55)" fill="url(#linear-gradient-2)"/>
        </g>
      </g>
      <g id="그룹_6059" data-name="그룹 6059" transform="translate(18946.813 4838.256)">
        <g id="그룹_5617" data-name="그룹 5617" transform="translate(-18686.656 -4624.179)" style="mix-blend-mode: multiply;isolation: isolate">
          <g id="그룹_5616" data-name="그룹 5616">
            <g id="그룹_5615" data-name="그룹 5615" clip-path="url(#clip-path-59)">
              <g id="그룹_5614" data-name="그룹 5614" transform="translate(0 0)">
                <g id="그룹_5613" data-name="그룹 5613" clip-path="url(#clip-path-60)">
                  <rect id="사각형_7606" data-name="사각형 7606" width="40.154" height="23.183" transform="translate(-1.781 -1.028)" fill="url(#radial-gradient-3)"/>
                </g>
              </g>
            </g>
          </g>
        </g>
        <path id="패스_18556" data-name="패스 18556" d="M40.874,229.077c0-.376-.531-.68-1.184-.68H37.165c-.419,0-1.112.44-1.216.308-.173-.219-.111-.475.185-.646l1.786-1.029c.462-.266-2.474-.142-2.936-.408l.024-2.229a1.853,1.853,0,0,0-1.673,0l-1.8,1.036a1.54,1.54,0,0,1-1.077.118c-.257-.063-.535-.126-.773-.18-.375-.084-.619-.292-.619-.523v-1.468c0-.376-.529-.68-1.183-.68H23.767c-.653,0-1.183.3-1.183.68v1.454c0,.24-.27.447-.661.532-.247.053-.491.112-.732.175a1.579,1.579,0,0,1-1.122-.1l-1.793-1.025a1.853,1.853,0,0,0-1.673,0l-.213,2.423c-.46.267-3.148-.046-2.684.219l1.805,1.033c.284.163.366.407.209.619-.11.148-.818-.288-1.219-.288l-2.553,0c-.653,0-1.181.307-1.18.683l.01,3.458c0,.376.533.68,1.187.68l1.481,0-.035,2.857a.4.4,0,0,0,0,.148.623.623,0,0,0,.337.414l2.916,1.671a1.79,1.79,0,0,0,1.037.176l.02.011V238.5a1.6,1.6,0,0,0,.616-.175l1.8-1.038a1.539,1.539,0,0,1,1.077-.119c.256.063.534.126.773.179.375.084.619.291.619.522l0,1.469c0,.376.532.68,1.185.68l4.116,0c.653,0,1.182-.307,1.181-.682l0-1.454c0-.24.27-.447.66-.533q.354-.077.7-.167a1.58,1.58,0,0,1,1.123.106l1.789,1.027a1.605,1.605,0,0,0,.613.174v.019l.031-.016a1.788,1.788,0,0,0,1.029-.179l2.906-1.677a.635.635,0,0,0,.331-.393l.013-.006v-.068c0-.01,0-.02,0-.03l-.036-2.921H39.7c.653,0,1.182-.3,1.181-.681Zm-9.312,2.886c-.684,2.094-4.454,3.277-7.842,2.525-2.575-.57-4.143-2.173-3.633-3.733.685-2.093,4.454-3.276,7.843-2.525,2.574.571,4.142,2.174,3.632,3.733" transform="translate(-18691.535 -4848.911)" fill="#2842a2"/>
        <path id="패스_18558" data-name="패스 18558" d="M36.468,229.518l3.228,0c.653,0,1.182-.3,1.181-.681l0-2.368c0-.376-.53-.68-1.184-.68H37.165a1.113,1.113,0,0,1-.925-.38c-.088-.136-.186-.27-.29-.4-.174-.219-.111-.476.185-.647l1.786-1.028a.508.508,0,0,0,0-.963l-2.912-1.674a1.853,1.853,0,0,0-1.673,0l-1.8,1.037a1.545,1.545,0,0,1-1.077.118c-.257-.063-.535-.127-.773-.18-.375-.084-.619-.292-.619-.523v-1.468c0-.376-.53-.681-1.183-.681H23.768c-.654,0-1.183.3-1.183.681v1.454c0,.24-.27.446-.661.531q-.371.081-.732.176a1.581,1.581,0,0,1-1.123-.1l-1.792-1.026a1.856,1.856,0,0,0-1.673,0l-2.9,1.68a.507.507,0,0,0,0,.962l1.806,1.033c.284.163.365.408.209.62-.109.148-.219.308-.312.445a1.116,1.116,0,0,1-.908.356l-2.552,0c-.653,0-1.181.306-1.18.682l.01,2.368c0,.376.533.68,1.186.68l2.526,0a1.116,1.116,0,0,1,.926.38c.089.135.186.27.292.4.174.219.112.475-.183.646L13.743,232a.507.507,0,0,0,0,.962l2.916,1.672a1.856,1.856,0,0,0,1.673,0l1.8-1.038a1.543,1.543,0,0,1,1.077-.12c.256.063.534.126.773.18.375.083.619.291.619.522l0,1.468c0,.376.531.68,1.185.68l4.116,0c.653,0,1.181-.306,1.181-.681l0-1.454c0-.241.269-.448.66-.533q.354-.077.7-.167a1.581,1.581,0,0,1,1.123.105l1.789,1.027a1.853,1.853,0,0,0,1.673,0l2.907-1.676a.508.508,0,0,0,0-.963l-1.8-1.034c-.284-.163-.364-.408-.207-.62.262-.354.532-.776.545-.8m-16.38-2.465c.685-2.093,4.454-3.277,7.842-2.525,2.575.57,4.143,2.173,3.633,3.733-.685,2.093-4.454,3.276-7.843,2.525-2.574-.571-4.142-2.173-3.632-3.733" transform="translate(-18691.535 -4848.48)" fill="#4782d9"/>
      </g>
      <g id="그룹_6057" data-name="그룹 6057" transform="translate(18848.07 4803.678)">
        <g id="그룹_5627-3" data-name="그룹 5627" transform="translate(-18556.555 -4558.385)" style="mix-blend-mode: multiply;isolation: isolate">
          <g id="그룹_5626-3" data-name="그룹 5626">
            <g id="그룹_5625-3" data-name="그룹 5625" clip-path="url(#clip-path-61)">
              <g id="그룹_5624-3" data-name="그룹 5624" transform="translate(0 0)">
                <g id="그룹_5623-3" data-name="그룹 5623" clip-path="url(#clip-path-62)">
                  <rect id="사각형_7610-3" data-name="사각형 7610" width="32.141" height="18.557" transform="translate(-1.426 -0.823)" fill="url(#radial-gradient)"/>
                </g>
              </g>
            </g>
          </g>
        </g>
        <path id="패스_18564-3" data-name="패스 18564" d="M242.159,246.137c0-.3-.425-.544-.948-.544h-2.022c-.334,0-.889.353-.972.247-.14-.175-.089-.381.148-.517l1.429-.823c.37-.213-1.98-.114-2.351-.327l.019-1.784a1.482,1.482,0,0,0-1.339,0l-1.44.829a1.235,1.235,0,0,1-.862.1c-.2-.051-.427-.1-.619-.145-.3-.067-.495-.233-.495-.419v-1.175c0-.3-.424-.544-.947-.544h-3.294c-.523,0-.947.244-.947.544v1.164c0,.193-.216.358-.529.426q-.3.064-.585.14a1.266,1.266,0,0,1-.9-.084l-1.434-.821a1.483,1.483,0,0,0-1.339,0l-.171,1.94c-.369.213-2.52-.037-2.149.175l1.446.827c.227.13.292.326.167.5-.087.118-.654-.231-.976-.231l-2.043,0c-.523,0-.946.245-.945.546l.008,2.768c0,.3.426.544.949.543l1.186,0-.028,2.286a.333.333,0,0,0,0,.118h0a.5.5,0,0,0,.269.331l2.335,1.338a1.432,1.432,0,0,0,.831.141l.016.009v-.011a1.287,1.287,0,0,0,.493-.141l1.438-.831a1.24,1.24,0,0,1,.862-.1c.2.05.428.1.619.144.3.067.5.233.5.419l0,1.175c0,.3.425.544.948.543l3.294,0c.523,0,.946-.246.946-.546l0-1.164c0-.193.216-.358.529-.426.188-.041.375-.086.558-.134a1.268,1.268,0,0,1,.9.085l1.432.822a1.289,1.289,0,0,0,.491.14v.016l.025-.013a1.426,1.426,0,0,0,.823-.143l2.328-1.342a.505.505,0,0,0,.264-.315l.011-.005v-.054a.223.223,0,0,0,0-.024l-.029-2.338h1.165c.523,0,.946-.245.946-.545Zm-7.454,2.31c-.548,1.676-3.565,2.623-6.277,2.021-2.061-.457-3.316-1.74-2.907-2.989.548-1.675,3.565-2.622,6.277-2.021,2.061.457,3.315,1.74,2.907,2.988" transform="translate(-18769.902 -4801.043)" fill="#0a6464"/>
        <path id="패스_18566-3" data-name="패스 18566" d="M238.633,246.488h2.584c.522,0,.946-.245.946-.545l0-1.9c0-.3-.425-.544-.947-.544H239.19a.889.889,0,0,1-.74-.3q-.107-.163-.232-.322c-.14-.175-.089-.381.148-.517l1.43-.824a.406.406,0,0,0,0-.771l-2.33-1.34a1.484,1.484,0,0,0-1.34,0l-1.439.83a1.232,1.232,0,0,1-.862.095c-.206-.05-.428-.1-.619-.144-.3-.067-.495-.233-.495-.419v-1.175c0-.3-.424-.544-.947-.544h-3.294c-.523,0-.947.244-.947.544v1.164c0,.193-.216.358-.529.425q-.3.065-.585.141a1.264,1.264,0,0,1-.9-.084l-1.435-.821a1.482,1.482,0,0,0-1.339,0l-2.323,1.344a.406.406,0,0,0,0,.771l1.446.827c.227.13.292.326.167.5-.087.118-.176.246-.249.356a.9.9,0,0,1-.726.286l-2.043,0c-.523,0-.945.246-.945.546l.008,1.9c0,.3.427.544.95.544l2.022,0a.9.9,0,0,1,.741.3q.107.163.232.321c.14.176.09.381-.146.518l-1.427.824a.406.406,0,0,0,0,.771l2.335,1.338a1.485,1.485,0,0,0,1.339,0l1.438-.831a1.236,1.236,0,0,1,.862-.1c.206.05.428.1.619.144.3.067.5.233.5.419l0,1.174c0,.3.425.545.948.544l3.3,0c.522,0,.946-.246.945-.546l0-1.164c0-.193.216-.358.528-.426.189-.041.375-.086.558-.134a1.269,1.269,0,0,1,.9.085l1.432.822a1.484,1.484,0,0,0,1.34,0l2.327-1.342a.406.406,0,0,0,0-.771l-1.443-.828c-.226-.13-.292-.326-.165-.5.209-.284.426-.621.437-.642m-13.112-1.972c.548-1.675,3.565-2.623,6.277-2.021,2.061.457,3.316,1.74,2.907,2.989-.548,1.676-3.565,2.622-6.277,2.021-2.061-.457-3.315-1.74-2.907-2.988" transform="translate(-18769.902 -4800.699)" fill="#12bebe"/>
      </g>
      <g id="그룹_6052" data-name="그룹 6052" transform="translate(18944.588 4906.712)">
        <g transform="matrix(1, 0, 0, 1, -18715.35, -4879.38)" filter="url(#패스_19512)" style="mix-blend-mode: multiply;isolation: isolate">
          <path id="패스_19512-2" data-name="패스 19512" d="M-18581.545-4357.484c.172-7.006,0-61.506,0-61.506s.26-.983,2.189-1.489a5.815,5.815,0,0,1,3.846.568l34.475,19.684v-7.992s1.336-1.59,3.777,0,30.34,16.991,30.34,16.991a6,6,0,0,1,2.254,5.4,67.469,67.469,0,0,0,0,7.594l11.227,6.237a7.154,7.154,0,0,1,3.145,5.834c-.016,3.893,0,61.17,0,61.17a3.845,3.845,0,0,1-5.014,3c-4.332-.983-84.039-47.814-84.039-47.814S-18581.717-4350.479-18581.545-4357.484Z" transform="translate(18660.41 4542.67)" opacity="0.316"/>
        </g>
        <g id="그룹_5467" data-name="그룹 5467" transform="translate(-18639.074 -4755.708)" clip-path="url(#clip-path-63)">
          <rect id="사각형_7553" data-name="사각형 7553" width="89.888" height="114.586" transform="translate(0 0)" fill="url(#linear-gradient-28)"/>
        </g>
        <path id="패스_18453" data-name="패스 18453" d="M204.644,69.043l-82.963-47.8a1.557,1.557,0,0,0-2.339,1.347v58.98a4.6,4.6,0,0,0,2.291,3.98l82.962,48.184a1.558,1.558,0,0,0,2.34-1.347V73.024a4.6,4.6,0,0,0-2.291-3.981" transform="translate(-18758.416 -4775.447)" fill="#fff"/>
        <path id="패스_18454" data-name="패스 18454" d="M140.794,48.826,125.183,39.8l.037-1.745,15.574,8.992Z" transform="translate(-18759.096 -4777.427)" fill="#e6e7e8"/>
        <path id="패스_18455" data-name="패스 18455" d="M140.794,53.892l-15.611-9.006.037-1.746,15.574,8.991Z" transform="translate(-18759.096 -4778.019)" fill="#e6e7e8"/>
        <path id="패스_18456" data-name="패스 18456" d="M133.761,54.9l-8.578-4.929.037-1.745,8.54,4.931Z" transform="translate(-18759.096 -4778.611)" fill="#e6e7e8"/>
        <path id="패스_18457" data-name="패스 18457" d="M204.643,69.043l-82.963-47.8a1.558,1.558,0,0,0-2.34,1.347v3.02l87.594,50.427V73.024a4.6,4.6,0,0,0-2.291-3.981" transform="translate(-18758.416 -4775.447)" fill="#5368b5"/>
        <path id="패스_18458" data-name="패스 18458" d="M206.623,97.844c-.969-2.144-2.5-5.358-5.21-5.673-3.033-.351-5.9,3.116-7.111,5.519-1.353,2.687-4.394,7.266-8.024,6.224-3.607-1.035-3.945-6.34-4.083-9.358-.275-6-.462-17.011-8.393-18.08-7.56-1.017-10.425,6.118-13.456,11.557-2.2,3.946-6.828,8.973-11.947,6.917-3.608-1.448-5.593-5.305-7.289-8.543-3.281-6.26-6.9-13.163-14.653-7.824a59.644,59.644,0,0,0-7.115,6.3v3.118a4.6,4.6,0,0,0,2.291,3.981l82.963,48.184a1.558,1.558,0,0,0,2.34-1.348V98.613c-.1-.257-.2-.522-.312-.77" transform="translate(-18758.416 -4781.887)" fill="#12bebe"/>
        <g id="그룹_5471" data-name="그룹 5471" transform="translate(-18599.92 -4745.042)" clip-path="url(#clip-path-64)">
          <rect id="사각형_7555" data-name="사각형 7555" width="36.052" height="41.014" transform="translate(0)" fill="url(#linear-gradient-29)"/>
        </g>
        <path id="패스_18460" data-name="패스 18460" d="M163.651,35.563v15.62a2.713,2.713,0,0,0,1.356,2.35l12.262,7.089,1.454,5.327a1.284,1.284,0,0,0,1.822.806l3.851-1.963L195.7,71.483a1.533,1.533,0,0,0,2.313-1.319V54.317a2.714,2.714,0,0,0-1.357-2.351l-30.71-17.73a1.532,1.532,0,0,0-2.3,1.327" transform="translate(-18763.572 -4776.959)" fill="#2842a2"/>
        <path id="패스_18461" data-name="패스 18461" d="M181.2,121.868l.322.186V71.827c-.106-.021-.213-.042-.322-.057Z" transform="translate(-18765.613 -4781.35)" fill="#2842a2"/>
        <path id="패스_18462" data-name="패스 18462" d="M125.459,26.335a.831.831,0,1,1-.22-1.275.925.925,0,0,1,.22,1.275" transform="translate(-18758.945 -4775.906)" fill="#fff"/>
        <path id="패스_18463" data-name="패스 18463" d="M129.03,28.247a.831.831,0,1,1-.22-1.275.925.925,0,0,1,.22,1.275" transform="translate(-18759.361 -4776.128)" fill="#fff"/>
        <path id="패스_18464" data-name="패스 18464" d="M132.6,30.159a.832.832,0,1,1-.22-1.276.925.925,0,0,1,.22,1.276" transform="translate(-18759.775 -4776.351)" fill="#fff"/>
        <path id="패스_18597" data-name="패스 18597" d="M174.021,51.475l.129-1.907-1.227-.782.087-1.3,1.227.783.13-1.907.967.617-.129,1.907,1.227.783-.087,1.3-1.228-.783-.129,1.907Z" transform="translate(-18764.65 -4778.394)" fill="#fff"/>
        <path id="패스_18598" data-name="패스 18598" d="M179.766,51.477a1.186,1.186,0,0,0,.239-.649,1.606,1.606,0,0,0-.12-.723,1.061,1.061,0,0,0-.4-.513q-.464-.294-.945.437l-.824-1.342a1.777,1.777,0,0,1,.836-.738,1.261,1.261,0,0,1,1.073.253,3.1,3.1,0,0,1,1.075,1.32,3.869,3.869,0,0,1,.367,1.964,2.257,2.257,0,0,1-.267.974,3.57,3.57,0,0,1-.8.886l-.978.824,1.936,1.234-.1,1.484-3.458-2.2.083-1.229,1.59-1.308a4.369,4.369,0,0,0,.692-.67" transform="translate(-18765.172 -4778.574)" fill="#fff"/>
        <path id="패스_18599" data-name="패스 18599" d="M185.847,52.274l-.1,1.431-1.936-1.234-.084,1.24a1.487,1.487,0,0,1,.5.222,3.353,3.353,0,0,1,1.176,1.424,4.06,4.06,0,0,1,.393,2.069,1.792,1.792,0,0,1-.651,1.475,1.183,1.183,0,0,1-1.356-.119,4.283,4.283,0,0,1-1.587-2.172l.657-.84c.037.09.088.2.153.34a5.751,5.751,0,0,0,.36.611,1.908,1.908,0,0,0,.546.585.5.5,0,0,0,.514.064q.236-.115.269-.614a1.719,1.719,0,0,0-.182-.918,1.671,1.671,0,0,0-.589-.657,1.217,1.217,0,0,0-.89-.148l-.4-1.032.244-3.613Z" transform="translate(-18765.73 -4778.862)" fill="#fff"/>
        <path id="패스_18600" data-name="패스 18600" d="M189.454,55.955q-.456-.292-.736.011a2,2,0,0,0-.39,1.061,1.149,1.149,0,0,1,1,.171,3,3,0,0,1,1.1,1.409,4.534,4.534,0,0,1,.337,2.1,1.847,1.847,0,0,1-.617,1.491,1.116,1.116,0,0,1-1.291-.115,2.967,2.967,0,0,1-.881-.877,4.018,4.018,0,0,1-.535-1.219,8.865,8.865,0,0,1-.243-2.9,7.015,7.015,0,0,1,.285-1.68,1.976,1.976,0,0,1,.535-.925,1.118,1.118,0,0,1,1.448-.005,2.91,2.91,0,0,1,.645.572,4.572,4.572,0,0,1,.46.619c.1.178.22.391.344.639l-.6.835c-.026-.061-.064-.143-.111-.248a3.747,3.747,0,0,0-.3-.479,1.7,1.7,0,0,0-.452-.464m-.325,2.578a.506.506,0,0,0-.566-.058.741.741,0,0,0-.271.618,2.109,2.109,0,0,0,.156.934,1.363,1.363,0,0,0,.5.669.462.462,0,0,0,.546.039.805.805,0,0,0,.262-.634,2.173,2.173,0,0,0-.135-.915,1.273,1.273,0,0,0-.495-.651" transform="translate(-18766.309 -4779.308)" fill="#fff"/>
      </g>
      <g id="그룹_6079" data-name="그룹 6079" transform="translate(18879.148 4904.176)">
        <g id="그룹_6060" data-name="그룹 6060" transform="translate(-18545.617 -4632.731)">
          <path id="패스_18534" data-name="패스 18534" d="M238.452,211.976c2.087-1.205,2.087-3.176,0-4.381a8.419,8.419,0,0,0-7.587,0c-2.087,1.205-2.087,3.176,0,4.381a8.415,8.415,0,0,0,7.587,0" transform="translate(-226.245 -171.776)" fill="#259393"/>
          <g id="그룹_5605" data-name="그룹 5605" transform="translate(0 33.799)" style="mix-blend-mode: multiply;isolation: isolate">
            <g id="그룹_5604" data-name="그룹 5604">
              <g id="그룹_5603" data-name="그룹 5603" clip-path="url(#clip-path-65)">
                <g id="그룹_5602" data-name="그룹 5602" transform="translate(0.001 0)">
                  <g id="그룹_5601" data-name="그룹 5601" clip-path="url(#clip-path-66)">
                    <rect id="사각형_7601" data-name="사각형 7601" width="18.266" height="10.546" transform="translate(-0.81 -0.468)" fill="url(#radial-gradient-5)"/>
                  </g>
                </g>
              </g>
            </g>
          </g>
          <path id="패스_18536" data-name="패스 18536" d="M239.839,197.9H229.3V162.986h10.718Z" transform="translate(-226.244 -159.893)" fill="#259393"/>
          <path id="패스_18538" data-name="패스 18538" d="M238.452,164.022c2.087-1.205,2.087-3.176,0-4.381a8.419,8.419,0,0,0-7.587,0c-2.087,1.205-2.087,3.176,0,4.381a8.415,8.415,0,0,0,7.587,0" transform="translate(-226.245 -158.738)" fill="#12bebe"/>
        </g>
        <g id="그룹_6061" data-name="그룹 6061" transform="translate(-18534.986 -4618.384)">
          <g id="그룹_5600" data-name="그룹 5600" transform="translate(0 25.045)" style="mix-blend-mode: multiply;isolation: isolate">
            <g id="그룹_5599" data-name="그룹 5599">
              <g id="그룹_5598" data-name="그룹 5598" clip-path="url(#clip-path-67)">
                <g id="그룹_5597" data-name="그룹 5597" transform="translate(0 0)">
                  <g id="그룹_5596" data-name="그룹 5596" clip-path="url(#clip-path-68)">
                    <rect id="사각형_7599" data-name="사각형 7599" width="18.266" height="10.546" transform="translate(-0.81 -0.468)" fill="url(#radial-gradient-6)"/>
                  </g>
                </g>
              </g>
            </g>
          </g>
          <path id="패스_18535" data-name="패스 18535" d="M252.928,220.475c2.087-1.2,2.087-3.176,0-4.381a8.419,8.419,0,0,0-7.588,0c-2.087,1.2-2.087,3.176,0,4.381a8.414,8.414,0,0,0,7.588,0" transform="translate(-240.813 -188.434)" fill="#d1d3d4"/>
          <path id="패스_18537" data-name="패스 18537" d="M254.315,209.08h-10.54V182.692h10.718Z" transform="translate(-240.813 -179.598)" fill="#d1d3d4"/>
          <path id="패스_18539" data-name="패스 18539" d="M252.928,183.727c2.087-1.205,2.087-3.176,0-4.381a8.414,8.414,0,0,0-7.588,0c-2.087,1.2-2.087,3.176,0,4.381a8.415,8.415,0,0,0,7.588,0" transform="translate(-240.813 -178.443)" fill="#f1f2f2"/>
        </g>
        <g id="그룹_6055" data-name="그룹 6055" transform="translate(-18524.461 -4603.321)">
          <g id="그룹_5595" data-name="그룹 5595" transform="translate(0 15.575)" style="mix-blend-mode: multiply;isolation: isolate">
            <g id="그룹_5594" data-name="그룹 5594">
              <g id="그룹_5593" data-name="그룹 5593" clip-path="url(#clip-path-67)">
                <g id="그룹_5592" data-name="그룹 5592" transform="translate(0 0)">
                  <g id="그룹_5591" data-name="그룹 5591" clip-path="url(#clip-path-70)">
                    <rect id="사각형_7597" data-name="사각형 7597" width="18.266" height="10.546" transform="translate(-0.81 -0.468)" fill="url(#radial-gradient-7)"/>
                  </g>
                </g>
              </g>
            </g>
          </g>
          <path id="패스_18540" data-name="패스 18540" d="M267.294,228.157c2.061-1.2,2.061-3.176,0-4.381a8.227,8.227,0,0,0-7.5,0c-2.061,1.2-2.061,3.176,0,4.381a8.223,8.223,0,0,0,7.5,0" transform="translate(-255.273 -205.586)" fill="#2842a2"/>
          <path id="패스_18541" data-name="패스 18541" d="M268.835,220.526H258.252V203.38h10.718Z" transform="translate(-255.273 -200.286)" fill="#2842a2"/>
          <path id="패스_18542" data-name="패스 18542" d="M267.4,204.415c2.087-1.2,2.087-3.176,0-4.381a8.419,8.419,0,0,0-7.588,0c-2.087,1.2-2.087,3.176,0,4.381a8.415,8.415,0,0,0,7.588,0" transform="translate(-255.273 -199.131)" fill="#4782d9"/>
        </g>
      </g>
    </g>
  </g>
</svg>
