<svg xmlns="http://www.w3.org/2000/svg" xmlns:xlink="http://www.w3.org/1999/xlink" width="111" height="105" viewBox="0 0 111 105">
  <defs>
    <clipPath id="clip-path">
      <rect id="사각형_7869" data-name="사각형 7869" width="111" height="105" transform="translate(264 54)" fill="#fff" stroke="#707070" stroke-width="1"/>
    </clipPath>
  </defs>
  <g id="topimg_today" transform="translate(-264 -54)" clip-path="url(#clip-path)">
    <g id="그룹_6228" data-name="그룹 6228" transform="translate(280.393 46.996)" opacity="0.2">
      <g id="그룹_6234" data-name="그룹 6234" transform="translate(0 0)">
        <path id="패스_19588" data-name="패스 19588" d="M37.525,80.416H34.182a9.867,9.867,0,0,1-9.856-9.857V61.4a.694.694,0,0,1,.695-.7H46.686a.7.7,0,0,1,.695.7v9.16a9.868,9.868,0,0,1-9.856,9.857M25.714,62.094V70.56a8.477,8.477,0,0,0,8.467,8.466h3.343a8.476,8.476,0,0,0,8.466-8.466V62.094Z" transform="translate(1.672 4.171)" fill="#0093ff" stroke="#0093ff" stroke-width="1"/>
        <path id="패스_19589" data-name="패스 19589" d="M47.645,65.751H25.979a.7.7,0,0,1-.683-.567,21.564,21.564,0,0,0-6.564-11.141,26.793,26.793,0,0,1-8.2-22.509,27.276,27.276,0,0,1,23.9-23.9,13.4,13.4,0,0,1,2.383-.142c.426,0,.819.035,1.21.073.351.032.7.065,1.084.065a27.247,27.247,0,0,1,23.979,23.9,26.8,26.8,0,0,1-8.195,22.512,21.563,21.563,0,0,0-6.563,11.139.7.7,0,0,1-.683.567m-21.1-1.39H47.079A23.34,23.34,0,0,1,53.93,53.04,25.415,25.415,0,0,0,61.7,31.684,25.831,25.831,0,0,0,39.03,9.013,10.812,10.812,0,0,1,37.9,8.945c-.349-.032-.7-.065-1.082-.065a12.4,12.4,0,0,0-2.191.127A25.888,25.888,0,0,0,11.91,31.686a25.416,25.416,0,0,0,7.781,21.352,23.344,23.344,0,0,1,6.854,11.323" transform="translate(0.712 0.514)" fill="#0093ff" stroke="#0093ff" stroke-width="1"/>
        <g id="그룹_6233" data-name="그룹 6233" transform="translate(0 10)">
          <rect id="사각형_7881" data-name="사각형 7881" width="10" height="21" transform="translate(32.607 33.574)" fill="#0093ff"/>
          <path id="다각형_1" data-name="다각형 1" d="M10,0,20,14H0Z" transform="translate(27.607 20.574)" fill="#0093ff"/>
        </g>
        <path id="패스_19622" data-name="패스 19622" d="M26,70.442H48.109" transform="translate(0.472 1)" fill="none" stroke="#0093ff" stroke-width="1"/>
        <path id="패스_19623" data-name="패스 19623" d="M26,70.442H48.109" transform="translate(0.472 4.289)" fill="none" stroke="#0093ff" stroke-width="1"/>
        <path id="패스_19624" data-name="패스 19624" d="M26,70.442H45.543" transform="translate(1.755 7.579)" fill="none" stroke="#0093ff" stroke-width="1"/>
        <path id="패스_19625" data-name="패스 19625" d="M38.219,24.03V19.124" transform="translate(-0.699 2.95)" fill="none" stroke="#0093ff" stroke-linecap="round" stroke-width="1"/>
        <path id="패스_19626" data-name="패스 19626" d="M38.219,24.03V19.124" transform="translate(-15.053 27.074) rotate(-30)" fill="none" stroke="#0093ff" stroke-linecap="round" stroke-width="1"/>
        <path id="패스_19627" data-name="패스 19627" d="M38.219,24.03V19.124" transform="translate(23.895 -11.145) rotate(30)" fill="none" stroke="#0093ff" stroke-linecap="round" stroke-width="1"/>
        <path id="패스_19628" data-name="패스 19628" d="M4.082,13.63H-3.332" transform="translate(9.994 46.944)" fill="none" stroke="#0093ff" stroke-linecap="round" stroke-width="1"/>
        <path id="패스_19629" data-name="패스 19629" d="M10.887,13.63H-3.332" transform="translate(3.189 50.944)" fill="none" stroke="#0093ff" stroke-linecap="round" stroke-width="1"/>
        <path id="사각형_7882" data-name="사각형 7882" d="M0,0H10a0,0,0,0,1,0,0V0A4,4,0,0,1,6,4H4A4,4,0,0,1,0,0V0A0,0,0,0,1,0,0Z" transform="translate(32.607 83.574)" fill="#0093ff"/>
      </g>
    </g>
  </g>
</svg>
