<svg xmlns="http://www.w3.org/2000/svg" width="20.003" height="20" viewBox="0 0 20.003 20">
  <g id="ico_home" transform="translate(-19 -782)">
    <rect id="사각형_20516" data-name="사각형 20516" width="20" height="20" transform="translate(19 782)" fill="#579ae5" opacity="0"/>
    <path id="빼기_1" data-name="빼기 1" d="M14000.22,9072.836h-6.5a1.047,1.047,0,0,1-1.076-1.013V9060.71c0-.429.289-.511.6-.535a1.022,1.022,0,0,1,.4-.436l8.482-4.944a.987.987,0,0,1,1.006,0l8.479,4.944a.968.968,0,0,1,.4.433c.375.027.626.13.626.538v11.112a1.047,1.047,0,0,1-1.076,1.013h-6.79v-5.961a1,1,0,0,0-1-1h-2.563a1,1,0,0,0-1,1v5.961Z" transform="translate(-13973.645 -8271.656)" fill="#579ae5"/>
  </g>
</svg>
