<svg xmlns="http://www.w3.org/2000/svg" xmlns:xlink="http://www.w3.org/1999/xlink" width="64" height="64" viewBox="0 0 64 64">
  <defs>
    <clipPath id="clip-path">
      <rect id="사각형_7202" data-name="사각형 7202" width="64" height="64" rx="32" transform="translate(16 1633)" fill="#4d3524"/>
    </clipPath>
  </defs>
  <g id="icon_theme_growth" transform="translate(-208 -229)">
    <rect id="사각형_7201" data-name="사각형 7201" width="64" height="64" rx="32" transform="translate(208 229)" fill="#113c67"/>
    <g id="마스크_그룹_4" data-name="마스크 그룹 4" transform="translate(192 -1404)" clip-path="url(#clip-path)">
      <g id="그룹_5168" data-name="그룹 5168" transform="translate(20.515 1631.536)">
        <g id="그룹_5167" data-name="그룹 5167" transform="translate(8.764 11.812)">
          <path id="패스_17756" data-name="패스 17756" d="M216.56,151.968l-.759-.435.023-.558v-7.464l1.015.008a10.089,10.089,0,0,1,4.655,1.224l1.639-3.441a14.262,14.262,0,0,0-6.317-1.522l-.992-.018v-3a.575.575,0,1,0-1.151,0v3.118l-.8.166c-4.35.9-7.275,3.984-7.275,7.66,0,3.911,3.67,6.321,7.26,8.163l.734.4.082.635v8.5l-1.052.073c-.131.008-.259.017-.4.017a13.609,13.609,0,0,1-5.81-1.467l-1.488,3.442a14.288,14.288,0,0,0,7.22,1.719c.1,0,.2-.009.3-.009l1.227-.042v2.947a.575.575,0,0,0,1.151,0V169l.8-.166c4.711-.994,7.411-3.975,7.411-8.184,0-4.341-3.995-6.921-7.474-8.687m-3.654-2.533a3.342,3.342,0,0,1-.829-2.376,3.184,3.184,0,0,1,.847-2.132l.885-.708.874-.409-.009,7.147-.919-.6Zm4.682,14.461-.8.9-.959.627v-8.841l1.094,1.01.72,1.1a4.337,4.337,0,0,1,.839,2.73,3.69,3.69,0,0,1-.89,2.474" transform="translate(-196.063 -135.369)" fill="#f37b20"/>
          <path id="패스_17757" data-name="패스 17757" d="M211.667,147.224l-.759-.435.023-.558v-7.463l1.015.008A10.083,10.083,0,0,1,216.6,140l1.639-3.441a14.26,14.26,0,0,0-6.317-1.522l-.992-.018v-3a.575.575,0,1,0-1.15,0v3.117l-.8.166c-4.351.9-7.276,3.983-7.276,7.66,0,3.911,3.671,6.321,7.26,8.163l.735.4.081.635v8.5l-1.051.073c-.132.008-.26.017-.4.017a13.622,13.622,0,0,1-5.81-1.467l-1.487,3.442a14.287,14.287,0,0,0,7.22,1.718c.1,0,.2-.008.3-.008l1.227-.043v2.947a.575.575,0,0,0,1.15,0v-3.075l.8-.167c4.711-.993,7.411-3.974,7.411-8.183,0-4.341-4-6.922-7.474-8.687m-3.654-2.533a3.339,3.339,0,0,1-.83-2.376,3.18,3.18,0,0,1,.848-2.132l.884-.708.874-.41-.009,7.147-.918-.6Zm4.682,14.461-.8.9-.96.627v-8.841l1.095,1.01.72,1.1a4.333,4.333,0,0,1,.839,2.729,3.691,3.691,0,0,1-.89,2.474" transform="translate(-191.602 -131.044)" fill="#f5b300"/>
          <path id="패스_17758" data-name="패스 17758" d="M133.373,568.506c.055,9.673,6.955,17.5,15.461,17.5s15.4-7.822,15.459-17.5Z" transform="translate(-129.916 -529.52)" fill="#f37b20"/>
          <path id="패스_17759" data-name="패스 17759" d="M133.373,568.506c.05,9.047,6.37,16.364,14.16,16.364s14.108-7.317,14.16-16.364Z" transform="translate(-129.916 -529.52)" fill="#f9bc1c"/>
          <path id="패스_17760" data-name="패스 17760" d="M144,531.306a2.506,2.506,0,0,1-2.506,2.5H111.235a2.505,2.505,0,0,1,0-5.01H141.5A2.506,2.506,0,0,1,144,531.306" transform="translate(-107.449 -493.321)" fill="#f9bc1c"/>
          <path id="패스_17761" data-name="패스 17761" d="M248.568,762.417a.729.729,0,0,1-.729.728H236.45a.728.728,0,0,1,0-1.457h11.39a.729.729,0,0,1,.729.729" transform="translate(-223.227 -705.644)" fill="#f9bc1c"/>
          <path id="패스_17762" data-name="패스 17762" d="M397.179,263.1s-8.641-1.942-9.191,6.29c2.215-2.383,6.7-4.254,6.7-4.254a34.17,34.17,0,0,0-6.665,5.134c2.283,2.733,9.7-.866,9.158-7.171" transform="translate(-362.048 -250.901)" fill="#95c83d"/>
          <path id="패스_17763" data-name="패스 17763" d="M394.411,288.228s-4.483,1.871-6.7,4.254c-.016.259-.026.528-.027.808l.06.073a34.167,34.167,0,0,1,6.664-5.134" transform="translate(-361.773 -273.991)" fill="#1a924b"/>
          <path id="패스_17764" data-name="패스 17764" d="M227.561,127.032s-.7,4.333,3.389,4.358a11.6,11.6,0,0,1-2.306-3.185,16.944,16.944,0,0,0,2.741,3.142c1.283-1.212-.721-4.775-3.824-4.315" transform="translate(-215.746 -126.992)" fill="#95c83d"/>
          <path id="패스_17765" data-name="패스 17765" d="M240.295,140.734a11.6,11.6,0,0,0,2.306,3.185c.129,0,.262,0,.4-.011l.034-.032a16.953,16.953,0,0,1-2.741-3.142" transform="translate(-227.397 -139.521)" fill="#1a924b"/>
          <path id="패스_17766" data-name="패스 17766" d="M94.23,191.969s8.561-2.267,9.422,5.938c-2.3-2.3-6.854-4-6.854-4a34.167,34.167,0,0,1,6.854,4.878c-2.178,2.817-9.73-.5-9.422-6.819" transform="translate(-94.221 -185.97)" fill="#95c83d"/>
          <path id="패스_17767" data-name="패스 17767" d="M123.408,216.919s4.551,1.7,6.854,4c.026.258.047.526.057.806-.019.026-.037.05-.058.075a34.175,34.175,0,0,0-6.854-4.878" transform="translate(-120.831 -208.978)" fill="#1a924b"/>
          <path id="패스_17768" data-name="패스 17768" d="M418.81,443.1s-3.292-4.434-7.425-1.331a18.26,18.26,0,0,1,5.256,1.1,26.834,26.834,0,0,0-5.653-.734c-.172,2.071,5.129,3.747,7.823.96" transform="translate(-383.013 -412.969)" fill="#95c83d"/>
          <path id="패스_17769" data-name="패스 17769" d="M416.682,454.249a18.261,18.261,0,0,0-5.256-1.1c-.129.1-.261.2-.392.315,0,.019,0,.037-.005.055a26.84,26.84,0,0,1,5.653.734" transform="translate(-383.055 -424.344)" fill="#1a924b"/>
          <path id="패스_17770" data-name="패스 17770" d="M140.34,290.921s4.093,1.355,5.782-2.325a16.916,16.916,0,0,1-4.158,1.545,24.87,24.87,0,0,0,4.291-1.944c-.7-1.359-5.119-.148-5.915,2.724" transform="translate(-136.268 -273.454)" fill="#95c83d"/>
          <path id="패스_17771" data-name="패스 17771" d="M158.734,295.892a16.914,16.914,0,0,0,4.158-1.545c.053-.115.1-.237.152-.362-.006-.013-.012-.025-.019-.037a24.871,24.871,0,0,1-4.291,1.944" transform="translate(-153.037 -279.206)" fill="#1a924b"/>
          <path id="패스_17772" data-name="패스 17772" d="M164.808,586.23H134.188l-.086-.838,30.793-.015Z" transform="translate(-130.58 -544.902)" fill="#f37b20"/>
        </g>
      </g>
    </g>
  </g>
</svg>
