<svg xmlns="http://www.w3.org/2000/svg" width="20" height="20" viewBox="0 0 20 20">
  <path id="search_line" data-name="search line" d="M15.787,14.39,20,18.6,18.6,20,14.39,15.787a9.127,9.127,0,0,1-2.6,1.427,8.878,8.878,0,0,1-7.4-.7A8.844,8.844,0,0,1,1.2,13.327,8.744,8.744,0,0,1,0,8.858,8.744,8.744,0,0,1,1.2,4.39,8.844,8.844,0,0,1,4.39,1.2,8.744,8.744,0,0,1,8.858,0a8.744,8.744,0,0,1,4.469,1.2A8.844,8.844,0,0,1,16.516,4.39a8.878,8.878,0,0,1,.7,7.4A9.127,9.127,0,0,1,15.787,14.39ZM13.8,13.661a6.706,6.706,0,0,0,1.447-2.215,6.885,6.885,0,0,0,.5-2.589A6.779,6.779,0,0,0,14.8,5.374a6.705,6.705,0,0,0-2.461-2.461,6.9,6.9,0,0,0-6.969,0A6.705,6.705,0,0,0,2.913,5.374a6.9,6.9,0,0,0,0,6.969A6.705,6.705,0,0,0,5.374,14.8a6.779,6.779,0,0,0,3.484.945,6.885,6.885,0,0,0,2.589-.5A6.706,6.706,0,0,0,13.661,13.8Z" fill="#579ae5"/>
</svg>
