<svg xmlns="http://www.w3.org/2000/svg" xmlns:xlink="http://www.w3.org/1999/xlink" width="64" height="64" viewBox="0 0 64 64">
  <defs>
    <clipPath id="clip-path">
      <rect id="사각형_7202" data-name="사각형 7202" width="64" height="64" rx="32" transform="translate(16 1633)" fill="#4d3524"/>
    </clipPath>
    <clipPath id="clip-path-2">
      <rect id="사각형_7425" data-name="사각형 7425" width="44.963" height="53.37" fill="none"/>
    </clipPath>
    <clipPath id="clip-path-4">
      <rect id="사각형_7420" data-name="사각형 7420" width="11.158" height="19.368" fill="none"/>
    </clipPath>
    <clipPath id="clip-path-5">
      <rect id="사각형_7421" data-name="사각형 7421" width="1.392" height="0.688" fill="none"/>
    </clipPath>
    <clipPath id="clip-path-6">
      <rect id="사각형_7422" data-name="사각형 7422" width="1.289" height="0.649" fill="none"/>
    </clipPath>
    <clipPath id="clip-path-7">
      <rect id="사각형_7423" data-name="사각형 7423" width="8.096" height="8.094" fill="none"/>
    </clipPath>
  </defs>
  <g id="icon_theme_dividend" transform="translate(-208 -229)">
    <rect id="사각형_7201" data-name="사각형 7201" width="64" height="64" rx="32" transform="translate(208 229)" fill="#113c67"/>
    <g id="마스크_그룹_4" data-name="마스크 그룹 4" transform="translate(192 -1404)" clip-path="url(#clip-path)">
      <g id="그룹_5304" data-name="그룹 5304" transform="translate(28.664 1638.315)">
        <g id="마스크_그룹_5303" data-name="마스크 그룹 5303" clip-path="url(#clip-path-2)">
          <g id="그룹_5302" data-name="그룹 5302" transform="translate(0 0)">
            <g id="그룹_5301" data-name="그룹 5301" clip-path="url(#clip-path-2)">
              <path id="패스_18073" data-name="패스 18073" d="M44.141,34.61a.673.673,0,0,1-.17-1.312,10.691,10.691,0,0,0,2.689-1.356,3.531,3.531,0,0,1-.413-.445,2.205,2.205,0,0,1-.319-2.638,1.867,1.867,0,0,1,2.027-.77,1.914,1.914,0,0,1,1.319,1.9A2.762,2.762,0,0,1,48.9,31.5a2.315,2.315,0,0,0,1.077-.2,1.917,1.917,0,0,0,1.1-2.244A.672.672,0,1,1,52.4,28.8a3.268,3.268,0,0,1-1.86,3.725,3.587,3.587,0,0,1-2.622.147,11.141,11.141,0,0,1-3.529,1.9.62.62,0,0,1-.243.032m3.37-5.239a.548.548,0,0,0-.466.235c-.166.249-.07.637.262,1.064a2.3,2.3,0,0,0,.319.333,1.556,1.556,0,0,0,.306-.947c-.011-.219-.068-.6-.337-.672a.426.426,0,0,0-.084-.013" transform="translate(-7.504 -4.834)" fill="#fcd751"/>
              <path id="패스_18074" data-name="패스 18074" d="M15.093,51.923c-.525,1.968-1.529,2.37-2.369,2.37-1.842,0-3.024-.241-3.337-2.37L9.137,47.33c0-1.842,1.745-2.213,3.587-2.213a3.335,3.335,0,0,1,3.335,3.335Z" transform="translate(-1.576 -7.782)" fill="#fcd751"/>
              <path id="패스_18075" data-name="패스 18075" d="M33.5,51.923c.524,1.968,1.528,2.37,2.369,2.37,1.842,0,3.024-.241,3.337-2.37l.251-4.594c0-1.842-1.745-2.213-3.587-2.213a3.335,3.335,0,0,0-3.336,3.335Z" transform="translate(-5.611 -7.782)" fill="#fcd751"/>
              <path id="패스_18076" data-name="패스 18076" d="M6.4,38.572a3.091,3.091,0,0,1-3.2,2.97A3.091,3.091,0,0,1,0,38.572V34.919a3.091,3.091,0,0,1,3.2-2.97,3.091,3.091,0,0,1,3.2,2.97Z" transform="translate(0 -5.511)" fill="#fcd751"/>
              <path id="패스_18077" data-name="패스 18077" d="M21.355,19.8a20.77,20.77,0,0,0-9.692,2.326L7.918,19.769a2.991,2.991,0,0,0-3.731.027c-.828.915-.18,2.461.736,3.287l2.213,2.5a12.18,12.18,0,0,0-3.349,8.229c0,7.741,7.865,14.016,17.568,14.016s17.566-6.275,17.566-14.016S31.058,19.8,21.355,19.8" transform="translate(-0.653 -3.3)" fill="#fcd751"/>
              <path id="패스_18078" data-name="패스 18078" d="M11.975,31.685a1.267,1.267,0,1,1-1.266-1.268,1.266,1.266,0,0,1,1.266,1.268" transform="translate(-1.628 -5.247)" fill="#ffa229"/>
              <path id="패스_18079" data-name="패스 18079" d="M31.509,24.6a.908.908,0,0,1-1.159.425,18.9,18.9,0,0,0-14.131,0,.907.907,0,0,1-1.158-.425.848.848,0,0,1,.5-1.143,20.613,20.613,0,0,1,15.451,0,.848.848,0,0,1,.5,1.143" transform="translate(-2.585 -3.787)" fill="#ffa229"/>
              <path id="패스_18080" data-name="패스 18080" d="M16.911,0V21.1c.409-.157.823-.3,1.243-.431q.534-.161,1.077-.29a19.114,19.114,0,0,1,9,.055c.361.092.721.2,1.076.309.42.132.835.279,1.243.443V0Z" transform="translate(-2.917 0)" fill="#aebfce"/>
              <g id="그룹_5291" data-name="그룹 5291" transform="translate(15.237 1.378)" style="mix-blend-mode: multiply;isolation: isolate">
                <g id="그룹_5290" data-name="그룹 5290">
                  <g id="그룹_5289" data-name="그룹 5289" clip-path="url(#clip-path-4)">
                    <path id="패스_18081" data-name="패스 18081" d="M18.413,1.666V20.959c.356-.107.715-.205,1.077-.29V4.171a1.485,1.485,0,0,0,.184.018,1.262,1.262,0,0,0,1.263-1.261,1.405,1.405,0,0,0-.019-.186h6.148a1.174,1.174,0,0,0-.019.186,1.261,1.261,0,0,0,1.261,1.261,1.542,1.542,0,0,0,.186-.018V20.724c.361.093.721.2,1.076.309V1.666Z" transform="translate(-18.413 -1.666)" fill="#768296"/>
                  </g>
                </g>
              </g>
              <g id="그룹_5294" data-name="그룹 5294" transform="translate(21.384 11.593)" style="mix-blend-mode: multiply;isolation: isolate">
                <g id="그룹_5293" data-name="그룹 5293">
                  <g id="그룹_5292" data-name="그룹 5292" clip-path="url(#clip-path-5)">
                    <path id="패스_18082" data-name="패스 18082" d="M26.545,14.01a.5.5,0,0,0-.41.2,2.541,2.541,0,0,0-.294.487h1.392a.794.794,0,0,0-.219-.517.647.647,0,0,0-.468-.17" transform="translate(-25.842 -14.01)" fill="#768296"/>
                  </g>
                </g>
              </g>
              <g id="그룹_5297" data-name="그룹 5297" transform="translate(18.832 12.423)" style="mix-blend-mode: multiply;isolation: isolate">
                <g id="그룹_5296" data-name="그룹 5296">
                  <g id="그룹_5295" data-name="그룹 5295" clip-path="url(#clip-path-6)">
                    <path id="패스_18083" data-name="패스 18083" d="M22.938,15.523a.632.632,0,0,0,.415.139.506.506,0,0,0,.4-.185,2.221,2.221,0,0,0,.295-.464H22.757a.674.674,0,0,0,.181.511" transform="translate(-22.757 -15.013)" fill="#768296"/>
                  </g>
                </g>
              </g>
              <g id="그룹_5300" data-name="그룹 5300" transform="translate(16.768 8.285)" style="mix-blend-mode: multiply;isolation: isolate">
                <g id="그룹_5299" data-name="그룹 5299">
                  <g id="그룹_5298" data-name="그룹 5298" clip-path="url(#clip-path-7)">
                    <path id="패스_18084" data-name="패스 18084" d="M24.31,10.012a4.047,4.047,0,1,0,4.049,4.047,4.047,4.047,0,0,0-4.049-4.047m3.56,4.478h-.688a4.225,4.225,0,0,1-.1.79,2.139,2.139,0,0,1-.186.53l-.9-.309a1.724,1.724,0,0,0,.166-.4,2.991,2.991,0,0,0,.11-.613h-1.6q-.109.243-.245.487a1.914,1.914,0,0,1-.324.43,1.48,1.48,0,0,1-.453.3,1.583,1.583,0,0,1-.629.115,1.465,1.465,0,0,1-1.056-.36,1.726,1.726,0,0,1-.486-.976h-.721v-.823h.688a3.182,3.182,0,0,1,.1-.609,3.742,3.742,0,0,1,.164-.482l.872.285a2.762,2.762,0,0,0-.127.338,2.792,2.792,0,0,0-.094.468h1.486c.074-.162.157-.328.25-.493a2.014,2.014,0,0,1,.328-.444,1.572,1.572,0,0,1,.446-.316,1.41,1.41,0,0,1,.613-.122,1.634,1.634,0,0,1,1.135.367,1.725,1.725,0,0,1,.525,1.008h.736Z" transform="translate(-20.263 -10.012)" fill="#768296"/>
                  </g>
                </g>
              </g>
              <path id="패스_18085" data-name="패스 18085" d="M38.8,51.536a6.859,6.859,0,0,0-1.457-3.813c-1.2-1.722-3.694-3-3.695-4.48s2.492-2.761,3.688-4.484a6.858,6.858,0,0,0,1.454-3.814c0-.021,0-.041,0-.061.007-.128.012-.259.013-.388,0-3.817-3.1-6.162-6.916-6.16s-6.91,2.348-6.911,6.166c0,.02,0,.038,0,.057,0,.109,0,.218.011.328,0,.028,0,.055.007.084a6.874,6.874,0,0,0,1.453,3.791c1.2,1.725,3.695,3,3.695,4.483S27.661,46,26.465,47.729a6.874,6.874,0,0,0-1.451,3.8c0,.026-.006.054-.008.082-.006.11-.007.219-.008.328,0,.019,0,.037,0,.059,0,3.814,3.1,6.16,6.916,6.158s6.91-2.349,6.91-6.168c0-.13,0-.26-.014-.388a.344.344,0,0,0,0-.059" transform="translate(-4.31 -4.888)" fill="#768296"/>
              <path id="패스_18086" data-name="패스 18086" d="M37.734,60.19c0-2.186-2.793-4.632-5.536-4.63s-5.534,2.451-5.534,4.638,2.792,2.4,5.537,2.4,5.534-.223,5.533-2.411" transform="translate(-4.599 -9.584)" fill="#ffa229"/>
              <path id="패스_18087" data-name="패스 18087" d="M33.125,44.166c0-1.226,1.034-2.165,2.135-3.159a11.078,11.078,0,0,0,1.685-1.751l.025-.035a6.063,6.063,0,0,0,1-1.886l-11.707.007a6.186,6.186,0,0,0,1,1.879l.026.036a11.123,11.123,0,0,0,1.691,1.751c1.1.993,2.137,1.931,2.138,3.159a1,1,0,0,0,2,0" transform="translate(-4.531 -6.44)" fill="#ffa229"/>
              <path id="패스_18088" data-name="패스 18088" d="M32.651,54.25a3.647,3.647,0,0,1-.631-.1,1.45,1.45,0,0,1-.42-.176l.262-.837a.928.928,0,0,0,.319.165,2.493,2.493,0,0,0,.473.105l.008-1.688c-.132-.079-.262-.174-.391-.263a1.988,1.988,0,0,1-.343-.334,1.488,1.488,0,0,1-.242-.448,1.534,1.534,0,0,1-.1-.595,1.437,1.437,0,0,1,.295-.949,1.355,1.355,0,0,1,.793-.453l0-.711.736.016,0,.679a2.253,2.253,0,0,1,.475.091,2.325,2.325,0,0,1,.4.146l-.263.8a1.44,1.44,0,0,0-.268-.122,2.4,2.4,0,0,0-.343-.078l-.01,1.527a3.516,3.516,0,0,1,.4.276,1.605,1.605,0,0,1,.353.343,1.65,1.65,0,0,1,.255.44,1.588,1.588,0,0,1,.1.585,1.634,1.634,0,0,1-.307,1.037,1.38,1.38,0,0,1-.814.5l0,.723-.733-.008ZM33,49.48a.478.478,0,0,0-.383.2.609.609,0,0,0-.1.344.639.639,0,0,0,.135.419,2.561,2.561,0,0,0,.346.316Zm.074,3.927a.549.549,0,0,0,.371-.223.767.767,0,0,0,.127-.439.675.675,0,0,0-.137-.436,1.349,1.349,0,0,0-.354-.319Z" transform="translate(-5.449 -8.273)" fill="#ffa229"/>
              <path id="패스_18089" data-name="패스 18089" d="M39.978,62.317a1.529,1.529,0,0,0-1.532-1.529l-13.675.007a1.53,1.53,0,1,0,0,3.061l13.677-.007a1.531,1.531,0,0,0,1.529-1.532" transform="translate(-4.008 -10.485)" fill="#253545"/>
              <path id="패스_18090" data-name="패스 18090" d="M39.941,29.735a1.53,1.53,0,0,0-1.533-1.528l-13.676.007a1.53,1.53,0,1,0,0,3.06l13.676-.007a1.532,1.532,0,0,0,1.53-1.533" transform="translate(-4.002 -4.865)" fill="#1c3f62"/>
            </g>
          </g>
        </g>
      </g>
    </g>
  </g>
</svg>
