<svg xmlns="http://www.w3.org/2000/svg" xmlns:xlink="http://www.w3.org/1999/xlink" width="64" height="64" viewBox="0 0 64 64">
  <defs>
    <clipPath id="clip-path">
      <rect id="사각형_7202" data-name="사각형 7202" width="64" height="64" rx="32" transform="translate(16 1633)" fill="#4d3524"/>
    </clipPath>
    <clipPath id="clip-path-2">
      <rect id="사각형_7431" data-name="사각형 7431" width="67" height="59.26" transform="translate(0 0)" fill="none"/>
    </clipPath>
  </defs>
  <g id="icon_theme_market" transform="translate(-208 -229)">
    <rect id="사각형_7201" data-name="사각형 7201" width="64" height="64" rx="32" transform="translate(208 229)" fill="#113c67"/>
    <g id="마스크_그룹_4" data-name="마스크 그룹 4" transform="translate(192 -1404)" clip-path="url(#clip-path)">
      <g id="그룹_5306" data-name="그룹 5306" transform="translate(7.086 1659.085)">
        <g id="그룹_5305" data-name="그룹 5305" transform="translate(20 -17.964)" clip-path="url(#clip-path-2)">
          <path id="패스_18091" data-name="패스 18091" d="M16.127,23.586c-.019.392-.268.7-.557.681L12.8,24.128c-.291-.016-.507-.344-.487-.736l.112-2.226c.021-.393.273-.7.562-.683l2.763.139c.287.015.507.342.486.736Z" transform="translate(0.185 0.308)" fill="#aebfce"/>
          <path id="패스_18092" data-name="패스 18092" d="M15.041,44.927c.02-.393-.2-.723-.486-.735l-2.765-.138c-.288-.017-.54.29-.56.68l-.111,2.229c-.02.39.195.719.485.735l2.768.137c.288.016.537-.288.556-.679Z" transform="translate(0.167 0.663)" fill="#aebfce"/>
          <path id="패스_18093" data-name="패스 18093" d="M10.517,23.787a.634.634,0,0,1-.144.867L7.908,25.915a.638.638,0,0,1-.789-.392L6.1,23.536a.641.641,0,0,1,.14-.87L8.71,21.408a.632.632,0,0,1,.789.39Z" transform="translate(0.09 0.322)" fill="#aebfce"/>
          <path id="패스_18094" data-name="패스 18094" d="M20.249,42.811a.637.637,0,0,0-.789-.4L17,43.676a.64.64,0,0,0-.147.872l1.017,1.984a.639.639,0,0,0,.792.394l2.464-1.261a.642.642,0,0,0,.143-.873Z" transform="translate(0.252 0.638)" fill="#aebfce"/>
          <path id="패스_18095" data-name="패스 18095" d="M5.75,26.761a.64.64,0,0,1,.315.823L4.557,29.91a.64.64,0,0,1-.882.055L1.807,28.752a.635.635,0,0,1-.31-.824L3,25.6a.636.636,0,0,1,.878-.054Z" transform="translate(0.022 0.383)" fill="#aebfce"/>
          <path id="패스_18096" data-name="패스 18096" d="M23.689,38.369a.635.635,0,0,0-.877.055l-1.5,2.325a.635.635,0,0,0,.31.825l1.873,1.211a.64.64,0,0,0,.883-.055l1.5-2.323a.632.632,0,0,0-.309-.824Z" transform="translate(0.32 0.576)" fill="#aebfce"/>
          <path id="패스_18097" data-name="패스 18097" d="M3.1,31.713c.393.02.7.27.686.558l-.144,2.765c-.013.289-.343.507-.731.487L.681,35.411c-.392-.021-.7-.271-.681-.561l.139-2.761c.016-.291.343-.508.736-.487Z" transform="translate(0 0.476)" fill="#aebfce"/>
          <path id="패스_18098" data-name="패스 18098" d="M24.447,32.8c-.393-.02-.724.2-.737.486l-.14,2.763c-.015.289.29.542.684.559l2.226.115c.393.018.721-.2.736-.488l.14-2.764c.016-.29-.292-.539-.682-.56Z" transform="translate(0.355 0.494)" fill="#aebfce"/>
          <path id="패스_18099" data-name="패스 18099" d="M3.3,37.334a.639.639,0,0,1,.869.141l1.261,2.466a.637.637,0,0,1-.393.79L3.054,41.747a.64.64,0,0,1-.871-.144L.924,39.139a.639.639,0,0,1,.393-.79Z" transform="translate(0.013 0.561)" fill="#aebfce"/>
          <path id="패스_18100" data-name="패스 18100" d="M22.327,27.6a.639.639,0,0,0-.393.789L23.2,30.854a.636.636,0,0,0,.87.144l1.986-1.015a.637.637,0,0,0,.392-.79l-1.261-2.465a.637.637,0,0,0-.87-.143Z" transform="translate(0.329 0.399)" fill="#aebfce"/>
          <path id="패스_18101" data-name="패스 18101" d="M6.278,42.1a.641.641,0,0,1,.826-.313l2.323,1.5a.639.639,0,0,1,.055.883L8.27,46.049a.636.636,0,0,1-.825.308l-2.323-1.5a.637.637,0,0,1-.055-.878Z" transform="translate(0.074 0.628)" fill="#aebfce"/>
          <path id="패스_18102" data-name="패스 18102" d="M17.887,24.16a.636.636,0,0,0,.057.88l2.325,1.5a.633.633,0,0,0,.822-.31L22.3,24.36a.64.64,0,0,0-.055-.88l-2.323-1.5a.644.644,0,0,0-.828.31Z" transform="translate(0.267 0.33)" fill="#aebfce"/>
          <path id="패스_18103" data-name="패스 18103" d="M14.415,22.651A11.668,11.668,0,1,0,25.474,34.9,11.667,11.667,0,0,0,14.415,22.651m-.981,19.324a7.681,7.681,0,1,1,8.061-7.281,7.681,7.681,0,0,1-8.061,7.281" transform="translate(0.032 0.341)" fill="#768296"/>
          <path id="패스_18104" data-name="패스 18104" d="M18.55,2.022c-.011.255-.174.454-.362.445l-1.8-.091c-.189-.011-.331-.223-.318-.479L16.141.446c.012-.257.177-.455.364-.445l1.8.09c.187.009.329.222.316.479Z" transform="translate(0.242 0)" fill="#aebfce"/>
          <path id="패스_18105" data-name="패스 18105" d="M17.844,15.927c.012-.254-.131-.469-.319-.479l-1.8-.089c-.188-.011-.353.189-.364.444l-.073,1.453c-.012.254.127.469.317.478l1.8.091c.188.01.351-.189.362-.443Z" transform="translate(0.23 0.231)" fill="#aebfce"/>
          <path id="패스_18106" data-name="패스 18106" d="M14.894,2.152a.413.413,0,0,1-.093.566l-1.6.821a.42.42,0,0,1-.515-.257l-.662-1.3a.417.417,0,0,1,.091-.565L13.718.6a.414.414,0,0,1,.514.256Z" transform="translate(0.18 0.009)" fill="#aebfce"/>
          <path id="패스_18107" data-name="패스 18107" d="M21.237,14.55a.416.416,0,0,0-.515-.259l-1.6.822a.418.418,0,0,0-.1.567l.663,1.3a.419.419,0,0,0,.517.256l1.606-.822a.416.416,0,0,0,.092-.567Z" transform="translate(0.285 0.215)" fill="#aebfce"/>
          <path id="패스_18108" data-name="패스 18108" d="M11.79,4.091a.416.416,0,0,1,.2.538l-.981,1.514a.418.418,0,0,1-.575.036L9.221,5.388a.414.414,0,0,1-.2-.537L10,3.335a.417.417,0,0,1,.572-.035Z" transform="translate(0.135 0.048)" fill="#aebfce"/>
          <path id="패스_18109" data-name="패스 18109" d="M23.481,11.655a.417.417,0,0,0-.572.036l-.981,1.515a.415.415,0,0,0,.2.539l1.22.788a.42.42,0,0,0,.577-.036l.975-1.513a.415.415,0,0,0-.2-.538Z" transform="translate(0.329 0.174)" fill="#aebfce"/>
          <path id="패스_18110" data-name="패스 18110" d="M10.064,7.318c.256.013.457.178.445.365l-.091,1.8c-.009.188-.224.331-.477.319L8.487,9.729c-.256-.014-.455-.177-.445-.365l.091-1.8c.009-.189.223-.33.479-.318Z" transform="translate(0.121 0.109)" fill="#aebfce"/>
          <path id="패스_18111" data-name="패스 18111" d="M23.973,8.026c-.257-.014-.472.127-.48.316l-.09,1.8c-.011.189.187.355.444.364l1.453.076c.254.012.469-.131.478-.32l.091-1.8c.01-.188-.19-.35-.445-.365Z" transform="translate(0.352 0.121)" fill="#aebfce"/>
          <path id="패스_18112" data-name="패스 18112" d="M10.2,10.982a.417.417,0,0,1,.567.091l.819,1.606a.417.417,0,0,1-.256.516l-1.3.662a.417.417,0,0,1-.567-.093l-.818-1.606a.41.41,0,0,1,.256-.514Z" transform="translate(0.13 0.164)" fill="#aebfce"/>
          <path id="패스_18113" data-name="패스 18113" d="M22.591,4.638a.419.419,0,0,0-.256.516l.821,1.6a.418.418,0,0,0,.566.1l1.3-.663a.417.417,0,0,0,.255-.516l-.82-1.6a.415.415,0,0,0-.567-.094Z" transform="translate(0.336 0.059)" fill="#aebfce"/>
          <path id="패스_18114" data-name="패스 18114" d="M12.133,14.087a.417.417,0,0,1,.538-.2l1.514.98a.418.418,0,0,1,.037.575l-.791,1.222a.418.418,0,0,1-.54.2l-1.511-.979a.414.414,0,0,1-.037-.572Z" transform="translate(0.169 0.209)" fill="#aebfce"/>
          <path id="패스_18115" data-name="패스 18115" d="M19.7,2.395a.417.417,0,0,0,.037.575l1.514.98a.415.415,0,0,0,.537-.2l.79-1.222a.415.415,0,0,0-.036-.572L21.028.973a.421.421,0,0,0-.541.2Z" transform="translate(0.295 0.014)" fill="#aebfce"/>
          <path id="패스_18116" data-name="패스 18116" d="M17.434,1.413a7.6,7.6,0,1,0,7.207,7.979,7.6,7.6,0,0,0-7.207-7.979m-.639,12.594a5.007,5.007,0,1,1,5.254-4.746,5.008,5.008,0,0,1-5.254,4.746" transform="translate(0.142 0.021)" fill="#768296"/>
          <path id="패스_18130" data-name="패스 18130" d="M18.183,29.362l12.27-7.679L19.08,12.709a14.477,14.477,0,0,0-.9,16.653" transform="translate(0.24 0.191)" fill="#fcd751"/>
          <path id="패스_18131" data-name="패스 18131" d="M25.821,3.938l5.408,13.429L41.751,7.432A14.333,14.333,0,0,0,40.2,5.993,14.47,14.47,0,0,0,25.821,3.938" transform="translate(0.389 0.044)" fill="#126fbe"/>
          <path id="패스_18132" data-name="패스 18132" d="M21.445,32.924A14.4,14.4,0,0,0,31.6,35.979L30.42,21.55,18.15,29.229a14.431,14.431,0,0,0,3.295,3.695" transform="translate(0.273 0.325)" fill="#1c4670"/>
          <path id="패스_18133" data-name="패스 18133" d="M19.034,12.775l11.373,8.974L25,8.32a14.406,14.406,0,0,0-5.963,4.455" transform="translate(0.286 0.125)" fill="#aebfce"/>
          <path id="패스_18134" data-name="패스 18134" d="M30.238,21.7l13.925,3.962a14.5,14.5,0,0,0-3.4-13.9Z" transform="translate(0.455 0.177)" fill="#aebfce"/>
          <path id="패스_18135" data-name="패스 18135" d="M30.238,21.55l1.176,14.429A14.551,14.551,0,0,0,36.2,34.746a14.4,14.4,0,0,0,7.964-9.234Z" transform="translate(0.455 0.325)" fill="#ffa229"/>
        </g>
      </g>
    </g>
  </g>
</svg>
