<svg xmlns="http://www.w3.org/2000/svg" xmlns:xlink="http://www.w3.org/1999/xlink" width="64" height="64" viewBox="0 0 64 64">
  <defs>
    <clipPath id="clip-path">
      <rect id="사각형_7202" data-name="사각형 7202" width="64" height="64" rx="32" transform="translate(16 1633)" fill="#4d3524"/>
    </clipPath>
    <clipPath id="clip-path-2">
      <rect id="사각형_7408" data-name="사각형 7408" width="36.064" height="64.475" fill="none"/>
    </clipPath>
  </defs>
  <g id="icon_theme_tech" transform="translate(-208 -229)">
    <rect id="사각형_7201" data-name="사각형 7201" width="64" height="64" rx="32" transform="translate(208 229)" fill="#113c67"/>
    <g id="마스크_그룹_4" data-name="마스크 그룹 4" transform="translate(192 -1404)" clip-path="url(#clip-path)">
      <g id="그룹_5287" data-name="그룹 5287" transform="translate(29.968 1638.524)">
        <g id="그룹_5287-2" data-name="그룹 5287" transform="translate(0 0)" clip-path="url(#clip-path-2)">
          <path id="패스_18030" data-name="패스 18030" d="M26.892,54.847a4.034,4.034,0,1,1-4.034-4.034,4.034,4.034,0,0,1,4.034,4.034" transform="translate(-1.815 -4.9)" fill="#fcd751"/>
          <path id="패스_18031" data-name="패스 18031" d="M26.285,54.919a3.355,3.355,0,1,1-3.355-3.352,3.353,3.353,0,0,1,3.355,3.352" transform="translate(-1.887 -4.972)" fill="#ffa229"/>
          <path id="패스_18032" data-name="패스 18032" d="M25.719,54.987A2.72,2.72,0,1,1,23,52.267a2.721,2.721,0,0,1,2.722,2.72" transform="translate(-1.955 -5.04)" fill="#fcd751"/>
          <path id="패스_18033" data-name="패스 18033" d="M22.918,56.772a2.543,2.543,0,0,1-.477-.058,1.329,1.329,0,0,1-.316-.11l.184-.546a.979.979,0,0,0,.24.1,1.8,1.8,0,0,0,.369.065v-.963c-.1-.043-.2-.092-.294-.146a1.148,1.148,0,0,1-.258-.194.877.877,0,0,1-.183-.274.929.929,0,0,1-.069-.377.875.875,0,0,1,.216-.634,1.024,1.024,0,0,1,.587-.292v-.434h.493v.414a2.057,2.057,0,0,1,.366.056,2.288,2.288,0,0,1,.288.1L23.9,54a1.465,1.465,0,0,0-.205-.075,1.324,1.324,0,0,0-.279-.057v.891c.1.044.2.095.3.15a1.3,1.3,0,0,1,.267.2.952.952,0,0,1,.189.268.85.85,0,0,1,.074.368.982.982,0,0,1-.221.682,1.048,1.048,0,0,1-.6.314v.443h-.493Zm-.184-2.557a.305.305,0,0,0,.109.24,1.327,1.327,0,0,0,.278.175v-.773a.407.407,0,0,0-.306.108.377.377,0,0,0-.081.248m.886,1.6a.3.3,0,0,0-.123-.247,1.342,1.342,0,0,0-.291-.176v.835a.481.481,0,0,0,.311-.13.4.4,0,0,0,.1-.282" transform="translate(-2.132 -5.102)" fill="#ffa229"/>
          <path id="패스_18034" data-name="패스 18034" d="M23.086,49.579A3.377,3.377,0,1,1,19.71,46.2a3.377,3.377,0,0,1,3.377,3.378" transform="translate(-1.575 -4.455)" fill="#fcd751"/>
          <path id="패스_18035" data-name="패스 18035" d="M22.579,49.64a2.808,2.808,0,1,1-2.808-2.807,2.808,2.808,0,0,1,2.808,2.807" transform="translate(-1.636 -4.516)" fill="#ffa229"/>
          <path id="패스_18036" data-name="패스 18036" d="M22.106,49.7a2.277,2.277,0,1,1-2.279-2.278A2.278,2.278,0,0,1,22.106,49.7" transform="translate(-1.692 -4.572)" fill="#fcd751"/>
          <path id="패스_18037" data-name="패스 18037" d="M19.76,51.19a2.014,2.014,0,0,1-.4-.048,1.094,1.094,0,0,1-.267-.093l.155-.455a.8.8,0,0,0,.2.084,1.4,1.4,0,0,0,.308.055v-.806a2.611,2.611,0,0,1-.247-.123,1.063,1.063,0,0,1-.217-.163.771.771,0,0,1-.152-.229.81.81,0,0,1-.058-.316.731.731,0,0,1,.182-.53.861.861,0,0,1,.492-.245v-.363h.412V48.3a1.709,1.709,0,0,1,.307.047,1.9,1.9,0,0,1,.242.083l-.143.438a1.283,1.283,0,0,0-.173-.063,1.242,1.242,0,0,0-.234-.048v.747c.081.037.165.08.249.125a1.048,1.048,0,0,1,.221.165.764.764,0,0,1,.16.225.724.724,0,0,1,.062.307.82.82,0,0,1-.186.571.878.878,0,0,1-.507.264v.37H19.76Zm-.155-2.14a.255.255,0,0,0,.091.2,1.161,1.161,0,0,0,.233.147v-.647a.335.335,0,0,0-.257.09.312.312,0,0,0-.068.209m.742,1.337a.25.25,0,0,0-.1-.206A1.164,1.164,0,0,0,20,50.034v.7a.4.4,0,0,0,.26-.109.329.329,0,0,0,.086-.236" transform="translate(-1.84 -4.624)" fill="#ffa229"/>
          <path id="패스_18038" data-name="패스 18038" d="M11.093,27.017s1.647,4.627-4.912,7.008S1.953,49.333,4.928,53.687s3.994-7.975,5.58-10.313c1.962-2.894,8.531-2.187,8.531-2.187V27.364Z" transform="translate(-0.19 -2.605)" fill="#aebfce"/>
          <path id="패스_18039" data-name="패스 18039" d="M26.539,27.017s-1.647,4.627,4.912,7.008,4.23,15.308,1.254,19.662-3.994-7.975-5.58-10.313c-1.963-2.894-8.531-2.187-8.531-2.187V27.364Z" transform="translate(-1.793 -2.605)" fill="#aebfce"/>
          <path id="패스_18040" data-name="패스 18040" d="M27.131,22.756a9.877,9.877,0,1,0-16.911,0c2.668,4.771,3.21,5.912,3.24,8.092.053,3.265,0,5.87,0,5.87H23.886s-.047-2.605,0-5.87c.034-2.18.576-3.322,3.245-8.092" transform="translate(-0.848 -0.75)" fill="#fcd751"/>
          <path id="패스_18041" data-name="패스 18041" d="M19.332,41.458h-3.7c.55,2.985,3.7,2.985,3.7,2.985s3.155,0,3.7-2.985Z" transform="translate(-1.507 -3.998)" fill="#1c4670"/>
          <path id="패스_18042" data-name="패스 18042" d="M25.733,35.906a1.713,1.713,0,0,1-1.715,1.714H14a1.715,1.715,0,0,1,0-3.429H24.018a1.714,1.714,0,0,1,1.715,1.715" transform="translate(-1.185 -3.297)" fill="#1c4670"/>
          <path id="패스_18043" data-name="패스 18043" d="M25.253,35.569a1.487,1.487,0,0,1-1.579,1.379H14.463a1.391,1.391,0,1,1,0-2.757h9.211a1.489,1.489,0,0,1,1.579,1.378" transform="translate(-1.242 -3.297)" fill="#1c4670"/>
          <path id="패스_18044" data-name="패스 18044" d="M25.733,39.625a1.714,1.714,0,0,1-1.715,1.716H14a1.715,1.715,0,0,1,0-3.431H24.018a1.714,1.714,0,0,1,1.715,1.715" transform="translate(-1.185 -3.656)" fill="#1c4670"/>
          <path id="패스_18045" data-name="패스 18045" d="M19.886,0a.677.677,0,0,1,.675.677V4.62a.676.676,0,0,1-1.353,0V.677A.677.677,0,0,1,19.886,0" transform="translate(-1.852 0)" fill="#ffa229"/>
          <path id="패스_18046" data-name="패스 18046" d="M10,2.566a.673.673,0,0,1,.921.247l1.973,3.415a.674.674,0,1,1-1.168.674L9.752,3.488A.678.678,0,0,1,10,2.566" transform="translate(-0.932 -0.239)" fill="#ffa229"/>
          <path id="패스_18047" data-name="패스 18047" d="M2.72,9.729a.679.679,0,0,1,.924-.247L7.06,11.453a.676.676,0,0,1-.676,1.17L2.97,10.651a.677.677,0,0,1-.249-.922" transform="translate(-0.254 -0.906)" fill="#ffa229"/>
          <path id="패스_18048" data-name="패스 18048" d="M0,19.573A.676.676,0,0,1,.676,18.9H4.619a.675.675,0,0,1,0,1.351H.676A.675.675,0,0,1,0,19.573" transform="translate(0 -1.822)" fill="#ffa229"/>
          <path id="패스_18049" data-name="패스 18049" d="M2.566,29.246a.677.677,0,0,1,.247-.923l3.415-1.971A.675.675,0,0,1,6.9,27.522L3.49,29.492a.675.675,0,0,1-.923-.246" transform="translate(-0.239 -2.533)" fill="#ffa229"/>
          <path id="패스_18050" data-name="패스 18050" d="M29.56,2.566a.677.677,0,0,0-.923.247l-1.97,3.415a.675.675,0,0,0,1.17.674l1.971-3.414a.674.674,0,0,0-.248-.922" transform="translate(-2.562 -0.239)" fill="#ffa229"/>
          <path id="패스_18051" data-name="패스 18051" d="M36.685,9.729a.676.676,0,0,0-.922-.247l-3.416,1.971a.676.676,0,1,0,.678,1.17l3.413-1.973a.675.675,0,0,0,.248-.922" transform="translate(-3.086 -0.906)" fill="#ffa229"/>
          <path id="패스_18052" data-name="패스 18052" d="M39.347,19.573a.675.675,0,0,0-.676-.676h-3.94a.675.675,0,1,0,0,1.351h3.94a.674.674,0,0,0,.676-.675" transform="translate(-3.284 -1.822)" fill="#ffa229"/>
          <path id="패스_18053" data-name="패스 18053" d="M36.839,29.246a.676.676,0,0,0-.247-.923l-3.414-1.971a.675.675,0,1,0-.675,1.169l3.413,1.97a.674.674,0,0,0,.923-.246" transform="translate(-3.101 -2.533)" fill="#ffa229"/>
          <path id="패스_18054" data-name="패스 18054" d="M25.253,39.291a1.489,1.489,0,0,1-1.579,1.379H14.463a1.392,1.392,0,1,1,0-2.76h9.211a1.49,1.49,0,0,1,1.579,1.381" transform="translate(-1.242 -3.656)" fill="#1c4670"/>
          <path id="패스_18055" data-name="패스 18055" d="M25.722,63.788a6.237,6.237,0,1,1-6.237-6.238,6.236,6.236,0,0,1,6.237,6.238" transform="translate(-1.277 -5.549)" fill="#fcd751"/>
          <path id="패스_18056" data-name="패스 18056" d="M24.785,63.9A5.186,5.186,0,1,1,19.6,58.717,5.187,5.187,0,0,1,24.785,63.9" transform="translate(-1.39 -5.662)" fill="#ffa229"/>
          <path id="패스_18057" data-name="패스 18057" d="M23.91,64.005A4.207,4.207,0,1,1,19.7,59.8a4.209,4.209,0,0,1,4.208,4.207" transform="translate(-1.494 -5.766)" fill="#fcd751"/>
          <path id="패스_18058" data-name="패스 18058" d="M19.577,66.764a3.829,3.829,0,0,1-.735-.089,2.05,2.05,0,0,1-.492-.171l.286-.841a1.6,1.6,0,0,0,.372.155,2.635,2.635,0,0,0,.568.1V64.43c-.153-.067-.3-.144-.452-.227a1.8,1.8,0,0,1-.4-.3,1.431,1.431,0,0,1-.284-.422,1.508,1.508,0,0,1-.1-.585,1.352,1.352,0,0,1,.334-.979,1.587,1.587,0,0,1,.906-.452V60.8h.764v.639a3.124,3.124,0,0,1,.566.087,3.684,3.684,0,0,1,.446.155l-.263.809a2.618,2.618,0,0,0-.317-.117,2.249,2.249,0,0,0-.432-.088v1.38q.228.1.458.23a1.936,1.936,0,0,1,.41.3,1.452,1.452,0,0,1,.295.415,1.328,1.328,0,0,1,.115.568,1.516,1.516,0,0,1-.342,1.054,1.621,1.621,0,0,1-.935.489V67.4h-.764Zm-.285-3.952a.465.465,0,0,0,.17.37,2.016,2.016,0,0,0,.432.273V62.26a.627.627,0,0,0-.474.167.577.577,0,0,0-.127.385m1.372,2.47a.466.466,0,0,0-.188-.382,2.229,2.229,0,0,0-.451-.271v1.29a.745.745,0,0,0,.48-.2.611.611,0,0,0,.159-.436" transform="translate(-1.768 -5.862)" fill="#ffa229"/>
          <path id="패스_18059" data-name="패스 18059" d="M26.765,18.058a7.878,7.878,0,1,1-7.877-7.879,7.875,7.875,0,0,1,7.877,7.879" transform="translate(-1.061 -0.982)" fill="#fcd751"/>
          <path id="패스_18060" data-name="패스 18060" d="M25.581,18.2a6.55,6.55,0,1,1-6.551-6.548A6.55,6.55,0,0,1,25.581,18.2" transform="translate(-1.203 -1.124)" fill="#ffa229"/>
          <path id="패스_18061" data-name="패스 18061" d="M24.476,18.332a5.314,5.314,0,1,1-5.315-5.314,5.316,5.316,0,0,1,5.315,5.314" transform="translate(-1.335 -1.256)" fill="#fcd751"/>
          <path id="패스_18062" data-name="패스 18062" d="M19,21.818a4.724,4.724,0,0,1-.927-.112,2.519,2.519,0,0,1-.621-.217l.361-1.062a1.951,1.951,0,0,0,.47.2,3.328,3.328,0,0,0,.717.127v-1.88c-.192-.085-.381-.182-.57-.287a2.279,2.279,0,0,1-.505-.379,1.738,1.738,0,0,1-.358-.533,1.862,1.862,0,0,1-.133-.739,1.7,1.7,0,0,1,.421-1.237A2.015,2.015,0,0,1,19,15.126v-.847h.965v.807a4.07,4.07,0,0,1,.714.11,4.6,4.6,0,0,1,.566.2l-.333,1.022a3.37,3.37,0,0,0-.4-.147,2.785,2.785,0,0,0-.546-.11V17.9c.191.086.387.183.58.292a2.431,2.431,0,0,1,.518.384,1.861,1.861,0,0,1,.372.525,1.678,1.678,0,0,1,.144.717,1.909,1.909,0,0,1-.433,1.332,2.04,2.04,0,0,1-1.181.618v.862H19Zm-.361-4.993a.6.6,0,0,0,.215.468,2.576,2.576,0,0,0,.546.344V16.129a.8.8,0,0,0-.6.211.733.733,0,0,0-.162.485m1.733,3.122a.59.59,0,0,0-.239-.483,2.849,2.849,0,0,0-.569-.342v1.63a.934.934,0,0,0,.606-.254.765.765,0,0,0,.2-.55" transform="translate(-1.681 -1.377)" fill="#ffa229"/>
          <path id="패스_18063" data-name="패스 18063" d="M21.155,56.271a4.695,4.695,0,1,1-4.694-4.7,4.694,4.694,0,0,1,4.694,4.7" transform="translate(-1.134 -4.973)" fill="#fcd751"/>
          <path id="패스_18064" data-name="패스 18064" d="M20.45,56.356a3.9,3.9,0,1,1-3.9-3.9,3.9,3.9,0,0,1,3.9,3.9" transform="translate(-1.219 -5.058)" fill="#ffa229"/>
          <path id="패스_18065" data-name="패스 18065" d="M19.791,56.434a3.166,3.166,0,1,1-3.167-3.167,3.167,3.167,0,0,1,3.167,3.167" transform="translate(-1.298 -5.136)" fill="#fcd751"/>
          <path id="패스_18066" data-name="패스 18066" d="M16.53,58.512a2.834,2.834,0,0,1-.554-.067,1.533,1.533,0,0,1-.369-.128l.214-.634a1.15,1.15,0,0,0,.281.117,2.046,2.046,0,0,0,.427.076v-1.12c-.115-.052-.228-.108-.34-.172a1.372,1.372,0,0,1-.3-.226,1.065,1.065,0,0,1-.214-.318,1.133,1.133,0,0,1-.078-.44,1.015,1.015,0,0,1,.251-.737,1.194,1.194,0,0,1,.682-.34v-.5h.575V54.5a2.336,2.336,0,0,1,.426.065,2.538,2.538,0,0,1,.337.117l-.2.608a1.737,1.737,0,0,0-.239-.087,1.626,1.626,0,0,0-.325-.067v1.038c.113.052.229.11.345.174a1.457,1.457,0,0,1,.309.229,1.1,1.1,0,0,1,.222.313,1.012,1.012,0,0,1,.086.427,1.137,1.137,0,0,1-.258.794,1.225,1.225,0,0,1-.7.368v.513H16.53Zm-.216-2.975a.353.353,0,0,0,.129.279,1.615,1.615,0,0,0,.324.205v-.9a.467.467,0,0,0-.356.126.436.436,0,0,0-.1.289m1.034,1.86a.349.349,0,0,0-.142-.287,1.674,1.674,0,0,0-.34-.205v.971a.563.563,0,0,0,.362-.152.458.458,0,0,0,.119-.327" transform="translate(-1.504 -5.209)" fill="#ffa229"/>
        </g>
      </g>
    </g>
  </g>
</svg>
