<svg xmlns="http://www.w3.org/2000/svg" xmlns:xlink="http://www.w3.org/1999/xlink" width="64" height="64" viewBox="0 0 64 64">
  <defs>
    <clipPath id="clip-path">
      <rect id="사각형_7202" data-name="사각형 7202" width="64" height="64" rx="32" transform="translate(16 1633)" fill="#4d3524"/>
    </clipPath>
    <clipPath id="clip-path-2">
      <rect id="사각형_7442" data-name="사각형 7442" width="51.016" height="42.087" fill="none"/>
    </clipPath>
  </defs>
  <g id="icon_theme_bio" transform="translate(-208 -229)">
    <rect id="사각형_7201" data-name="사각형 7201" width="64" height="64" rx="32" transform="translate(208 229)" fill="#113c67"/>
    <g id="마스크_그룹_4" data-name="마스크 그룹 4" transform="translate(192 -1404)" clip-path="url(#clip-path)">
      <g id="그룹_5308" data-name="그룹 5308" transform="translate(22.492 1643.957)">
        <g id="그룹_5307" data-name="그룹 5307" clip-path="url(#clip-path-2)">
          <path id="패스_18136" data-name="패스 18136" d="M15.552,4.6a.4.4,0,0,0,.221.513l1.708.391c.179.041.366-.119.424-.363l.316-1.374A.406.406,0,0,0,18,3.254L16.291,2.86c-.179-.038-.366.122-.422.363Z" transform="translate(-3.575 -0.657)" fill="#aebfce"/>
          <path id="패스_18137" data-name="패스 18137" d="M11.453,22.414c.053-.241.242-.4.421-.364l1.708.394a.406.406,0,0,1,.221.512l-.316,1.377c-.056.239-.246.4-.425.362L11.355,24.3a.4.4,0,0,1-.222-.51Z" transform="translate(-2.558 -5.073)" fill="#aebfce"/>
          <path id="패스_18138" data-name="패스 18138" d="M19.976,6.212a.4.4,0,0,0-.062.554l1.28,1.195a.406.406,0,0,0,.55-.1l.962-1.032a.4.4,0,0,0,.064-.555l-1.281-1.2a.406.406,0,0,0-.55.1Z" transform="translate(-4.563 -1.152)" fill="#aebfce"/>
          <path id="패스_18139" data-name="패스 18139" d="M7.515,19.589a.408.408,0,0,1,.55-.105l1.283,1.2a.4.4,0,0,1-.063.553l-.962,1.032a.4.4,0,0,1-.548.1L6.49,21.176a.4.4,0,0,1,.064-.554Z" transform="translate(-1.474 -4.468)" fill="#aebfce"/>
          <path id="패스_18140" data-name="패스 18140" d="M23.055,9.929c-.237.073-.384.274-.332.449l.514,1.677a.407.407,0,0,0,.528.183l1.35-.412c.236-.072.386-.272.33-.45L24.934,9.7a.4.4,0,0,0-.526-.185Z" transform="translate(-5.227 -2.184)" fill="#aebfce"/>
          <path id="패스_18141" data-name="패스 18141" d="M5.579,15.284a.4.4,0,0,1,.525.186l.513,1.674c.053.177-.095.378-.333.45l-1.349.413a.4.4,0,0,1-.526-.186L3.9,16.146c-.055-.174.094-.374.329-.447Z" transform="translate(-0.894 -3.511)" fill="#aebfce"/>
          <path id="패스_18142" data-name="패스 18142" d="M23.863,14.645a.41.41,0,0,0-.515.221l-.392,1.71c-.041.178.121.366.363.422l1.377.318a.408.408,0,0,0,.513-.222l.393-1.709c.04-.177-.121-.366-.363-.421Z" transform="translate(-5.281 -3.367)" fill="#aebfce"/>
          <path id="패스_18143" data-name="패스 18143" d="M6.047,10.546c.24.053.4.244.364.421l-.393,1.708A.406.406,0,0,1,5.5,12.9l-1.377-.315c-.241-.059-.4-.247-.361-.426l.394-1.708a.4.4,0,0,1,.51-.222Z" transform="translate(-0.865 -2.35)" fill="#aebfce"/>
          <path id="패스_18144" data-name="패스 18144" d="M22.138,19.07a.4.4,0,0,0-.55-.065l-1.2,1.283a.408.408,0,0,0,.1.55l1.036.961a.405.405,0,0,0,.554.066l1.193-1.285a.4.4,0,0,0-.1-.549Z" transform="translate(-4.677 -4.354)" fill="#aebfce"/>
          <path id="패스_18145" data-name="패스 18145" d="M8.763,6.61a.4.4,0,0,1,.1.549L7.672,8.442a.407.407,0,0,1-.555-.064L6.085,7.414a.406.406,0,0,1-.1-.547L7.177,5.585a.405.405,0,0,1,.554.062Z" transform="translate(-1.361 -1.266)" fill="#aebfce"/>
          <path id="패스_18146" data-name="패스 18146" d="M18.5,22.15c-.072-.236-.273-.384-.448-.333l-1.674.515a.4.4,0,0,0-.186.526L16.6,24.21c.073.235.273.384.448.329l1.677-.51a.4.4,0,0,0,.185-.527Z" transform="translate(-3.719 -5.018)" fill="#aebfce"/>
          <path id="패스_18147" data-name="패스 18147" d="M13.143,4.674a.4.4,0,0,1-.186.525l-1.676.511c-.173.054-.374-.092-.447-.33l-.414-1.351a.4.4,0,0,1,.185-.526l1.674-.514a.407.407,0,0,1,.45.334Z" transform="translate(-2.392 -0.686)" fill="#aebfce"/>
          <path id="패스_18148" data-name="패스 18148" d="M5.678,10.311a7.384,7.384,0,1,0,8.854-5.542,7.387,7.387,0,0,0-8.854,5.542m2.456.565a4.863,4.863,0,1,1,3.648,5.829,4.863,4.863,0,0,1-3.648-5.829" transform="translate(-1.263 -1.054)" fill="#aebfce"/>
          <path id="패스_18149" data-name="패스 18149" d="M1.669,26.226A4.275,4.275,0,1,0,7.6,25.077a4.273,4.273,0,0,0-5.936,1.149m1.209.818a2.815,2.815,0,1,1,.754,3.908,2.815,2.815,0,0,1-.754-3.908" transform="translate(-0.215 -5.602)" fill="#768296"/>
          <path id="사각형_7432" data-name="사각형 7432" d="M.34,0h.668a.339.339,0,0,1,.339.339V1.566a.34.34,0,0,1-.34.34H.341A.341.341,0,0,1,0,1.565V.34A.34.34,0,0,1,.34,0Z" transform="translate(6.222 19.5) rotate(-55.991)" fill="#768296"/>
          <path id="사각형_7433" data-name="사각형 7433" d="M.341,0h.664a.341.341,0,0,1,.341.341V1.565A.342.342,0,0,1,1,1.907H.34A.34.34,0,0,1,0,1.567V.341A.341.341,0,0,1,.341,0Z" transform="translate(1.434 26.583) rotate(-56)" fill="#768296"/>
          <path id="사각형_7434" data-name="사각형 7434" d="M.34,0h.666a.34.34,0,0,1,.34.34V1.566a.34.34,0,0,1-.34.34H.339A.339.339,0,0,1,0,1.568V.34A.34.34,0,0,1,.34,0Z" transform="translate(8.35 21.397) rotate(-10.935)" fill="#768296"/>
          <path id="사각형_7435" data-name="사각형 7435" d="M.338,0h.669a.339.339,0,0,1,.339.339V1.565A.342.342,0,0,1,1,1.907H.342A.342.342,0,0,1,0,1.565V.338A.338.338,0,0,1,.338,0Z" transform="matrix(0.982, -0.189, 0.189, 0.982, -0.044, 23.019)" fill="#768296"/>
          <path id="패스_18150" data-name="패스 18150" d="M10.985,31.667a.261.261,0,0,0-.362.072l-.776,1.146a.261.261,0,0,0,.069.363l.683.46a.257.257,0,0,0,.362-.068l.777-1.146a.263.263,0,0,0-.069-.362Z" transform="translate(-2.256 -7.277)" fill="#768296"/>
          <path id="사각형_7436" data-name="사각형 7436" d="M.339,0H1.566a.34.34,0,0,1,.34.34v.666a.339.339,0,0,1-.339.339H.338A.338.338,0,0,1,0,1.008V.339A.339.339,0,0,1,.339,0Z" transform="translate(0.362 21.035) rotate(-55.903)" fill="#768296"/>
          <path id="사각형_7437" data-name="사각형 7437" d="M.34,0H1.565a.342.342,0,0,1,.342.342v.665a.339.339,0,0,1-.339.339H.34A.34.34,0,0,1,0,1.006V.34A.34.34,0,0,1,.34,0Z" transform="translate(4.743 26.734) rotate(-10.935)" fill="#768296"/>
          <path id="사각형_7438" data-name="사각형 7438" d="M.339,0H1.568a.34.34,0,0,1,.34.34v.666a.34.34,0,0,1-.34.34H.342A.342.342,0,0,1,0,1V.339A.339.339,0,0,1,.339,0Z" transform="translate(3.119 18.34) rotate(-10.947)" fill="#768296"/>
          <path id="패스_18151" data-name="패스 18151" d="M46.067,9.7C35.554,12.646,29.666,0,29.666,0s-5.889,12.646-16.4,9.7c0,0-2.946,25.654,16.4,32.383C49.009,35.358,46.067,9.7,46.067,9.7" transform="translate(-3.016)" fill="#115ba5"/>
          <path id="패스_18152" data-name="패스 18152" d="M30.633,39.933c-12.708-4.849-13.474-20.04-13.312-25.551a11.867,11.867,0,0,0,1.25.066c5.919,0,9.954-4.425,12.062-7.539,2.1,3.114,6.139,7.539,12.058,7.539a11.791,11.791,0,0,0,1.248-.066c.158,5.516-.621,20.71-13.306,25.551" transform="translate(-3.982 -1.59)" fill="#ffa229"/>
          <path id="패스_18153" data-name="패스 18153" d="M56.106,42.944a7.168,7.168,0,1,1-7.169-7.168,7.169,7.169,0,0,1,7.169,7.168" transform="translate(-9.612 -8.233)" fill="#768296"/>
          <path id="패스_18154" data-name="패스 18154" d="M45.091,40.66l5.157,6.794,4.258-4.711-4.258,1.972Z" transform="translate(-10.377 -9.357)" fill="#fcd751"/>
          <path id="패스_18155" data-name="패스 18155" d="M31.012,28.354H18.3c1.276,6.271,4.535,13.454,12.56,16.515.049-.02.1-.044.149-.065Z" transform="translate(-4.212 -6.525)" fill="#fcd751"/>
          <path id="패스_18156" data-name="패스 18156" d="M46.7,14.448a11.174,11.174,0,0,0,1.223-.067,41.21,41.21,0,0,1-.774,9.23H34.764V7.125c.052-.072-.2-.145-.149-.217,2.06,3.115,6.3,7.54,12.087,7.54" transform="translate(-7.964 -1.59)" fill="#fcd751"/>
          <rect id="사각형_7439" data-name="사각형 7439" width="3.435" height="4.124" transform="translate(45.981 21.77)" fill="#ffa229"/>
          <path id="패스_18157" data-name="패스 18157" d="M64.282,27.38H57.648l3.317-4.354Z" transform="translate(-13.266 -5.299)" fill="#ffa229"/>
          <rect id="사각형_7440" data-name="사각형 7440" width="2.421" height="2.905" transform="translate(38.238 4.235)" fill="#ffa229"/>
          <path id="패스_18158" data-name="패스 18158" d="M52.88,4.87H48.207L50.543,1.8Z" transform="translate(-11.094 -0.415)" fill="#ffa229"/>
          <rect id="사각형_7441" data-name="사각형 7441" width="3.085" height="3.703" transform="translate(9.249 34.806)" fill="#ffa229"/>
          <path id="패스_18159" data-name="패스 18159" d="M16.107,44.4H10.151l2.977-3.91Z" transform="translate(-2.336 -9.319)" fill="#ffa229"/>
        </g>
      </g>
    </g>
  </g>
</svg>
