<svg xmlns="http://www.w3.org/2000/svg" width="343" height="107" viewBox="0 0 343 107">
  <g id="그룹_3965" data-name="그룹 3965" transform="translate(-16 -195)">
    <rect id="사각형_7110" data-name="사각형 7110" width="343" height="107" transform="translate(16 195)" fill="red" opacity="0"/>
    <g id="그룹_3964" data-name="그룹 3964" transform="translate(-3)">
      <rect id="사각형_5779" data-name="사각형 5779" width="65" height="65" rx="32.5" transform="translate(35 215)" fill="#c35159"/>
      <text id="매수" transform="translate(67 255)" fill="#fff" font-size="20" font-family="SpoqaHanSansNeo-Bold, Spoqa Han Sans Neo" font-weight="700" letter-spacing="-0.025em"><tspan x="-18.15" y="0">매수</tspan></text>
    </g>
    <text id="스마트스코어_밸류에이션_수급분석" data-name="스마트스코어
밸류에이션
수급분석" transform="translate(181 226)" fill="#d9e0eb" font-size="12" font-family="SpoqaHanSansNeo-Regular, Spoqa Han Sans Neo" letter-spacing="-0.025em"><tspan x="-64.74" y="0">스마트스코어</tspan><tspan x="-54" y="24">밸류에이션</tspan><tspan x="-43.26" y="48">수급분석</tspan></text>
    <text id="_95점_85점_60점" data-name="95점
85점
60점" transform="translate(316 226)" fill="rgba(217,224,235,0.6)" font-size="12" font-family="SpoqaHanSansNeo-Bold, Spoqa Han Sans Neo" letter-spacing="-0.025em" font-weight="700"><tspan x="0" y="0">95</tspan><tspan y="0" font-family="SpoqaHanSansNeo-Regular, Spoqa Han Sans Neo" font-weight="400">점</tspan><tspan x="0" y="24">85</tspan><tspan y="24" font-family="SpoqaHanSansNeo-Regular, Spoqa Han Sans Neo" font-weight="400">점</tspan><tspan x="0" y="48">60</tspan><tspan y="48" font-family="SpoqaHanSansNeo-Regular, Spoqa Han Sans Neo" font-weight="400">점</tspan></text>
    <g id="그룹_3911" data-name="그룹 3911" transform="translate(188 217)">
      <rect id="사각형_5697" data-name="사각형 5697" width="121" height="10" rx="5" fill="#283752"/>
      <rect id="사각형_5698" data-name="사각형 5698" width="98" height="10" rx="5" fill="#126fbe"/>
    </g>
    <g id="그룹_3912" data-name="그룹 3912" transform="translate(188 241)">
      <rect id="사각형_5697-2" data-name="사각형 5697" width="121" height="10" rx="5" fill="#283752"/>
      <rect id="사각형_5698-2" data-name="사각형 5698" width="65" height="10" rx="5" fill="#1290be"/>
    </g>
    <g id="그룹_3913" data-name="그룹 3913" transform="translate(188 265)">
      <rect id="사각형_5697-3" data-name="사각형 5697" width="121" height="10" rx="5" fill="#283752"/>
      <rect id="사각형_5698-3" data-name="사각형 5698" width="98" height="10" rx="5" fill="#12bebe"/>
    </g>
    <rect id="사각형_6983" data-name="사각형 6983" width="17" height="20" transform="translate(16 195)" fill="red" opacity="0"/>
    <rect id="사각형_6984" data-name="사각형 6984" width="17" height="16" transform="translate(16 286)" fill="red" opacity="0"/>
    <path id="question_fill" data-name="question fill" d="M6,12a5.875,5.875,0,0,1-3.024-.816,6.074,6.074,0,0,1-2.16-2.16A5.875,5.875,0,0,1,0,6,5.875,5.875,0,0,1,.816,2.976,6.074,6.074,0,0,1,2.976.816,5.875,5.875,0,0,1,6,0,5.875,5.875,0,0,1,9.024.816a6.074,6.074,0,0,1,2.16,2.16A5.875,5.875,0,0,1,12,6a5.875,5.875,0,0,1-.816,3.024,6.074,6.074,0,0,1-2.16,2.16A5.875,5.875,0,0,1,6,12ZM5.4,7.8V9H6.6V7.8Zm1.2-.984a2.137,2.137,0,0,0,.852-.5,2.1,2.1,0,0,0,.528-.828,2.076,2.076,0,0,0,.1-.99A2,2,0,0,0,7.7,3.576a2.167,2.167,0,0,0-.744-.642,2.1,2.1,0,0,0-2.292.24,2.085,2.085,0,0,0-.732,1.218l1.176.228a.9.9,0,0,1,1-.708A.894.894,0,0,1,6.7,4.23a.844.844,0,0,1,.2.624.885.885,0,0,1-.282.6A.864.864,0,0,1,6,5.7a.594.594,0,0,0-.6.6v.9H6.6Z" transform="translate(85 210)" fill="#445471"/>
  </g>
</svg>
