<svg xmlns="http://www.w3.org/2000/svg" width="12" height="12" viewBox="0 0 12 12">
  <path id="question_fill" data-name="question fill" d="M6,12a5.875,5.875,0,0,1-3.024-.816,6.074,6.074,0,0,1-2.16-2.16A5.875,5.875,0,0,1,0,6,5.875,5.875,0,0,1,.816,2.976,6.074,6.074,0,0,1,2.976.816,5.875,5.875,0,0,1,6,0,5.875,5.875,0,0,1,9.024.816a6.074,6.074,0,0,1,2.16,2.16A5.875,5.875,0,0,1,12,6a5.875,5.875,0,0,1-.816,3.024,6.074,6.074,0,0,1-2.16,2.16A5.875,5.875,0,0,1,6,12ZM5.4,7.8V9H6.6V7.8Zm1.2-.984a2.137,2.137,0,0,0,.852-.5,2.1,2.1,0,0,0,.528-.828,2.076,2.076,0,0,0,.1-.99A2,2,0,0,0,7.7,3.576a2.167,2.167,0,0,0-.744-.642,2.1,2.1,0,0,0-2.292.24,2.085,2.085,0,0,0-.732,1.218l1.176.228a.9.9,0,0,1,1-.708A.894.894,0,0,1,6.7,4.23a.844.844,0,0,1,.2.624.885.885,0,0,1-.282.6A.864.864,0,0,1,6,5.7a.594.594,0,0,0-.6.6v.9H6.6Z" fill="#445471"/>
</svg>
